<svg class="icon access" role="presentation" aria-labelledby="access-title access-desc" xmlns="http://www.w3.org/2000/svg" width="15.2" height="19.4" viewBox="0 0 15.2 19.4"><title id="access-title">Access</title><description id="access-desc">Icon of person in wheelchair.</description><path d="M13.5 9.1c-.2-.2-.4-.3-.7-.3L9.7 9l1.7-2c.2-.3.3-.7.2-1-.1-.2-.2-.4-.4-.6L7.1 3c-.3-.2-.8-.2-1.1.1L4 4.9c-.4.3-.4.9-.1 1.3.3.4.9.4 1.3.1l1.5-1.4 1.3.7-2.2 2.5c-.9.2-1.8.6-2.4 1.2l1.2 1.2c.5-.5 1.2-.8 2-.8 1.6 0 3 1.3 3 3 0 .8-.3 1.5-.8 2l1.2 1.2c.8-.8 1.3-1.9 1.3-3.2 0-.7-.2-1.4-.5-2l1.2-.1-.3 3.6c0 .5.3.9.8 1h.1c.5 0 .9-.4.9-.8l.4-4.7c-.2-.1-.3-.4-.4-.6zM11.8 5.3c.8 0 1.5-.7 1.5-1.5s-.7-1.5-1.5-1.5-1.5.7-1.5 1.5.7 1.5 1.5 1.5zM6.5 15.8c-1.6 0-3-1.3-3-3 0-.6.2-1.2.5-1.7L2.8 9.9c-.6.8-1 1.8-1 2.8 0 2.5 2.1 4.6 4.6 4.6 1.1 0 2.1-.4 2.8-1L8 15.1c-.3.5-.9.7-1.5.7z"/></svg>
