<svg class="icon icon-user-experience" role="presentation" aria-labelledby="icon-user-experience-title icon-user-experience-desc" xmlns="http://www.w3.org/2000/svg" width="42.5" height="48" viewBox="0 0 42.5 48"><title id="icon-user-experience-title">User Experience</title><description id="icon-user-experience-desc">An icon of a light bulb.</description><path fill="#012635" d="M16.2 40.5c-.3 0-.6-.3-.6-.6s.2-.5.4-.6l10.4-2.8c.4-2.7 1.5-5.3 3.3-7.3 1.7-1.8 2.8-4.1 3.2-6.6.6-4.5-1.4-8.9-5-11.5-3.1-2.3-7.1-2.8-10.7-1.3l-.2.1c-2.9 1.1-5 3.5-6.5 7.3-2.3 6.1 1.2 10.5 3.4 13 1.6 2 2.6 4.3 2.9 6.8 0 .3-.2.6-.6.6-.3 0-.6-.2-.6-.5-.3-2.3-1.2-4.4-2.6-6.2-2.3-2.7-6.1-7.4-3.6-14.2 1.6-4.1 4-6.8 7.2-8h.1c4-1.6 8.4-1 11.9 1.5 4 2.9 6 7.7 5.5 12.6-.5 2.7-1.7 5.2-3.5 7.2-1.7 2-2.7 4.4-3 6.9 0 .5-.4.6-.9.7l-1.2.3-3.7 1-5.4 1.4-.2.2zm-.3 2.4c-.3 0-.6-.3-.6-.6s.2-.5.4-.6l11-3.2c.3-.1.7 0 .8.4s0 .7-.4.8H27l-11 3.2h-.1zm0 2.4c-.3 0-.6-.3-.6-.6s.2-.5.4-.6l11-3.2c.3-.1.7 0 .8.4s0 .7-.4.8H27l-11 3.2h-.1zm5.7 2.7c-1 0-2-.3-2.9-.9-.3-.2-.3-.6-.1-.8.2-.3.5-.3.8-.2.1.1 2.2 1.5 4 0 .3-.2.6-.2.8.1.2.3.2.6-.1.8-.6.7-1.5 1-2.5 1zm-.1-42.1c-.3 0-.6-.3-.6-.6V.6c0-.3.3-.6.6-.6s.6.3.6.6v4.7c0 .4-.3.6-.6.6zM10.4 9.1c-.2 0-.3-.1-.4-.2L6.9 5.8c-.2-.2-.2-.6 0-.8s.6-.2.8 0l3.2 3.2c.2.2.2.6 0 .8-.2 0-.3 0-.5.1zm-4.3 9l-5.6-.8c-.3 0-.6-.4-.5-.7s.4-.6.7-.5l5.5.8c.3.1.5.4.5.7-.1.3-.3.5-.6.5zM2.6 30.7c-.3 0-.6-.3-.6-.6 0-.2.1-.4.3-.5L7 27.2c.3-.2.6-.1.8.2.2.2.2.6-.1.8l-.1.1-4.7 2.4h-.3zm37.7.8c-.1 0-.2 0-.3-.1L35.3 29c-.3-.1-.4-.5-.3-.8.1-.3.5-.4.8-.3h.1l4.7 2.4c.3.1.4.5.3.8-.1.3-.3.4-.6.4zm-3.1-14.2c-.3 0-.6-.3-.6-.6s.2-.5.5-.6l4.7-.8c.3-.1.6.1.7.4.1.3-.1.6-.4.7H42l-4.7.8-.1.1zm-4.7-8.2c-.3 0-.6-.3-.6-.6 0-.1.1-.3.2-.4l3.2-3.2c.2-.2.6-.2.8 0 .2.2.2.6 0 .8l-3.2 3.1c-.1.2-.3.3-.4.3z"/></svg>
