<svg class="icon icon-analysis" role="presentation" aria-labelledby="icon-analysis-title icon-analysis-desc" xmlns="http://www.w3.org/2000/svg" width="85.5" height="86" viewBox="0 0 85.5 86"><title id="icon-analysis-title">Analysis</title><description id="icon-analysis-desc">An icon of a magnifying glass highlighting a bar graph.</description><g fill="#012635"><path d="M18.7 24.4h1c.7 0 1.3.6 1.3 1.3 0 .4.3.7.7.7.4 0 .7-.3.7-.7 0-1.5-1.2-2.7-2.6-2.7h-1c-1.5 0-2.7 1.2-2.7 2.6v14c0 1.5 1.2 2.7 2.7 2.7h1c1.5 0 2.7-1.2 2.7-2.7v-11c0-.4-.3-.7-.7-.7-.4 0-.7.3-.7.7v11c0 .7-.6 1.3-1.3 1.3h-1c-.7 0-1.3-.6-1.3-1.3v-14c-.2-.7.4-1.3 1.2-1.2zm10-7h1c.7 0 1.3.5 1.3 1.2 0 .4.3.7.7.7s.7-.3.7-.7c0-1.5-1.2-2.6-2.6-2.6h-1c-1.5 0-2.7 1.2-2.7 2.6v21c0 1.5 1.2 2.7 2.7 2.7h1c1.5 0 2.7-1.2 2.7-2.7v-18c0-.4-.3-.7-.7-.7-.4 0-.7.3-.7.7v18c0 .7-.6 1.3-1.3 1.3h-1c-.7 0-1.3-.6-1.3-1.3v-21c-.2-.7.4-1.3 1.2-1.2zm10 5h1c.7 0 1.3.5 1.3 1.2 0 .4.3.7.7.7s.7-.3.7-.7c0-1.5-1.2-2.6-2.6-2.6h-1c-1.5 0-2.7 1.2-2.7 2.6v16c0 1.5 1.2 2.7 2.7 2.7h1c1.5 0 2.7-1.2 2.7-2.7v-13c0-.4-.3-.7-.7-.7s-.8.4-.8.8v13c0 .7-.6 1.3-1.3 1.3h-1c-.7 0-1.3-.6-1.3-1.3v-16c-.1-.8.5-1.4 1.3-1.3z"/><path d="M84.1 74.6L66.4 56.9s-3.2-2.4-6.7-1l-5.8-5.8-.6-.6C64 36.8 62.4 17.7 49.6 6.9S17.7-2.2 7 10.6s-9.1 31.9 3.7 42.6c11 9.2 26.9 9.5 38.1.6l6.4 6.4.1.1c-.7 2.1-.4 4.4.8 6.2l.1.1c.1.1 14.1 14.4 16.5 16.8 1.4 1.5 3.4 2.4 5.5 2.5 2.1-.1 4-1 5.4-2.5 3.1-3 1.7-7.1.5-8.8zM1.4 30.2c0-15.9 12.9-28.8 28.8-28.8S59 14.2 59 30.2 46.1 59 30.2 59 1.4 46.1 1.4 30.2zM49.8 53c.9-.8 1.8-1.6 2.6-2.5l.5.5 5.5 5.5c-.4.3-.9.6-1.2 1-.5.5-.9 1-1.2 1.6L49.8 53zm32.8 29.6c-1.1 1.3-2.7 2-4.4 2.1-1.7-.1-3.4-.8-4.5-2.1-2.4-2.4-15.7-15.9-16.5-16.8-1.5-2.3-1.1-5.4 1-7.3 2-2 5.1-2.3 7.4-.6L83 75.4c.3.5 2.6 4.2-.4 7.2z"/><path d="M30.2 10C18.5 10 9 19.5 9 31.2s9.5 21.2 21.2 21.2 21.2-9.5 21.2-21.2C51.3 19.5 41.9 10 30.2 10zm0 41c-11 0-19.8-8.9-19.8-19.8s8.9-19.8 19.8-19.8S50 20.2 50 31.2C50 42.1 41.1 51 30.2 51z"/></g></svg>
