<svg class="icon icon-bug-fix" role="presentation" aria-labelledby="icon-bug-fix-title icon-bug-fix-desc" xmlns="http://www.w3.org/2000/svg" width="87.3" height="77.8" viewBox="0 0 87.3 77.8"><title id="icon-bug-fix-title">Bug Fix</title><description id="icon-bug-fix-desc">An icon of a beetle as a representation of a computer bug.</description><path fill="#012635" d="M86.7 45.3h-19c-.1 0-.2 0-.3.1v-2.1c.1-4.1-.4-8.1-1.5-12 .4 0 1.3.1 2.5.1 2 0 3.9-.1 5.9-.4 7.1-1.2 7.1-5.1 7.1-13v-1.5c0-.4-.4-.6-.8-.6-.3 0-.6.3-.6.6v1.4c0 7.8 0 10.7-6 11.7-2.7.4-5.5.5-8.2.3-.1 0-.3 0-.4.1-1-2.6-2.7-4.7-5-6.3V18c0-3.7-3-6.7-6.7-6.7h-3.2c2.8-2 4.8-6 4.8-10.7 0-.4-.3-.7-.7-.7-.4 0-.7.3-.7.7 0 5.9-3.4 10.7-7.5 10.7H43c-4.2 0-7.5-4.8-7.5-10.7 0-.4-.4-.6-.8-.6-.3 0-.6.3-.6.6 0 4.6 2 8.7 4.8 10.7h-4.2c-3.7 0-6.7 3-6.7 6.7v5.8l-.2.1c-2.1 1.6-3.7 3.7-4.7 6.1-2.7.1-5.5 0-8.2-.4-6-1-6-3.9-6-11.7v-1.4c0-.4-.4-.6-.8-.6-.3 0-.6.3-.6.6v1.4c0 7.9 0 11.9 7.1 13 2 .3 4.1.5 6.1.4h1.8c-1.2 3.9-1.8 7.9-1.7 12v2H.7c-.4 0-.6.4-.6.8 0 .3.3.6.6.6H21v8.1c0 1.2.1 2.4.3 3.6-2.6-.2-5.3-.1-7.9.3-7.1 1.2-7.1 5.2-7.1 13v1.4c0 .4.3.7.7.7.4 0 .7-.3.7-.7v-1.3c0-7.8 0-10.7 6-11.7 2.6-.4 5.3-.5 8-.3 2.8 12.5 15.2 20.3 27.7 17.5 8.7-2 15.6-8.8 17.5-17.5h.3c2.8-.2 5.5-.1 8.3.2 6 1 6 3.9 6 11.7v1.4c0 .4.4.6.8.6.3 0 .6-.3.6-.6v-1.4c0-7.9 0-11.8-7.1-13-2.8-.4-5.7-.5-8.5-.3.2-1.2.3-2.4.3-3.7v-8.2c.1.1.2.1.3.1h19c.4 0 .7-.2.8-.6s-.2-.7-.6-.8c-.2.1-.3.1-.4.1zM29.4 18c0-2.9 2.4-5.3 5.3-5.3h19c2.9 0 5.3 2.4 5.3 5.3v5c0 2.9-2.4 5.3-5.3 5.3h-19c-2.9 0-5.3-2.4-5.3-5.3v-5zm-7 36.8V43.3c-.1-4.3.5-8.5 2-12.5.8-2.2 2.2-4.1 4.1-5.6.9 2.7 3.5 4.5 6.3 4.5H44v46.8c-12-.1-21.6-9.8-21.6-21.7zm43.6 0c0 11.6-9.1 21.1-20.7 21.7V29.7h8.3c2.9 0 5.4-1.8 6.3-4.5 4.2 3 6 8.5 6 18.2v11.4z"/></svg>
