<svg class="icon icon-computer" role="presentation" aria-labelledby="icon-computer-title icon-computer-description" xmlns="http://www.w3.org/2000/svg" width="86.3" height="82.3" viewBox="0 0 86.3 82.3"><title id="icon-computer-title">Computer</title><description id="icon-computer-desc">An icon of a computer.</description><g fill="#012635"><path d="M79.7 0h-73C3 0 0 3 0 6.7v55c0 3.7 3 6.7 6.7 6.7h25.2c-.1 2.7-.6 5.4-1.7 7.9-2 4.6-7.5 4.8-7.6 4.8-.4 0-.6.4-.6.8 0 .3.3.6.6.6h41.1c.4 0 .7-.3.7-.7 0-.4-.3-.7-.6-.7-.1 0-5.6-.2-7.6-4.8-1-2.5-1.6-5.2-1.7-7.9h25.2c3.7 0 6.7-3 6.7-6.7v-55C86.3 3 83.4 0 79.7 0zM54.9 76.8c.8 1.8 2.2 3.3 4 4.2H27.5c1.8-.9 3.2-2.4 4-4.2 1.1-2.7 1.7-5.5 1.8-8.4h19.9c0 2.8.6 5.7 1.7 8.4zM85 61.7c0 2.9-2.4 5.3-5.3 5.3h-73c-2.9 0-5.3-2.4-5.3-5.3v-55c0-2.9 2.4-5.3 5.3-5.3h73c2.9 0 5.3 2.4 5.3 5.3v55z"/><path d="M75.7 8h-64C8.5 8 6 10.5 6 13.7v38c0 3.1 2.5 5.7 5.7 5.7h64c3.1 0 5.7-2.5 5.7-5.7v-38c-.1-3.2-2.6-5.7-5.7-5.7zM80 51.7c0 2.4-1.9 4.3-4.3 4.3h-64c-2.4 0-4.3-1.9-4.3-4.3v-38c0-2.4 1.9-4.3 4.3-4.3h64c2.4 0 4.3 1.9 4.3 4.3v38zm-36.8 8.7c-.8 0-1.4.6-1.4 1.4s.6 1.4 1.4 1.4c.8 0 1.4-.6 1.4-1.4 0-.8-.6-1.4-1.4-1.4z"/><path d="M75.7 13c-.4 0-.7.3-.7.7v5c0 .4.2.7.6.8.4 0 .7-.2.8-.6v-5.2c0-.4-.3-.7-.7-.7zm0 10c-.4 0-.7.3-.7.7v11c0 .4.2.7.6.8.4 0 .7-.2.8-.6V23.7c-.1-.4-.4-.7-.7-.7z"/></g></svg>
