<svg class="icon icon-search" role="presentation" aria-labelledby="icon-search-title icon-search-desc" xmlns="http://www.w3.org/2000/svg" width="86" height="85.2" viewBox="0 0 86 85.2"><title id="icon-search-title">Search</title><description id="icon-search-desc">A magnifying glass icon.</description><g fill="#012635"><path d="M84.6 73.8L66.9 56.1s-3.2-2.4-6.7-1l-5.8-5.8-.5-.5c10.3-13.1 8-32.1-5.1-42.4s-32.1-8-42.4 5.1-8 32.1 5.1 42.4c11.3 8.8 27.2 8.6 38.1-.7l6.1 6.2.1.1c-.7 2.1-.4 4.4.8 6.2l.1.1c.1.1 14.1 14.4 16.5 16.8 1.4 1.5 3.4 2.4 5.5 2.5 2.1-.1 4-1 5.4-2.5 3.1-3.1 1.7-7.1.5-8.8zM1.4 30.2c0-15.9 12.9-28.8 28.8-28.8S59 14.2 59 30.2 46.1 59 30.2 59 1.4 46.1 1.4 30.2zm49.2 22.1c.8-.8 1.6-1.6 2.4-2.5l.4.4 5.5 5.5c-.4.3-.9.6-1.2 1-.5.5-.9 1-1.2 1.5l-5.9-5.9zm32.5 29.4c-1.1 1.3-2.7 2-4.4 2.1-1.7-.1-3.4-.8-4.5-2.1-2.4-2.3-15.6-15.8-16.5-16.7-1.5-2.3-1.1-5.4 1-7.3 1.9-2 5-2.3 7.3-.6l17.5 17.5c.3.5 2.6 4.1-.4 7.1z"/><path d="M30.2 9C18.5 9 9 18.5 9 30.2s9.5 21.2 21.2 21.2 21.2-9.5 21.2-21.2C51.3 18.5 41.9 9 30.2 9zm0 41c-11 0-19.8-8.9-19.8-19.8s8.9-19.8 19.8-19.8S50 19.2 50 30.2C50 41.1 41.1 50 30.2 50z"/><path d="M36.1 15.4c-1.3-.5-2.7-.9-4.1-1.1-.4 0-.7.2-.7.6 0 .4.2.7.6.7 1.3.2 2.6.5 3.8 1 3 1.2 5.4 3.4 7 6.2.2.3.6.4.9.2.3-.2.4-.5.2-.8-1.7-3-4.4-5.4-7.7-6.8zm-13.2 2.2c.1 0 .2 0 .3-.1 1.4-.8 3-1.4 4.6-1.7.4-.1.6-.4.6-.8-.1-.4-.4-.6-.8-.6-1.8.3-3.5.9-5.1 1.8-.3.2-.4.6-.3.9.2.4.4.5.7.5zM28.4 44c-1.3-.2-2.6-.5-3.8-1-3-1.2-5.4-3.4-7-6.2-.1-.3-.5-.5-.9-.4-.3.1-.5.5-.4.9 0 0 0 .1.1.1 1.7 3.1 4.5 5.5 7.7 6.8 1.3.5 2.7.9 4.2 1.1h.1c.4-.1.6-.4.5-.8-.1-.2-.2-.4-.5-.5zm8.7-1.8c-1.4.8-3 1.4-4.6 1.7-.4 0-.6.4-.6.7 0 .4.4.6.7.6h.1c1.8-.3 3.5-.9 5.1-1.8.3-.1.5-.5.4-.9s-.5-.5-.9-.4c-.1.1-.2.1-.2.1z"/></g></svg>
