<svg class="icon icon-competitive-analysis" role="presentation" aria-labelledby="icon-competitive-analysis-title icon-competitive-analysis-desc" xmlns="http://www.w3.org/2000/svg" width="80.8" height="82" viewBox="0 0 80.8 82"><title id="icon-competitive-analysis-title">Competitive Analysis</title><description>An icon of three chess pawns.</description><g fill="#012635"><path d="M19.9 70.6c0-.4-.3-.7-.7-.7H1.7c-.2 0-.3-.2-.3-.3v-1.9c0-.2.1-.3.3-.3H22c.4 0 .7-.3.7-.7s-.3-.7-.7-.7H2.5l4.8-6h.5c.2 0 .3.1.5.1h14.9l2 2.1c.3.3.7.3 1 0 .3-.3.3-.7 0-.9L23.9 59c.1-.2.1-.3.1-.5v-1.9c0-.9-.7-1.7-1.7-1.7h-.2c-1.6-2.9-2.4-6.2-2.5-9.5.1-3.1.4-6.2 1-9.2h1.7c.9 0 1.7-.8 1.7-1.7v-1.9c0-.9-.7-1.7-1.7-1.7H19c4-2 5.6-7 3.6-11s-7-5.6-11-3.6-5.6 7-3.6 11c.8 1.5 2 2.8 3.6 3.6H8.3c-.9 0-1.7.7-1.7 1.7v1.9c0 .9.7 1.7 1.7 1.7h1.1c1.1 3 1.6 6.1 1.7 9.2.1 3.3-.7 6.7-2.5 9.5h-.3c-.9 0-1.7.7-1.7 1.7v2.3c-.1 0-.1.1-.2.1L.5 66.3c-.1.1-.1.3-.1.4-.3.3-.4.6-.4 1v1.9c0 .9.7 1.7 1.7 1.7h17.5c.4-.1.7-.3.7-.7zm-11.4-47c0-3.8 3.1-6.8 6.8-6.8s6.8 3.1 6.8 6.8-3.1 6.8-6.8 6.8c-3.7 0-6.7-3-6.8-6.8zM8 34.5v-1.9c0-.2.1-.3.3-.3h14c.2 0 .3.1.3.3v1.9c0 .2-.1.3-.3.3h-14c-.2 0-.3-.1-.3-.3zm4.5 10.9c-.1-3-.6-6-1.5-8.9h8.3c-.5 2.9-.8 5.9-.9 8.9.1 3.3.8 6.5 2.3 9.4H10.3c1.5-2.9 2.2-6.2 2.2-9.4zM8 56.6c0-.2.1-.3.3-.3h14c.2 0 .3.1.3.3v1.9c0 .2-.1.3-.3.3l-14.2-.1c-.1 0-.1-.1-.1-.2v-1.9zm72.4 10.1c0-.1 0-.3-.1-.4l-6-7.3c0-.1-.1-.1-.2-.1v-2.3c0-.9-.7-1.7-1.7-1.7H72c-.4-.7-2.4-3.9-2.4-9.5.1-3.1.7-6.3 1.7-9.2h1.1c.9 0 1.7-.7 1.7-1.7v-1.9c0-.9-.7-1.7-1.7-1.7H69c4-2 5.6-7 3.6-11-2-4-7-5.6-11-3.6s-5.6 7-3.6 11c.8 1.5 2 2.8 3.6 3.6h-3.2c-.9 0-1.7.7-1.7 1.7v1.9c0 .9.8 1.7 1.7 1.7h1.7c.6 3 .9 6.1 1 9.2-.1 3.3-.9 6.6-2.5 9.5h-.2c-.9 0-1.7.7-1.7 1.7v1.9c0 .2 0 .4.1.5l-2.2 2.3c-.3.3-.3.7 0 .9.3.3.7.3 1 0l2-2.1h14.8c.2 0 .3 0 .5-.1h.5l4.8 6H58.8c-.4 0-.7.2-.8.6 0 .4.2.7.6.8h20.5c.2 0 .3.1.3.3v1.9c0 .2-.1.3-.3.3H61.5c-.4 0-.7.2-.8.6 0 .4.2.7.6.8H79c.9 0 1.7-.8 1.7-1.7v-1.8c.1-.5-.1-.8-.3-1.1zm-21.8-43c0-3.8 3.1-6.8 6.8-6.8 3.8 0 6.8 3.1 6.8 6.8s-3.1 6.8-6.8 6.8c-3.8 0-6.8-3.1-6.8-6.8zm-.5 10.8v-1.9c0-.2.1-.3.3-.3h14c.2 0 .3.1.3.3v1.9c0 .2-.1.3-.3.3h-14c-.1 0-.3-.1-.3-.3zm4.4 10.9c-.1-3-.4-6-.9-8.9h8.3c-.9 2.9-1.5 5.9-1.5 8.9-.1 3.3.7 6.5 2.2 9.4H60.2c1.4-2.9 2.2-6.2 2.3-9.4zm-4.4 11.2c0-.2.1-.3.3-.3h14c.2 0 .3.1.3.3v1.9c0 .1-.1.2-.1.2l-14.2.1c-.2 0-.3-.1-.3-.3v-1.9z"/><path d="M62.9 75.1c0-.1-.1-.2-.1-.2l-10-10.6h-.1c.1-.2.1-.3.1-.5V60c0-.9-.7-1.7-1.7-1.7h-1c-2.3-4.4-3.6-9.3-3.8-14.3.1-4.7.6-9.4 1.5-14H51c.9 0 1.7-.8 1.7-1.7v-3.8c0-.9-.7-1.7-1.7-1.7h-6.9c6.1-2.2 9.4-8.9 7.2-15s-8.9-9.4-15-7.2-9.4 8.9-7.2 15c1.2 3.4 3.8 6 7.2 7.2h-7.1c-.9 0-1.7.7-1.7 1.7v3.8c0 .9.8 1.7 1.7 1.7h2.4c1.6 4.5 2.5 9.2 2.6 14 0 8.6-3.1 13.5-3.7 14.3h-1.2c-.9 0-1.7.7-1.7 1.7v4.1c-.1 0-.2.1-.3.2l-8.8 10.8c0 .1-.1.1-.1.2-.4.3-.6.8-.6 1.3v3.8c0 .9.7 1.7 1.7 1.7H62c.9 0 1.7-.8 1.7-1.7v-3.8c0-.6-.3-1.2-.8-1.5zm-33-63.3c0-5.8 4.7-10.4 10.4-10.4S50.8 6 50.8 11.8s-4.7 10.4-10.4 10.4c-5.8 0-10.5-4.7-10.5-10.4zM29 28.3v-3.8c0-.2.1-.3.3-.3h21.8c.2 0 .3.1.3.3v3.8c0 .2-.1.3-.3.3H29.3c-.2.1-.3-.1-.3-.3zM35.7 44c-.1-4.6-.9-9.1-2.4-13.5h13.1c-.8 4.5-1.3 9-1.4 13.5.1 5 1.3 9.8 3.5 14.2H32.2c1.2-2 3.5-6.7 3.5-14.2zM29 60c0-.2.1-.3.3-.3h21.8c.2 0 .3.1.3.3v3.8c0 .2-.1.3-.3.3l-22-.1c-.1-.1-.1-.1-.1-.2V60zm-.8 5.3h.5c.2.1.4.1.6.1H52l8.7 9.2-40.2.1 7.7-9.4zm34.1 15c0 .2-.1.3-.3.3H19.5c-.2 0-.3-.1-.3-.3v-3.8c0-.2.1-.3.3-.3H62c.2 0 .3.1.3.3v3.8z"/></g></svg>
