<svg class="icon icon-decoupled" role="presentation" aria-labelledby="icon-decoupled-title icon-decoupled-desc" xmlns="http://www.w3.org/2000/svg" width="85" height="72.7" viewBox="0 0 85 72.7"><title id="icon-decoupled-title">Decoupled</title><description id="icon-decoupled-desc">An icon showing a server taking code and displaying it on a computer.</description><g fill="#012635"><path d="M50.8 5.5c-.1 0-.2.1-.2.2 0 .2.3.2.3 0s-.1-.2-.1-.2zm4.9 0c-.1 0-.2.1-.2.2 0 .2.3.2.3 0 .1-.2 0-.2-.1-.2zm-9.9 0c-.1 0-.2.1-.2.2 0 .2.3.2.3 0 .1-.2 0-.2-.1-.2zm0 9.9c-.1 0-.2.1-.2.2 0 .2.3.2.3 0 .1-.2 0-.2-.1-.2zm9.9 0c-.1 0-.2.1-.2.2 0 .2.3.2.3 0 .1-.2 0-.2-.1-.2zm-4.9 0c-.1 0-.2.1-.2.2 0 .2.3.2.3 0s-.1-.2-.1-.2z"/><path d="M45.8 4.5c-.7 0-1.2.5-1.2 1.2s.5 1.2 1.2 1.2c.6 0 1.2-.5 1.2-1.2s-.5-1.2-1.2-1.2zm-.2 1.1c0-.1.1-.2.2-.2s.2.1.2.2c0 .2-.4.2-.4 0zm5.2-1.1c-.7 0-1.2.5-1.2 1.2s.5 1.2 1.2 1.2S52 6.4 52 5.7c-.1-.7-.6-1.2-1.2-1.2zm-.2 1.1c0-.1.1-.2.2-.2s.2.1.2.2c-.1.2-.4.2-.4 0zm5.1-1.1c-.6.1-1.1.6-1.1 1.3.1.6.5 1 1.1 1.1.6.1 1.2-.4 1.3-1.1s-.4-1.2-1.1-1.3h-.2zm-.2 1.1c0-.1.1-.2.2-.2s.2.1.2.2c0 .2-.4.2-.4 0zM28.5 3c-1.5 0-2.7 1.2-2.7 2.7s1.2 2.7 2.7 2.7c1.5 0 2.7-1.2 2.7-2.7-.1-1.5-1.3-2.7-2.7-2.7zm0 4c-.7 0-1.3-.6-1.3-1.3s.6-1.3 1.3-1.3c.7 0 1.3.6 1.3 1.3 0 .7-.6 1.3-1.3 1.3z"/><path d="M23.5 21.2h38c.4 0 .7-.3.7-.7V.7c0-.4-.3-.7-.7-.7h-38c-.4 0-.7.3-.7.7v19.8c0 .4.3.7.7.7zm.7-1.4v-8.6h36.7v8.6H24.2zm0-18.4h36.7V10H24.2V1.4z"/><path d="M45.8 14.4c-.7 0-1.2.5-1.2 1.2s.5 1.2 1.2 1.2c.6 0 1.2-.5 1.2-1.2s-.5-1.2-1.2-1.2zm-.2 1.1c0-.1.1-.2.2-.2s.2.1.2.2c0 .2-.4.2-.4 0zm5.2-1.1c-.7 0-1.2.5-1.2 1.2s.5 1.2 1.2 1.2 1.2-.5 1.2-1.2c-.1-.7-.6-1.2-1.2-1.2zm-.2 1.1c0-.1.1-.2.2-.2s.2.1.2.2c-.1.2-.4.2-.4 0zm5.1-1.1c-.7 0-1.2.5-1.2 1.2s.5 1.2 1.2 1.2 1.2-.5 1.2-1.2-.5-1.2-1.2-1.2zm-.2 1.1c0-.1.1-.2.2-.2s.2.1.2.2c0 .2-.4.2-.4 0zm-27-2.6c-1.5 0-2.7 1.2-2.7 2.7s1.2 2.7 2.7 2.7c1.5 0 2.7-1.2 2.7-2.7-.1-1.5-1.3-2.7-2.7-2.7zm0 4c-.7 0-1.3-.6-1.3-1.3s.6-1.3 1.3-1.3 1.3.6 1.3 1.3c0 .7-.6 1.3-1.3 1.3zm-3.4 46.2c1.4-.1 2.5-1.3 2.5-2.7v-11c.1-1.4-1-2.7-2.5-2.7H8.3c-1.4.1-2.5 1.3-2.5 2.7v11c-.1 1.4 1 2.7 2.5 2.7h8V65h-4.9c-.2 0-.3.2-.3.4s.2.3.3.3H22c.2 0 .4-.1.4-.3 0-.2-.1-.4-.3-.4h-5v-1.9h8zM8.3 47.3h16.8c1 .1 1.8 1 1.7 2v9.1h-20c-.1 0-.2 0-.3.1v-9.2c0-1 .8-1.9 1.8-2zm-1.7 13V59c.1.1.2.1.3.1h20v1.2c.1 1-.7 1.9-1.7 2H8.3c-1 0-1.7-.9-1.7-2z"/><circle cx="16.7" cy="60.8" r=".7"/><path d="M66.5 52.4v.3l1.3 2.3c.1.2.3.2.5.1l1.1-.6c.4.4.9.6 1.4.8v1.2c0 .2.2.4.3.4h2.6c.2 0 .4-.2.4-.3v-1.3c.4-.2.9-.4 1.2-.7l1 .6h.3c.1 0 .2 0 .2-.1l1.3-2.3v-.3c0-.1-.1-.2-.2-.2l-1.1-.6c.1-.5.1-1 0-1.5l1.1-.6.2-.2v-.3L77 46.7c0-.1-.1-.1-.2-.2h-.3l-1 .6c-.4-.3-.8-.5-1.2-.7v-1.2c0-.2-.2-.4-.4-.4h-2.6c-.2 0-.4.2-.4.4v1.2c-.5.1-1 .4-1.4.8l-1.1-.6c-.2-.1-.4 0-.5.1L66.6 49v.3c0 .1.1.2.2.2l1.1.6c-.1.5-.1 1 0 1.5l-1.1.6c-.1 0-.2.1-.3.2zm1.9-.3c.1-.1.2-.2.2-.4-.1-.6-.1-1.2 0-1.7 0-.2 0-.3-.2-.4l-1-.6.9-1.6 1 .6c.1.1.3.1.4-.1.4-.4.9-.7 1.5-.8.2 0 .3-.2.3-.4v-1.1h1.8v1.1c0 .1.1.3.2.3.5.2 1 .5 1.5.9.1.1.3.1.4 0l.9-.6.9 1.6-1 .6c-.1.1-.2.2-.2.4.1.6.1 1.2 0 1.7 0 .2 0 .3.2.4l1 .6-.9 1.6-.9-.6c-.1-.1-.3-.1-.4 0-.4.4-.9.7-1.5.9-.1.1-.2.2-.2.3V56h-1.8v-1c0-.2-.1-.3-.3-.4-.6-.1-1.1-.4-1.5-.9-.1-.1-.3-.1-.4 0l-1 .6-.9-1.6 1-.6z"/><path d="M72.4 52.9c1.2 0 2.1-.9 2.1-2.1s-.9-2.1-2.1-2.1-2.1.9-2.1 2.1c0 1.2 1 2.1 2.1 2.1zm0-3.4c.8 0 1.4.6 1.4 1.4 0 .8-.6 1.4-1.4 1.4-.8 0-1.4-.6-1.4-1.4.1-.8.7-1.4 1.4-1.4zM61.2 63.2c.4.4.9.6 1.4.8v1.2c0 .2.2.4.4.4h2.6c.2 0 .4-.2.4-.4v-1.3c.4-.2.9-.4 1.2-.7l1 .6h.3c.1 0 .2-.1.2-.2l1.3-2.3c.1-.2 0-.4-.1-.5l-1.1-.6c.1-.5.1-1 0-1.5l1.1-.6c.1 0 .2-.1.2-.2v-.3l-1.3-2.3c-.1-.1-.1-.2-.2-.2h-.3l-1 .6c-.4-.3-.8-.5-1.2-.7v-1.3c0-.2-.2-.4-.3-.4H63c-.2 0-.4.2-.4.3v1.2c-.5.1-1 .4-1.4.8l-1.1-.6c-.2-.1-.4 0-.5.1l-1.3 2.3v.3c0 .1.1.2.2.2l1.1.6c-.1.5-.1 1 0 1.5l-1.1.6c-.1.1-.2.1-.2.2v.3l1.3 2.3c.1.2.3.2.5.1l1.1-.3zm-2-1.9l1-.6c.1-.1.2-.2.2-.4-.1-.6-.1-1.2 0-1.7 0-.2 0-.3-.2-.4l-1-.6.9-1.6 1 .6c.2.1.3 0 .5-.1.4-.4.9-.7 1.5-.8.2 0 .3-.2.3-.4v-1.1h1.9v1.1c0 .1.1.3.2.3.5.2 1 .5 1.5.9.1.1.3.1.4 0l.9-.5.9 1.6-1 .6c-.1.1-.2.3-.2.4.1.6.1 1.2 0 1.7 0 .2 0 .3.2.4l1 .6-.9 1.7-.9-.6c-.1-.1-.3-.1-.4 0-.4.4-.9.7-1.5.9-.1.1-.2.2-.2.3v1.1h-1.8v-1.1c0-.2-.1-.3-.3-.4-.6-.1-1.1-.4-1.5-.9-.1-.1-.3-.1-.4 0l-1 .6-1.1-1.6z"/><path d="M64.2 61.6c1.2 0 2.1-.9 2.1-2.1s-.9-2.1-2.1-2.1-2.1.9-2.1 2.1c0 1.2.9 2.1 2.1 2.1zm0-3.4c.8 0 1.4.6 1.4 1.4S65 61 64.2 61c-.8 0-1.4-.6-1.4-1.4 0-.8.6-1.4 1.4-1.4z"/><path d="M82.3 37.7h-28c-1.5 0-2.7 1.2-2.7 2.7V70c0 1.5 1.2 2.7 2.7 2.7H57c.4 0 .7-.3.7-.7 0-.4-.3-.7-.7-.7h-2.7c-.7 0-1.3-.6-1.3-1.3V40.3c0-.7.6-1.3 1.3-1.3h27.9c.7 0 1.3.6 1.3 1.3v1.8c0 .4.3.7.7.7.4 0 .7-.3.7-.7v-1.7c.1-1.5-1.1-2.7-2.6-2.7zm2 8.5c-.4 0-.7.3-.7.7V70c0 .7-.6 1.3-1.3 1.3H60.7c-.4 0-.7.3-.7.7 0 .4.3.7.7.7h21.6c1.5 0 2.7-1.2 2.7-2.6V46.8c0-.3-.3-.6-.7-.6zm-53.7-8.5H2.7c-1.5 0-2.7 1.2-2.7 2.7V70c0 1.5 1.2 2.7 2.7 2.7h2.7c.3 0 .6-.3.6-.7 0-.4-.3-.7-.7-.7H2.7c-.7 0-1.3-.6-1.3-1.3V40.3c0-.7.6-1.3 1.3-1.3h27.9c.7 0 1.3.6 1.3 1.3v1.8c0 .4.4.6.8.6.3 0 .6-.3.6-.6v-1.7c0-1.5-1.2-2.7-2.7-2.7zm2 8.5c-.4 0-.7.3-.7.7V70c0 .7-.6 1.3-1.3 1.3H9c-.4 0-.7.3-.7.7 0 .4.3.7.7.7h21.6c1.5 0 2.7-1.2 2.7-2.7V46.8c0-.3-.3-.6-.7-.6zM10.7 35.1c.2 0 .4-.1.5-.2l10-10c.3-.3.3-.7 0-1s-.7-.3-1 0l-10 10c-.3.3-.3.7 0 .9.2.2.4.3.5.3zm61.7-.2c.1.1.3.2.5.2s.4-.1.5-.2c.3-.3.3-.7 0-1l-10-10c-.3-.3-.7-.3-1 0s-.3.7 0 1l10 10z"/></g></svg>
