<svg class="icon icon-enterprise-ready" role="presentation" aria-labelledby="icon-enterprise-ready-title icon-enterprise-ready-desc" xmlns="http://www.w3.org/2000/svg" width="69.3" height="66.5" viewBox="0 0 69.3 66.5"><title id="icon-enterprise-ready-title">Enterprise Ready</title><description id="icon-enterprise-ready-desc">An image of half a globe and a building.</description><g fill="#012635"><path d="M68.6 6.2H60v.7c0 .4-.3.7-.7.7H68v2.6c0 .4.3.7.7.7.4 0 .7-.3.7-.7V6.9c0-.4-.4-.7-.8-.7.1 0 0 0 0 0zm-19.3.7v-.7h-8.6c-.4 0-.7.3-.7.7v58.9c0 .4.3.7.7.7h2.7c.4 0 .7-.2.8-.6 0-.4-.2-.7-.6-.8h-2.2V7.6H50c-.4-.1-.7-.4-.7-.7zm19.3 8.6c-.4 0-.7.3-.7.7v49H48.5c-.4 0-.6.4-.6.8 0 .3.3.6.6.6h20.1c.4 0 .7-.3.7-.7V16.1c0-.3-.3-.6-.7-.6z"/><path d="M60 6.9V.7c0-.4-.3-.7-.7-.7H50c-.4 0-.7.3-.7.7v6.2c0 .4.3.7.7.7h9.3c.4 0 .7-.3.7-.7zm-9.3-.7V1.4h8v4.8h-8zM32 66zm-.3-46H31v14h.7c.3 0 .6.2.6.5v-15c0 .3-.3.5-.6.5zm0 15.4H31v14h.7c.3 0 .6.3.7.6V34.9c-.1.3-.4.5-.7.5zm-1.5 29.3c-9.4-.6-17.9-5.9-22.6-14H6.5c-.4 0-.7-.3-.7-.7 0-.4.3-.7.7-.7h.3c-1.5-2.9-2.5-5.9-3.1-9.1-.1-.4-.4-.6-.8-.6-.4.1-.6.4-.6.8C4.8 55.2 17.2 66 31.7 66.1c-.2 0-.4-.1-.5-.2-.3-.4-.7-.8-1-1.2zm1.5-14H31v12.9c.4.5.8.9 1.2 1.4.1.1.2.3.2.5V50.2c-.1.3-.4.5-.7.5zm.8-43.9c0-.4-.3-.7-.7-.7h-.2c-14.7.7-26.5 10.2-29 23.2-.1.4.2.7.6.8.4.1.7-.1.8-.5.7-3.4 2-6.7 4-9.6-.3-.1-.5-.3-.5-.6 0-.4.3-.7.7-.7h.7c5.1-6.3 12.6-10.3 20.7-11l.5-.4 1.2-1c.3-.2.7-.2.9.1.3.3.2.7 0 .9l-.1.1-1.1.8v10.5h.7c.3 0 .5.2.6.4v-12c.1-.1.1-.2.2-.3zm-.1 58.8v0zm-.2.3z"/><path d="M31 63.7l-1-1.2c-2.4-2.5-4.5-5.3-6.4-8.3-.2-.3-.6-.4-.9-.3s-.4.6-.3.9c1.9 3.1 4.1 5.9 6.5 8.5.4.5.8.9 1.2 1.4s.7.8 1 1.2c.1.2.3.2.5.2h.4s.1 0 .1-.1l.1-.1.1-.1v-.1-.1c0-.2 0-.3-.2-.5-.3-.5-.7-1-1.1-1.4zM19.3 23.9c.1-.4-.1-.8-.4-.9-.4-.1-.8.1-.9.4-1.2 3.4-1.8 7-1.7 10.6h1.4c-.1-3.4.5-6.8 1.6-10.1zM18.5 46c.1.3.4.5.6.5h.2c.4-.1.5-.5.4-.9-1.2-3.3-1.9-6.7-2.1-10.2h-1.4c.4 3.6 1.1 7.2 2.3 10.6zM32.2 6.4c-.2-.3-.7-.4-.9-.1l-1.2 1-.5.4c-2.7 2.1-5.1 4.5-7.2 7.2-.2.3-.1.7.3.9.3.1.6.1.8-.2 1.8-2.6 4.6-4.9 7.4-7.3l.1-.1 1.1-.9c.3-.2.3-.6.1-.9zm-.5 43h-6.8c-.4 0-.7.3-.7.7 0 .4.3.7.7.7h6.8c.3 0 .6-.3.7-.6V50c0-.3-.3-.6-.7-.6zm-25.9.7c0 .4.3.7.7.7h8.6c.4 0 .7-.3.7-.7 0-.4-.3-.7-.7-.7H6.5c-.4 0-.7.3-.7.7zm25.9-31.4h-6.8c-.4 0-.6.4-.6.8 0 .3.3.6.6.6h6.8c.3 0 .5-.2.6-.5.1-.1.1-.3 0-.5 0-.2-.3-.4-.6-.4zm-24.2.7c0 .3.2.6.5.6h8c.4 0 .6-.4.6-.8 0-.3-.3-.6-.6-.6H8.2c-.4.1-.7.4-.7.8zM31.7 34H7.4c-.4 0-.7.3-.7.7 0 .4.3.7.7.7h24.3c.3 0 .6-.2.7-.5v-.2-.2c-.1-.2-.4-.5-.7-.5zm-8.5 16.3c0-1.5-1.2-2.7-2.7-2.7s-2.7 1.2-2.7 2.7c0 1.5 1.2 2.7 2.7 2.7 1.5-.1 2.7-1.3 2.7-2.7zm-4 0c0-.7.6-1.3 1.3-1.3s1.3.6 1.3 1.3c0 .7-.6 1.3-1.3 1.3-.7 0-1.3-.6-1.3-1.3zm1.3-28.2c1.5 0 2.7-1.2 2.7-2.7s-1.2-2.7-2.7-2.7c-1.5 0-2.7 1.2-2.7 2.7.1 1.5 1.3 2.7 2.7 2.7zm0-4c.7 0 1.3.6 1.3 1.3s-.6 1.3-1.3 1.3-1.3-.6-1.3-1.3c0-.7.6-1.3 1.3-1.3zM5.3 34.6c0-1.5-1.2-2.7-2.7-2.7S0 33.1 0 34.6s1.2 2.7 2.7 2.7c1.4 0 2.6-1.2 2.6-2.7zm-4 0c0-.7.6-1.3 1.4-1.3.7.1 1.3.7 1.3 1.4S3.4 36 2.7 36c-.8 0-1.4-.6-1.4-1.4 0 .1 0 0 0 0zm43.7-10h3.7c.4 0 .7-.3.7-.7v-7.4c0-.4-.3-.7-.7-.7H45c-.4 0-.7.3-.7.7V24c.1.3.4.6.7.6zm.7-7.5h2.4v6.1h-2.4v-6.1zm7.1 7.5h3.7c.4 0 .7-.3.7-.7v-7.4c0-.4-.3-.7-.7-.7h-3.7c-.4 0-.7.3-.7.7V24c0 .3.3.6.7.6zm.7-7.5h2.4v6.1h-2.4v-6.1zm7.1 7.5h3.7c.4 0 .7-.3.7-.7v-7.4c0-.4-.3-.7-.7-.7h-3.7c-.4 0-.7.3-.7.7V24c0 .3.3.6.7.6zm.6-7.5h2.4v6.1h-2.4v-6.1zM44.4 36.8c0 .4.3.7.7.7h3.7c.4 0 .7-.3.7-.7v-7.5c0-.4-.3-.7-.7-.7H45c-.4 0-.7.3-.7.7v7.5zm1.3-6.8h2.4v6.1h-2.4V30zm6.4 6.8c0 .4.3.7.7.7h3.7c.4 0 .7-.3.7-.7v-7.5c0-.4-.3-.7-.7-.7h-3.7c-.4 0-.7.3-.7.7v7.5zm1.4-6.8h2.4v6.1h-2.4V30zm6.4 6.8c0 .4.3.7.7.7h3.7c.4 0 .7-.3.7-.7v-7.5c0-.4-.3-.7-.7-.7h-3.7c-.4 0-.7.3-.7.7v7.5zm1.3-6.8h2.4v6.1h-2.4V30zM49.5 49.7v-7.5c0-.4-.3-.7-.7-.7h-3.7c-.4 0-.7.3-.7.7v7.5c0 .4.3.7.7.7h3.7c.4 0 .7-.3.7-.7zm-1.4-.7h-2.4v-6.1h2.4V49zm4 .7c0 .4.3.7.7.7h3.7c.4 0 .7-.3.7-.7v-7.5c0-.4-.3-.7-.7-.7h-3.7c-.4 0-.7.3-.7.7v7.5zm1.4-6.8h2.4V49h-2.4v-6.1zm6.4 6.8c0 .4.3.7.7.7h3.7c.4 0 .7-.3.7-.7v-7.5c0-.4-.3-.7-.7-.7h-3.7c-.4 0-.7.3-.7.7v7.5zm1.3-6.8h2.4V49h-2.4v-6.1z"/></g></svg>
