<svg class="icon icon-phone" role="presentation" aria-labelledby="icon-phone-title icon-phone-desc" xmlns="http://www.w3.org/2000/svg" width="52.3" height="86.8" viewBox="0 0 52.3 86.8"><title id="icon-phone-title">Phone</title><description id="icon-phone-desc">A phone icon.</description><g fill="#012635"><path d="M45.7 0h-39C3 0 0 3 0 6.7v73.5c0 3.7 3 6.7 6.7 6.7h39c3.7 0 6.7-3 6.7-6.7V6.7C52.3 3 49.3 0 45.7 0zM51 80.1c0 2.9-2.4 5.3-5.3 5.3h-39c-2.9 0-5.3-2.4-5.3-5.3V6.7c0-2.9 2.4-5.3 5.3-5.3h39c2.9 0 5.3 2.4 5.3 5.3v73.4z"/><path d="M39.9 14.5H12.4c-3.1 0-5.7 2.5-5.7 5.7v46.7c0 3.1 2.5 5.7 5.7 5.7h27.5c3.1 0 5.7-2.5 5.7-5.7V20.2c0-3.2-2.6-5.7-5.7-5.7zm4.3 52.3c0 2.4-1.9 4.3-4.3 4.3H12.4c-2.4 0-4.3-1.9-4.3-4.3V20.2c0-2.4 1.9-4.3 4.3-4.3h27.5c2.4 0 4.3 1.9 4.3 4.3v46.6zM16.8 9.2c.1 0 .2 0 .3-.1.1 0 .1-.1.2-.1.1-.1.2-.3.2-.5s-.1-.3-.2-.5c-.1 0-.2-.1-.3-.1-.3-.1-.5 0-.7.2-.1.1-.1.1-.1.2v.2c0 .2.1.3.2.5 0 .1.2.2.4.2zm5.2 0h13.5c.4 0 .7-.3.7-.7s-.3-.7-.7-.7H22c-.4 0-.7.3-.7.7s.3.7.7.7z"/><path d="M19.8 61.7h-7c-.4 0-.6.4-.6.8 0 .3.3.6.6.6h7c.4 0 .7-.2.8-.6 0-.4-.2-.7-.6-.8h-.2zm19.7 0H24.8c-.4 0-.6.4-.6.8 0 .3.3.6.6.6h14.7c.4 0 .7-.2.8-.6s-.2-.7-.6-.8h-.2zM26.2 75.2c-2.4 0-4.3 2-4.2 4.4s2 4.3 4.4 4.2c2.4 0 4.2-2 4.2-4.3-.1-2.4-2-4.4-4.4-4.3zm0 7.2c-1.7 0-3-1.4-2.9-3 0-1.7 1.4-3 3-2.9 1.6 0 2.9 1.4 3 3-.1 1.6-1.4 2.9-3.1 2.9zm0-53.6c-3.5 0-6.3 3.4-6.3 7.4s2.8 7.5 6.3 7.5 6.3-3.3 6.3-7.5-2.9-7.4-6.3-7.4zm0 13.5c-2.7 0-5-2.7-5-6.1s2.2-6.1 5-6.1 5 2.7 5 6.1-2.3 6.1-5 6.1z"/><path d="M26.2 25c-8.8 0-16 7.2-16 16s7.2 16 16 16 16-7.2 16-16-7.2-16-16-16zm10.6 26.1c0-1-.1-2-.2-3-.2-1.2-1.3-2.2-2.9-2.5-1.3-.5-2.5-1.1-3.6-1.8-.3-.2-.7-.1-.9.2-.2.3-.1.7.2.9 1.2.9 2.6 1.6 4 2.1.6.2 1.7.5 1.9 1.5.2 1.3.2 2.7.2 4-5.4 4.4-13.1 4.4-18.5 0 0-1.3 0-2.6.2-4 .2-.9 1.3-1.3 1.9-1.5 1.4-.5 2.8-1.2 4-2.1.3-.2.4-.6.2-.9-.2-.3-.6-.4-.9-.2-1.1.8-2.3 1.4-3.6 1.9-1.4.2-2.6 1.2-2.9 2.5-.1 1-.2 2-.2 2.9-5.6-5.9-5.4-15.1.5-20.7s15.1-5.4 20.7.5c5.2 5.7 5.2 14.6-.1 20.2z"/></g></svg>
