<svg class="icon icon-visual-library" role="presentation" aria-labelledby="icon-visual-library-title icon-visual-library-desc" xmlns="http://www.w3.org/2000/svg" width="80.2" height="85.2" viewBox="0 0 80.2 85.2"><title id="icon-visual-library-title">Visual Library</title><description id="icon-visual-library-desc">Icon with a pencil and a paintbrush.</description><g fill="#012635"><path d="M15.3 62.8l5.2 9.3c.1.2.4.4.6.4.3 0 .5-.1.6-.4l2.5-4.5c.2-.3 0-.8-.3-1-.3-.2-.7-.1-.9.3l-1.9 3.4-3.4-6.1h6.5c1.8 0 3.3-1.4 3.3-3.2V16.2c0-1-.4-1.9-1.1-2.5-.3-3-2.9-5.1-5.8-4.9-2.7.2-4.7 2.4-4.9 5.1-.6.6-.9 1.4-.9 2.3V61c0 .6.2 1.1.4 1.6.1.1.1.1.1.2zm5.8-52.6c1.6 0 3.1 1.1 3.7 2.6h-7.4c.6-1.5 2-2.6 3.7-2.6zm-4.9 6c0-1 .8-1.9 1.9-1.9h6.1c1 0 1.9.9 1.9 1.9V61c0 1-.8 1.9-1.9 1.9h-6.1c-1 0-1.9-.8-1.9-1.9V16.2z"/><path d="M21.1 59.2c.4 0 .7-.3.7-.7V17.7c0-.4-.3-.7-.7-.7-.4 0-.7.3-.7.7v40.8c0 .4.3.7.7.7zm29.8-16.7c0 .7.3 1.3.8 1.7-1.3 1.5-2.1 3.4-2.2 5.4-.1 3 4.3 11.3 6.5 11.5.5 0 .9-.2 1.2-.6 2-1.5 4.9-7.5 5-10.5 0-2.1-.7-4.2-2-5.8.8-1 .7-2.4-.3-3.2-.2-.1-.3-.3-.5-.3.7-1.5 1.7-5 2-13.5.2-4.7-.2-23.2-3.3-26.5-.3-.4-.8-.7-1.3-.7s-1.1.2-1.4.6c-3.4 3.3-4.2 21.7-4.2 26 0 8.9.5 12.5 1 13.9-.2.1-.4.2-.5.4-.6.4-.8 1-.8 1.6zm5.2 17.3c-.7-.2-2.4-2.8-3.7-5.4.3.2.6.3.9.3 1.4 0 1.7-1.3 1.8-1.9v-.3c.1.1.1.2.1.3.2.5.5 1.3 1.4 1.3s1.2-1 1.4-1.7c.2-.8.3-1.1.5-1.1.8 0 1.4.5 1.6 1.3-1 3.2-3.2 7-4 7.2zm-3.6-33.1c0-7.2 1.2-22.5 3.8-25 .1-.1.3-.2.4-.2 0 0 .2.1.3.2 2.3 2.5 3.2 18.1 2.9 25.5-.4 9.7-1.6 12.6-2 13.2l-4.4-.1c-.3-.7-1-3.3-1-13.6zm.1 15.3c.2-.2.4-.2.6-.2l5.2.1c.2 0 .4.1.6.3.3.3.3.9 0 1.2-.2.2-.4.2-.6.2l-5.2-.1c-.5 0-.9-.4-.8-.9-.1-.2 0-.4.2-.6zm.3 3l6.2.2c1.1 1.4 1.7 3.1 1.7 4.8 0 .3 0 .6-.1.8-.5-.6-1.3-.9-2.1-.8h-.1c-1.4 0-1.7 1.4-1.8 2.3v.2-.1c-.2-.5-.5-1.4-1.5-1.4s-1.2 1-1.3 1.6c-.2.8-.2.8-.4.8-.9-.5-1.6-1.2-2.2-2-.2-.5-.3-1.1-.3-1.6.1-1.8.8-3.5 1.9-4.8z"/><path d="M55.5 70.5c-.4-.2-.8 0-1.3.9 0 0-.2.3-.2.4-.1.2-.3.4-.4.6-7.9 11.8-23.9 15-35.7 7C9 73.5 4.8 62.8 7.1 52.4c.1-.7-.1-1.2-.5-1.3s-.8.4-.9 1v.2c-.4 1.7-.6 3.4-.6 5.1-.3 15 11.6 27.4 26.6 27.7 9.4.2 18.2-4.5 23.3-12.3l.6-.9c.4-.6.3-1.2-.1-1.4zM13.1 49.2c.4 0 .7-.3.7-.7s-.3-.7-.7-.7H6.3c-2.7 0-4.9-2.2-4.9-4.9V24.5c0-2.7 2.2-4.9 4.9-4.9h6.8c.4 0 .7-.3.7-.7 0-.4-.3-.7-.7-.7H6.3C2.8 18.2 0 21 0 24.5v18.3c0 3.5 2.8 6.3 6.3 6.3h6.8zm15.8-29.6h20c.4 0 .7-.3.7-.7 0-.4-.3-.7-.7-.7h-20c-.4 0-.7.3-.7.7 0 .4.3.7.7.7zm34.4 0h9.6c2.7.1 4.8 2.3 4.8 4.9v18.3c0 2.7-1.2 3.8-3.9 3.8-.4 0-.7.2-.8.6 0 .4.2.7.6.8h.2c3.5 0 5.3-1.8 5.3-5.2V24.5c0-3.5-2.8-6.3-6.3-6.3h-9.4c-.4 0-.7.3-.7.7-.1.4.2.7.6.7z"/><path d="M79.8 65.2L63.1 36.1c-.1-.3-.4-.5-.7-.5-.4 0-.7.3-.7.7v.2l17 29.3c.3.5.1 1.1-.3 1.4-.2.1-.3.1-.5.1H34.2c-.6 0-1-.4-1-1 0-.2 0-.4.1-.5l16.9-29.3s0-.1.1-.1v-.2c0-.4-.4-.7-.8-.7-.3 0-.5.2-.6.4L32.1 65.2c-.7 1.2-.3 2.6.9 3.3.4.2.8.3 1.2.3h43.6c1.3 0 2.4-1.1 2.4-2.4-.1-.4-.2-.8-.4-1.2zM29.6 49.1H38.2c.4 0 .7-.2.8-.6 0-.4-.2-.7-.6-.8H29.6c-.4 0-.7.3-.7.7s.4.7.7.7z"/></g></svg>
