<svg class="icon icon-publishing" role="presentation" aria-labelledby="icon-publishing-title icon-publishing-desc" xmlns="http://www.w3.org/2000/svg" width="72.3" height="89.3" viewBox="0 0 72.3 89.3"><title id="icon-publishing-title">Publishing</title><description id="icon-publishing-desc">Icon of documents.</description><g fill="#012635"><path d="M55.7 84.4c-.3-.2-.7-.1-.9.2-1.2 2.1-3.5 3.4-5.9 3.4H8.2c-3.8 0-6.8-3.1-6.8-6.8V23.5c0-2.8 1.7-5.2 4.2-6.3.4-.1.5-.5.4-.8-.1-.4-.5-.5-.8-.4H5c-3 1.3-5 4.3-5 7.5v57.6c0 4.5 3.7 8.2 8.2 8.2h40.7c2.9 0 5.6-1.5 7-4 .2-.3.1-.7-.2-.9z"/><path d="M63.7 77.3c-.3-.2-.7-.1-.9.2-1.2 2.1-3.5 3.4-5.9 3.5H16.2c-3.8 0-6.8-3.1-6.8-6.8V16.5c0-2.8 1.7-5.2 4.2-6.3.4-.1.5-.5.4-.8-.1-.4-.5-.5-.8-.4H13c-3 1.3-5 4.3-5 7.5v57.6c0 4.5 3.7 8.2 8.2 8.2h40.7c2.9 0 5.7-1.6 7.1-4.1.2-.3.1-.7-.3-.9z"/><path d="M72.3 20.7v-.9c0-.5-.2-1-.6-1.4L54.3.6c-.4-.4-.9-.6-1.4-.6H23.2C18.7 0 15 3.7 15 8.2v58c0 4.5 3.7 8.2 8.2 8.2h41c4.5 0 8.2-3.7 8.2-8.2V23.7c0-.4-.3-.7-.7-.7-.4 0-.7.3-.7.7v42.5c0 3.8-3.1 6.8-6.9 6.8h-41c-3.8 0-6.8-3.1-6.8-6.8v-58c0-3.8 3.1-6.9 6.8-6.9h29.7c.1 0 .2 0 .3.1-1.5.4-3.1 1.7-3.1 3.2V18c.1 1.9 1.6 3.3 3.5 3.3h18.2c.3.1.6-.2.6-.6.1 0 .1 0 0 0zm-21-2.7V4.6c0-1 1.5-1.9 2.7-1.9.1 0 .2 0 .3-.1l16.5 16.7c.1.1.2.3.2.4v.3H53.5c-1.1.1-2.1-.8-2.2-2 .1.1.1.1 0 0z"/><path d="M62.7 51h-39c-.4 0-.7.3-.7.7s.3.7.7.7h39c.4 0 .7-.3.7-.7s-.4-.7-.7-.7zm0-10h-39c-.4 0-.7.3-.7.7s.3.7.7.7h39c.4 0 .7-.3.7-.7s-.4-.7-.7-.7zm0-11h-39c-.4 0-.7.3-.7.7 0 .4.3.7.7.7h39c.4 0 .7-.3.7-.7-.1-.4-.4-.7-.7-.7zm-39 31c-.4 0-.7.3-.7.7s.3.7.7.7h12c.4 0 .7-.3.7-.7s-.4-.7-.7-.7h-12zm39 0h-23c-.4 0-.7.3-.7.7s.3.7.7.7h22.9c.4 0 .7-.3.7-.7s-.3-.7-.6-.7zm-39-39.6h18c.4 0 .7-.3.7-.7 0-.4-.3-.7-.7-.7h-18c-.4 0-.7.3-.7.7 0 .3.3.7.7.7z"/></g></svg>
