<svg class="icon icon-our-work" role="presentation" aria-labelledby="icon-our-work-title icon-our-work-desc" xmlns="http://www.w3.org/2000/svg" width="83.3" height="69.3" viewBox="0 0 83.3 69.3"><title id="icon-our-work-title">Our Work</title><description id="icon-our-work-desc">Icon of a briefcase.</description><g fill="#012635"><path d="M77.9 12H59.3V5.5c0-3-2.4-5.5-5.5-5.5H29.5c-3 0-5.5 2.4-5.5 5.5V12H5.5c-3 0-5.5 2.4-5.5 5.5v46.4c0 3 2.4 5.5 5.5 5.5h72.4c3 0 5.5-2.4 5.5-5.5V17.5c-.1-3.1-2.5-5.5-5.5-5.5zM25.4 5.5c0-2.3 1.8-4.1 4.1-4.1h24.4c2.3 0 4.1 1.8 4.1 4.1V12h-3.7V8.9c0-2.1-1.7-3.9-3.9-3.9H32.9C30.7 5 29 6.7 29 8.9V12h-3.6V5.5zm5 6.5V8.9c0-1.4 1.1-2.5 2.5-2.5h17.6c1.4 0 2.5 1.1 2.5 2.5V12H30.4zM5.5 13.4h72.4c2.3 0 4.1 1.8 4.1 4.1V19H1.4v-1.5c0-2.3 1.8-4.1 4.1-4.1zM82 63.9c0 2.3-1.8 4.1-4.1 4.1H5.5c-2.3 0-4.1-1.8-4.1-4.1V36.6c2.2 4.3 6.5 7 11.3 7 .4 0 .7-.3.7-.7s-.3-.7-.7-.7c-6.2 0-11.3-5-11.3-11.3V20.4H82V31c0 6.2-5.1 11.3-11.3 11.3-.4 0-.7.3-.7.7s.3.7.7.7c4.8 0 9.2-2.7 11.3-7v27.2z"/><path d="M51.7 43h-21c-.4 0-.6.4-.6.8 0 .3.3.6.6.6h21c.4 0 .7-.2.8-.6s-.3-.8-.8-.8zm-24-6h-1.4c.1-.1.1-.2.1-.3v-6.4c0-1.3-1-2.3-2.3-2.3h-3.8C19 28 18 29 18 30.3v6.4c0 .1 0 .2.1.3h-1.4c-.4 0-.7.3-.7.7v6c0 .4.3.7.7.7H18v4.1c0 2.1 1.7 3.9 3.9 3.9h.6c2.1 0 3.9-1.7 3.9-3.9v-4.1h1.3c.4 0 .7-.3.7-.7v-6c0-.4-.3-.7-.7-.7zm-8.3-6.7c0-.5.4-.9.9-.9h3.8c.5 0 .9.4.9.9V37h-5.6v-6.7zM25 48.5c0 1.4-1.1 2.5-2.5 2.5h-.6c-1.4 0-2.5-1.1-2.5-2.5v-4.1H25v4.1zm2-5.5h-9.6v-4.7H27V43zm39.7-6h-1.4c.1-.1.1-.2.1-.3v-6.4c0-1.3-1-2.3-2.3-2.3h-3.8C58 28 57 29 57 30.3v6.4c0 .1 0 .2.1.3h-1.4c-.4 0-.7.3-.7.7v6c0 .4.3.7.7.7H57v4.1c0 2.1 1.7 3.9 3.9 3.9h.6c2.1 0 3.9-1.7 3.9-3.9v-4.1h1.3c.4 0 .7-.3.7-.7v-6c0-.4-.3-.7-.7-.7zm-8.4-6.7c0-.5.4-.9.9-.9H63c.5 0 .9.4.9.9V37h-5.6v-6.7zM64 48.5c0 1.4-1.1 2.5-2.5 2.5h-.6c-1.4 0-2.5-1.1-2.5-2.5v-4.1H64v4.1zm2-5.5h-9.7v-4.7H66V43z"/></g></svg>
