<svg class="icon icon-conversions" role="presentation" aria-labelledby="icon-conversions-title icon-conversions-desc" xmlns="http://www.w3.org/2000/svg" width="85.2" height="70.3" viewBox="0 0 85.2 70.3"><title id="icon-conversions-title">Conversions</title><description id="icon-conversions-desc">Two arrows making a circular loop.</description><path fill="#012635" d="M84.8 11.1c-.3-.2-.7-.1-.9.3-2.8 5-6.1 10.4-7.6 12.2C74.7 18.9 66.7 0 41.9 0c-18.7 0-34 16.4-34 36.5 0 .4.3.7.7.7.4 0 .7-.3.7-.7 0-19.4 14.6-35.2 32.6-35.2 11.3 0 20.4 4 26.9 11.8 2.7 3.3 4.8 7 6.2 11-2-.3-7.6-2.9-12.4-5.4-.3-.1-.7 0-.9.4-.1.3 0 .7.3.8 3.3 1.8 10.8 5.5 13.5 5.5.2 0 .3 0 .5-.1H76.3C78.4 24 84 14.1 85.1 12c.1-.3 0-.7-.3-.9zm-7.2 22c-.4 0-.7.3-.7.7 0 .2 0 15.4-10.2 25.7-6.2 6.3-15 9.5-26 9.5C23 69 10.4 50.4 10.4 44.4c0-.1 0-.2-.1-.3 2.1.7 7.9 4.3 12.8 7.7.3.2.7.1.9-.2.2-.3.1-.7-.2-.9-3.7-2.6-12.7-8.7-14.6-8.1S1.6 52.7 0 55.6c-.1.4 0 .8.3 1 .1.1.2.1.3.1.2 0 .5-.1.6-.3 2.8-5 6.4-10.4 7.9-12 0 7.7 13.7 26 31.6 26 11.4 0 20.4-3.3 26.9-9.9 10.6-10.7 10.6-26 10.5-26.7.1-.4-.1-.7-.5-.7z"/></svg>
