<svg class="icon icon-google-location-pin-drop" role="presentation" aria-labelledby="icon-google-location-pin-drop-title icon-google-location-pin-drop-desc" xmlns="http://www.w3.org/2000/svg" width="74.4" height="77.9" viewBox="0 0 74.4 77.9"><title id="icon-google-location-pin-drop-title">Google Location Pin Drop</title><description id="icon-google-location-pin-drop-desc">A folded map with a location pin pointing to a spot on the map.</description><g fill="#012635"><path d="M74.4 28.5v-.1-.1s0-.1-.1-.1c0 0 0-.1-.1-.1l-.1-.1-.1-.1L49.4 20H49l-3.4 1.1c1.6-3.4 2.8-6.6 2.8-8.7C48.4 5.6 42.8 0 36 0c-6.8 0-12.4 5.5-12.4 12.4 0 3.2 2.7 9 5.5 14.1L25 27.9.9 20H.7.4l-.1.1-.1.1-.1.1-.1.1v49.1s0 .1.1.1c0 0 0 .1.1.1l.1.1.1.1 24.4 8h.4l24-7.9 24.3 7.9h.2c.3 0 .5-.2.6-.5V77l.1-48.5zM49.2 56.9c-.4 0-.7.3-.7.7v11.2l-22.8 7.5V53.4l22.8-7.5v8c0 .4.3.7.7.7.4 0 .7-.3.7-.7v-8l23.2 7.5v22.9l-23.2-7.5V57.6c0-.4-.3-.7-.7-.7zm-47.8-11l9.6 3h.2c.4 0 .7-.3.7-.7 0-.3-.2-.6-.5-.6l-10-3.1v-23l23 7.5v23l-8.1-2.6c-.4-.1-.7.1-.8.5-.1.3.1.7.4.8l8.5 2.8v22.9l-23-7.5v-23zM73.1 52l-23.2-7.5v-23L73.1 29v23zM36 1.4c6.1 0 11 4.9 11 11 0 5.4-8.7 19.3-11 23-2.3-3.6-11-17.6-11-23 0-6.1 4.9-11 11-11zm-.6 35.5c.1.2.3.3.6.3.2 0 .4-.1.6-.3 3-4.6 5.8-9.3 8.2-14.2l3.7-1.2v22.9L25.8 52V29l4.1-1.4c2.6 4.9 5.3 9 5.5 9.3z"/><path d="M43.1 12.4c0-3.9-3.2-7.1-7.1-7.1s-7.1 3.2-7.1 7.1c0 3.9 3.2 7.1 7.1 7.1 3.9-.1 7.1-3.2 7.1-7.1zm-12.8 0c0-3.2 2.6-5.7 5.7-5.7 3.2 0 5.7 2.6 5.7 5.7 0 3.2-2.6 5.7-5.7 5.7-3.2 0-5.7-2.6-5.7-5.7z"/></g></svg>
