<svg class="icon icon-analytics-report" role="presentation" aria-labelledby="icon-analytics-report-title icon-analytics-report-desc" xmlns="http://www.w3.org/2000/svg" width="66.5" height="86.3" viewBox="0 0 66.5 86.3"><title id="icon-analytics-report-title">Analytics Report</title><description id="icon-analytics-report-desc">An icon depicting a report document.</description><g fill="#012635"><path d="M66.5 23.2v-.3c0-.6-.2-1.1-.6-1.5L45.5.6C45.1.2 44.6 0 44 0H9.5C4.2 0 0 4.2 0 9.5v67.4c0 5.2 4.2 9.5 9.5 9.5h47.6c5.2 0 9.5-4.2 9.5-9.5V27.7c0-.4-.3-.7-.7-.7-.4 0-.7.3-.7.7v49.2c0 4.5-3.6 8.1-8.1 8.1h-1V52.1c0-2.6-2.1-4.7-4.7-4.7h-7c-2.6 0-4.7 2.1-4.7 4.7V56c-.9-.9-2.1-1.4-3.3-1.4h-7c-1.2 0-2.4.5-3.3 1.4v-9c0-2.6-2.1-4.7-4.7-4.7h-7c-2.6 0-4.7 2.1-4.7 4.7v38h-.2c-4.5 0-8.1-3.6-8.1-8.1V9.5C1.4 5 5 1.4 9.5 1.4h33.2c-.9.7-1.4 1.9-1.4 3.1v15.7c.1 2.1 1.8 3.8 4 3.7h20.6c.3 0 .6-.4.6-.7zM41.1 52.1c0-1.8 1.5-3.3 3.3-3.3h7c1.8 0 3.3 1.5 3.3 3.3V85H41.1V52.1zm-11.7 3.8h7c1.8 0 3.3 1.5 3.3 3.3V85H26.1V59.2c0-1.8 1.5-3.3 3.3-3.3zM11.1 47c0-1.8 1.5-3.3 3.3-3.3h7c1.8 0 3.3 1.5 3.3 3.3v38H11.1V47zm31.5-26.9V4.4c-.2-1.2.6-2.2 1.8-2.4h.5l20 20.3c0 .1.1.1.1.2H45.2c-1.4.1-2.5-1-2.6-2.4z"/><path d="M10.4 34h45.7c.4 0 .7-.3.7-.7 0-.4-.3-.7-.7-.7H10.4c-.4 0-.7.3-.7.7 0 .4.3.7.7.7zm-.8-10h21.8c.4 0 .6-.4.6-.8 0-.3-.3-.6-.6-.6H9.6c-.4 0-.7.2-.8.6 0 .4.2.8.6.8h.2zm0-10h21.8c.4 0 .6-.4.6-.8 0-.3-.3-.6-.6-.6H9.6c-.4 0-.7.2-.8.6s.2.8.6.8h.2z"/></g></svg>
