<svg class="icon icon-discovery" role="presentation" aria-labelledby="icon-discovery-title icon-discovery-desc" xmlns="http://www.w3.org/2000/svg" width="81.3" height="81.3" viewBox="0 0 81.3 81.3"><title id="icon-discovery-title">Discovery</title><description id="icon-discovery-desc">A telescope.</description><g fill="#012635"><path d="M81.2 22l-3-18c-.2-1.3-.9-2.4-2-3.1-1.1-.7-2.4-1.1-3.7-.9l-4.1.6c-.6.1-1.1.4-1.5.9-.5-.4-1.1-.5-1.8-.4l-12.7 2c-1.3.2-2.4.9-3.2 1.9-.6.8-.9 1.7-.9 2.6l-37.1 5.7c-2 .3-3.5 1.7-4 3.7h-.8l-2.4.4c-1.3.2-2.4.9-3.2 1.9-.8 1-1.1 2.3-.9 3.5L1 29.3c.2 1.3.9 2.4 1.9 3.1 1.1.8 2.4 1.1 3.8.9l2.6-.3c.4-.1.7-.2 1-.4.3.3.6.6.9.8 1.1.7 2.4 1 3.7.8L35.2 31l.3 1.6-4.8.7h-.6l-.8.4-.1.1-.1.2-.1.1-.1.1-.1.1-.1.1-.1.1-.1.2-.1.1c0 .1-.1.1-.1.2l-.1.1-.1.2v.4c0 .1-.1.2-.1.3v1.1l1.2 7.4c0 .3.2.7.3 1 .6 1.3 2.1 2.1 3.5 1.8l2-.3-16.2 29.7c-.4.7-.5 1.6-.2 2.4.3.8.9 1.5 1.6 1.9.5.2 1 .3 1.5.3 1.2 0 2.3-.6 2.9-1.7l13.6-25.2 1.5 23.9c.1 1.7 1.6 3 3.3 3h.2c.9 0 1.7-.4 2.3-1.1.5-.6.8-1.4.8-2.2l-1.5-23.5L62.4 80c.6.9 1.7 1.4 2.8 1.4.6 0 1.3-.2 1.8-.5.7-.4 1.2-1.2 1.4-2 .2-.8 0-1.7-.5-2.4L46.5 45.2l3.4-.5c1.5-.2 2.7-1.5 2.8-3v-.8l-1.2-7.4c-.3-1.5-1.6-2.7-3.2-2.7h-.7l-5.6.9-.3-1.6 10.5-1.6c.3.5.8.9 1.2 1.2 1.1.7 2.4 1 3.7.8l12.7-2c.6-.1 1.1-.4 1.5-.9.5.4 1.1.5 1.8.4l4-.6c1.2-.2 2.4-.8 3.2-1.8.8-1 1.2-2.3.9-3.6zm-2 2.8c-.6.7-1.4 1.2-2.3 1.3l-4 .6c-.5.1-.9-.2-1.1-.6v.1c.1.4-.2.7-.5.8h-.1c-.3 0-.6-.2-.7-.5v-.1c-.1.4-.4.8-.8.8l-12.7 2c-.9.2-1.9-.1-2.7-.6-.4-.3-.8-.7-1.1-1.2-.1-.3-.4-.4-.7-.4l-11.7 1.8c-.2 0-.3.1-.4.3-.1.1-.2.3-.1.5l.5 2.9c.1.4.4.6.8.5l6.3-1h.4c.9 0 1.7.7 1.9 1.6l1.2 7.4v.5c-.1.9-.7 1.6-1.6 1.8l-4.6.7c-.2 0-.4.2-.5.4-.1.2-.1.5.1.7L67 77.2c.3.4.4.9.3 1.3-.1.5-.4.9-.8 1.2-.9.5-2.1.3-2.7-.5l-19-27.5c-.1-.2-.3-.3-.5-.3h-.2c-.3.1-.5.4-.5.7l1.7 26c0 .5-.1.9-.5 1.3s-.9.6-1.4.7h-.1c-1 .1-1.9-.7-2-1.7L39.5 52c0-.4-.4-.7-.7-.6-.2 0-.4.1-.5.3L23.5 79c-.5.9-1.7 1.3-2.6.8-.5-.2-.8-.6-1-1.1-.1-.5-.1-1 .2-1.4l16.7-30.9c.1-.2.1-.5 0-.7-.1-.2-.4-.3-.7-.3l-3.3.5c-.9.1-1.7-.3-2.1-1.1-.1-.2-.2-.4-.2-.6l-1.2-7.4-.7.1.7-.2h-.7l.7-.1h-.7l.7-.1h-.7l.7-.1-.7-.2h.7l-.7-.1h.7l-.6-.1.7.1-.6-.3.7.2-.6-.3.7.2-.6-.4.6.2-.6-.4.6.3-.5-.5.6.3.1-.1.1-.1-.4-.5.5.4-.3-.6.5.5-.4-.6.5.5-.3-.6.3.6-.2-.6.3.6-.2-.6.4.6-.1-.7.2.6-.1-.7.2.6 5.4-.8c.2 0 .3-.1.5-.3.1-.1.1-.3.1-.5l-.5-2.9c-.1-.4-.4-.6-.8-.5l-21 3.3c-.9.2-1.9-.1-2.7-.6-.4-.3-.7-.6-1-1.1-.1-.2-.3-.3-.6-.3-.2 0-.5.1-.6.3-.2.2-.4.4-.7.5l-2.5.4c-1 .2-2-.1-2.7-.6-.7-.5-1.2-1.3-1.4-2.2l-1.1-6.5c-.2-.9.1-1.8.6-2.5.6-.7 1.4-1.2 2.3-1.4l2.4-.4c.3 0 .5 0 .8.1.2.1.5.1.7 0 .2-.1.4-.3.4-.6.1-1.7 1.3-3.1 3-3.3L49.1 9c.4-.1.6-.4.6-.7-.1-.8.1-1.6.6-2.3.6-.7 1.4-1.2 2.3-1.4l12.7-2c.5-.1.9.1 1.1.6V3c-.1-.4.2-.7.6-.8.4-.1.7.2.8.6v.1c.1-.4.4-.8.8-.9l4.1-.6c.9-.1 1.9.1 2.7.6.8.5 1.3 1.3 1.4 2.2l3.1 18c.2.9-.1 1.9-.7 2.6z"/><path d="M68.3 11.1c.5 0 .7-.4.7-.8l-1.2-7.4v-.1c-.1-.4-.4-.6-.8-.6-.4.1-.6.4-.6.8v.1l1.1 7.4c.2.3.5.6.8.6zm1.4 7.4c-.4.1-.6.4-.5.8l1.3 7.1v.1c.1.3.3.6.7.5h.1c.4-.1.6-.4.5-.8v-.1L70.5 19c-.1-.4-.5-.6-.8-.5z"/></g></svg>
