<svg class="icon icon-marketing" role="presentation" aria-labelledby="icon-marketing-title icon-marketing-desc" xmlns="http://www.w3.org/2000/svg" width="85.1" height="82.4" viewBox="0 0 85.1 82.4"><title id="icon-marketing-title">Marketing</title><description id="icon-marketing-desc">Circles surrounding a larger circle.</description><path fill="#012635" d="M24.8 45.9l-7.6 2.3c-1.8-4.6-7-6.8-11.6-5-4.6 1.8-6.8 7-5 11.6s7 6.8 11.6 5c3.4-1.3 5.7-4.6 5.6-8.3 0-.7-.1-1.3-.2-2l7.6-2.3c.4-.1.6-.5.5-.8-.2-.4-.5-.6-.9-.5zM8.9 59c-4.2 0-7.6-3.4-7.6-7.6s3.4-7.6 7.6-7.6 7.6 3.4 7.6 7.6c0 4.2-3.4 7.6-7.6 7.6zm7.7-31.8c.6.1 1.3.2 1.9.2 2.3 0 4.5-.9 6.2-2.5l4.8 4.4c.3.3.7.3.9 0 .3-.3.3-.7 0-1l-4.8-4.4c2.2-3 2.4-7 .3-10.2-2.7-4.1-8.2-5.4-12.3-2.7S8.3 19.2 11 23.3c1.3 2 3.3 3.4 5.6 3.9zm-5.5-10.3c.9-4.1 4.9-6.7 9-5.8s6.7 4.9 5.8 9c-.9 4.1-4.9 6.7-9 5.8-2-.4-3.7-1.6-4.8-3.3-1-1.7-1.4-3.7-1-5.7zM50 27.3c.1.1.2.1.3.1.2 0 .5-.1.6-.3l6.2-10.2c.6.3 1.3.6 2 .7.6.1 1.3.2 1.9.2 4.9 0 8.9-4 8.9-8.9S65.9 0 61 0s-8.9 4-8.9 8.9c0 2.9 1.4 5.6 3.8 7.3l-6.2 10.2c-.1.3 0 .8.3.9zM54.7 13C52.5 9.5 53.5 4.8 57 2.5c3.5-2.3 8.2-1.2 10.4 2.3 2.3 3.5 1.2 8.2-2.3 10.4-3.5 2.3-8.1 1.3-10.4-2.2zm29 26.8c-2.6-4.2-8.1-5.4-12.3-2.8-1.8 1.1-3.1 2.8-3.7 4.8l-7.9-1.3c-.4-.1-.7.2-.8.6-.1.4.2.7.6.8l7.8 1.3c-.8 4.7 2.2 9.1 6.9 10.2.6.1 1.3.2 1.9.2 1.7 0 3.4-.5 4.8-1.4 4.1-2.7 5.3-8.2 2.7-12.4zM80.2 51c-3.5 2.2-8.2 1.2-10.4-2.3-2.2-3.5-1.2-8.2 2.3-10.4 1.2-.8 2.6-1.2 4.1-1.2.6 0 1.1.1 1.6.2 4.1.9 6.7 4.9 5.8 9-.5 1.9-1.6 3.6-3.4 4.7zM54.8 64.7c-1.6-.4-3.4-.3-4.9.3L47 58.1c-.1-.3-.5-.5-.9-.4-.3.2-.5.5-.4.9l2.9 6.9-.6.3c-4.1 2.6-5.4 8.2-2.7 12.3 1.3 2 3.3 3.4 5.6 3.9.6.1 1.3.2 1.9.2 4.9 0 8.9-4.1 8.9-9 0-4-2.9-7.5-6.9-8.5zm5.4 10.4c-.9 4.1-4.9 6.7-9 5.8-4.1-.9-6.7-4.9-5.8-9 .4-2 1.6-3.7 3.3-4.7 1.2-.8 2.6-1.2 4-1.2 4.2 0 7.6 3.4 7.6 7.5.1.5 0 1-.1 1.6zm-5.3-33.2c0-7.2-5.8-13-13-13s-13 5.8-13 13 5.8 13 13 13 13-5.9 13-13zm-13 11.6c-6.5 0-11.7-5.2-11.7-11.6 0-6.5 5.2-11.7 11.6-11.7 6.5 0 11.7 5.2 11.7 11.6 0 6.5-5.2 11.7-11.6 11.7z"/></svg>
