<svg class="icon icon-out-of-box" role="presentation" aria-labelledby="icon-out-of-box-title icon-out-of-box-desc" xmlns="http://www.w3.org/2000/svg" width="86.3" height="63.7" viewBox="0 0 86.3 63.7"><title id="icon-out-of-box-title">Out of the Box</title><description id="icon-out-of-box-desc">An icon of a cardboard box open at the top.</description><path fill="#012635" d="M85.8 28.1c-.3-.8-.6-2.1-1-3.5-2.1-7.4-3.3-11.1-4.3-11.7C79 12 49.1 1.5 45.6.2c-1.6-.3-3.2-.3-4.8 0-.2 0-33.1 11.5-34.9 12.6-1.1.7-2.3 4.3-4.3 11.8-.4 1.5-.8 2.9-1 3.6-.5 1.5-.8 2.6-.3 3.4.5.7 1.3.8 2.5.9h.1c.9-.1 1.7-.2 2.5-.4 0 .1 0 .2-.1.2v19.5c0 .3.2 1.7 3.1 3.2s30.6 8.5 34.4 8.6h.2c2.4 0 11.3-2.2 19.4-4.5 16.9-4.7 17.3-5.7 17.5-6 .6-1.5.5-18 .5-21.3 1.1.3 2.2.5 3.3.6 1.1-.1 2-.2 2.4-.9s.2-1.8-.3-3.4zm-.9 2.7c-.1.2-.9.2-1.4.3-2 0-30.3-7.4-32.3-8.5-.8-.6-2.7-6.4-3.9-11.4-.1-.4-.4-.6-.8-.5-.4.1-.6.5-.5.8.8 3.4 3 11.4 4.6 12.3 1 .6 19.6 5.7 28.5 7.8 0 .1-.1.2-.1.3.1 7.3 0 19.2-.4 20.7-2.2 1.6-29.2 9-35 9.7v-45c0-.4-.4-.6-.8-.6-.3 0-.6.3-.6.6v44.9c-5.2-.6-30.7-7.1-33.4-8.4-2.2-1.1-2.4-2-2.4-2V32.3c0-.2-.1-.4-.2-.5 8.5-1.9 28.3-7.4 29.4-8 1.5-.9 3.7-8.9 4.6-12.3.1-.4 0-.7-.4-.9-.4-.1-.7 0-.9.4v.2c-1.2 5.1-3 10.9-3.9 11.4-2 1.1-30.6 8.6-32.3 8.5-.6-.1-1.3-.1-1.4-.3s-.2-.5.4-2.2c.3-.8.6-2.1 1.1-3.7.9-3.3 2.9-10.3 3.7-11 1.4-.7 33.1-12 34.5-12.3 1.4-.3 2.8-.3 4.2 0C58.5 6.2 78.7 13.3 79.8 14c.9.7 2.8 7.6 3.8 11 .4 1.5.8 2.8 1 3.6.5 1.6.4 2.1.3 2.2z"/></svg>
