<svg class="icon icon-discovery" role="presentation" aria-labelledby="icon-discovery-title icon-discovery-desc" xmlns="http://www.w3.org/2000/svg" width="66.3" height="86.3" viewBox="0 0 66.3 86.3"><title id="icon-discovery-title">Document</title><description id="icon-discovery-desc">An icon of a document.</description><g fill="#012635"><path d="M66.3 23.7v-.8c0-.6-.2-1.1-.6-1.5L45.4.6c-.4-.4-1-.6-1.5-.6H9.5C4.2 0 0 4.2 0 9.5v67.4c0 5.2 4.2 9.5 9.5 9.5h47.4c5.2 0 9.5-4.2 9.5-9.5V27.7c0-.4-.3-.7-.7-.7-.4 0-.7.3-.7.7v49.2c0 4.5-3.6 8.1-8.1 8.1H9.5c-4.5 0-8.1-3.6-8.1-8.1V9.5C1.4 5 5 1.4 9.5 1.4h34.6c-1.7.4-2.9 1.8-3.1 3.5v15.7c.1 2.1 1.8 3.8 4 3.7h20.7c.3.1.6-.2.6-.6.1 0 .1 0 0 0zm-24-3.1V4.9c0-1.3 1.6-2.3 3-2.4l19.4 19.8c.1.1.2.3.2.5v.2H45c-1.4.1-2.6-1-2.7-2.4.1 0 .1 0 0 0z"/><path d="M55.7 60h-46c-.4 0-.7.3-.7.7s.3.7.7.7h46c.4 0 .7-.3.7-.7s-.4-.7-.7-.7zm0-11h-46c-.4 0-.7.3-.7.7s.3.7.7.7h46c.4 0 .7-.3.7-.7s-.4-.7-.7-.7zm0-11h-46c-.4 0-.7.3-.7.7s.3.7.7.7h46c.4 0 .7-.3.7-.7s-.4-.7-.7-.7zm-46 33c-.4 0-.7.3-.7.7 0 .4.3.7.7.7h14c.4 0 .7-.3.7-.7 0-.4-.3-.7-.7-.7h-14zm46 0H28.4c-.4 0-.7.3-.7.7 0 .4.3.7.7.7h27.2c.4 0 .7-.3.7-.7 0-.4-.3-.7-.6-.7zm-46-42.6h21c.4 0 .7-.3.7-.7 0-.4-.3-.7-.7-.7h-21c-.4 0-.7.3-.7.7 0 .3.3.7.7.7zm4-9h13c2.6 0 4.7-2.1 4.7-4.7v-2c0-2.6-2.1-4.7-4.7-4.7h-13C11.1 8 9 10.1 9 12.7v2c0 2.6 2.1 4.6 4.7 4.7zm-3.4-6.7c0-1.8 1.5-3.3 3.3-3.3h13c1.8 0 3.3 1.5 3.3 3.3v2c0 1.8-1.5 3.3-3.3 3.3h-13c-1.8 0-3.3-1.5-3.3-3.3v-2z"/></g></svg>
