<svg class="icon icon-security" role="presentation" aria-labelledby="icon-security-title icon-security-desc" xmlns="http://www.w3.org/2000/svg" width="53.1" height="80.4" viewBox="0 0 53.1 80.4"><title id="icon-security-title">Security</title><description id="icon-security-desc">Padlock icon.</description><g fill="#012635"><path d="M44.2 34.1V18.2c0-5.2-2.1-10.1-5.9-13.6-3.6-3.3-8.4-5-13.3-4.5C15.9.9 8.9 8.5 8.9 17.7v15.9c0 .1 0 .3.1.4-11 9.7-12.1 26.5-2.4 37.5s26.5 12.1 37.5 2.4 12.1-26.5 2.4-37.5c-.7-.8-1.5-1.6-2.3-2.3zm-34-16.4c0-8.5 6.5-15.5 15-16.3 4.5-.4 8.9 1.1 12.2 4.2 3.5 3.3 5.5 7.9 5.5 12.6V33c-.8-.7-1.7-1.3-2.7-1.8v-13c0-5.9-3.7-11.1-9.3-13-7.2-2.4-15 1.6-17.3 8.8-.4 1.4-.7 2.8-.7 4.2v13L10.2 33V17.7zm28.7 12.7c-7.7-4.1-16.9-4.1-24.6 0V18.2c0-6.8 5.6-12.4 12.4-12.4 1.3 0 2.6.2 3.9.6 5 1.7 8.4 6.4 8.4 11.7v12.3zM26.5 79.1c-13.9 0-25.2-11.3-25.2-25.2s11.3-25.2 25.2-25.2S51.7 40 51.7 53.9c0 13.9-11.2 25.2-25.2 25.2z"/><path d="M12.2 51.2h.2c.3 0 .6-.2.6-.5 1.4-5.4 4.6-8.6 9.5-9.5.4-.1.6-.4.5-.8-.1-.4-.4-.6-.8-.5-5.4 1-8.9 4.6-10.5 10.5 0 .3.1.6.5.8zm28.6 5.4c-.4-.1-.7.1-.8.5-1.5 5.4-4.6 8.6-9.5 9.5-.4.1-.6.5-.5.8.1.3.3.5.6.5h.1c5.4-1.1 8.9-4.6 10.5-10.5.2-.3 0-.7-.4-.8.1 0 0 0 0 0zM30.2 40.9c5.4 1.5 8.6 4.6 9.5 9.5.1.3.3.6.7.5h.1c.4-.1.6-.4.5-.8-1-5.4-4.6-8.9-10.5-10.5-.4-.1-.7.1-.8.5 0 .4.2.7.5.8zm-7.4 26c-5.4-1.4-8.6-4.6-9.5-9.5-.1-.4-.4-.6-.8-.5s-.5.4-.5.8c1 5.4 4.6 8.9 10.5 10.5h.2c.4 0 .7-.3.7-.7-.1-.3-.3-.6-.6-.6zm3.7-22.6c.4 0 .7-.3.7-.7v-7c0-.4-.2-.7-.6-.8-.4 0-.7.2-.8.6v7.2c.1.4.4.7.7.7zm0 19.6c-.4 0-.7.3-.7.7v7c0 .4.4.6.8.6.3 0 .6-.3.6-.6v-7c0-.4-.3-.7-.7-.7zm17-11h-7c-.4 0-.7.2-.8.6s.2.7.6.8h7.2c.4 0 .6-.4.6-.8 0-.3-.2-.5-.6-.6zm-27.3.7c0-.4-.3-.7-.7-.7h-6c-.4 0-.7.2-.8.6 0 .4.2.7.6.8h6.2c.4 0 .7-.3.7-.7z"/><circle cx="26.5" cy="53.9" r="1"/><path d="M26.5 51.5c-1.3 0-2.4 1.1-2.4 2.4 0 1.3 1.1 2.4 2.4 2.4s2.4-1.1 2.4-2.4c0-1.3-1-2.4-2.4-2.4zm0 3.4c-.6 0-1-.5-.9-1s.5-1 1-.9c.5 0 .9.5.9 1 .1.5-.4.9-1 .9.1 0 .1 0 0 0z"/></g></svg>
