<svg class="icon icon-user-login" role="presentation" aria-labelledby="icon-user-login-title icon-user-login-description" xmlns="http://www.w3.org/2000/svg" width="72.7" height="82.1" viewBox="0 0 72.7 82.1"><title id="icon-user-login-title">User Login</title><description id="icon-user-login-desc">An icon with a padlock.</description><g fill="#012635"><path d="M61.5 51.7c-1.5-.2-2.8.8-3 2.3-.2 1.5.8 2.8 2.3 3v2.7c0 .4.2.7.6.8s.7-.2.8-.6V57c1.4-.4 2.3-1.8 1.9-3.3-.4-1.1-1.4-1.9-2.6-2zm0 4c-.7 0-1.3-.6-1.3-1.3 0-.7.6-1.3 1.3-1.3.7 0 1.3.6 1.3 1.3 0 .7-.6 1.3-1.3 1.3z"/><path d="M70 47.5v-2c.2-4.7-3.6-8.7-8.3-8.9-4.7-.2-8.7 3.6-8.9 8.3v2.6c-1.5 0-2.6 1.2-2.6 2.7V62c0 1.5 1.2 2.7 2.7 2.7H70c1.5 0 2.7-1.2 2.7-2.7V50.2c0-1.5-1.2-2.7-2.7-2.7zm-8.6-9.2c4 0 7.2 3.2 7.2 7.2v2H54.2v-2c0-3.9 3.3-7.2 7.2-7.2zM71.3 62c0 .7-.6 1.3-1.3 1.3H52.9c-.7 0-1.3-.6-1.3-1.3V50.2c0-.7.6-1.3 1.3-1.3H70c.7 0 1.3.6 1.3 1.3V62zM31.8 43.8c10.2 0 18.4-9.8 18.4-21.9S42 0 31.8 0 13.5 9.8 13.5 21.9s8.2 21.9 18.3 21.9zm0-42.5c9.4 0 17 9.2 17 20.6s-7.6 20.6-17 20.6-17-9.2-17-20.6 7.7-20.5 17-20.6zm11.4 45.6c-.3-.2-.7-.2-1 .1-.2.3-.2.7.1 1 1.3 1 2.8 1.9 4.2 2.7.1.1.2.1.3.1.4 0 .7-.3.7-.6s-.1-.5-.4-.6c-1.2-.8-2.6-1.7-3.9-2.7z"/><path d="M62.9 67.1c-.4 0-.7.3-.7.7.1 1.4.1 2.7 0 4.1-.2.6-1.9 2.8-8 5-5.9 2.2-16.5 3.8-22.1 3.8-4.1 0-16.9-1.6-22.7-3.7-6.1-2.2-7.8-4.4-8-5-.2-4 .1-8 .6-12 .7-3.8 4.7-5.2 7-5.8 4-.9 11.8-6.1 12.1-6.3.3-.2.4-.6.2-.9-.2-.3-.6-.4-.9-.2-.1 0-7.9 5.2-11.7 6.1-4.5 1.1-7.4 3.5-8 6.9C.1 62.9-.2 71 .1 72.3S3 76 9 78.2s19 3.9 23.2 3.9c5.7 0 16.5-1.7 22.6-3.9s8.5-4.5 8.8-6c.2-1.5.2-3 0-4.5 0-.3-.3-.6-.7-.6z"/></g></svg>
