<svg class="icon icon-code" role="presentation" aria-labelledby="icon-code-title icon-code-desc" xmlns="http://www.w3.org/2000/svg" width="84.3" height="75.3" viewBox="0 0 84.3 75.3" shape-rendering="geometricPrecision"><title id="icon-code-title">Code</title><description id="icon-code-desc">A visual representation of computer code.</description><g fill="#012635"><path d="M83.7 0H.7C.3 0 0 .3 0 .7v74c0 .4.3.7.7.7h4c.4 0 .7-.2.8-.6 0-.4-.2-.7-.6-.8H1.4V1.4H53V12H6.7c-.4 0-.6.4-.6.8 0 .3.3.6.6.6h70c.4 0 .7-.2.8-.6s-.3-.8-.7-.8H54.3V1.4H83v13.3c0 .4.2.7.6.8.4 0 .7-.2.8-.6V.7c0-.4-.3-.7-.7-.7zm0 20c-.4 0-.7.3-.7.7V74H10.7c-.4 0-.6.4-.6.8 0 .3.3.6.6.6h73c.4 0 .7-.3.7-.7v-54c0-.4-.3-.7-.7-.7z"/><path d="M27.1 33.2c-.2-.3-.6-.4-.9-.2L12 43.2c-.2.1-.3.3-.3.5s.1.4.3.5L26.2 54c.1.1.2.1.4.1s.4-.1.6-.3c.2-.3.1-.7-.2-.9l-13.5-9.2L27 34.1c.3-.2.3-.6.1-.9zm27.4 20.7c.1.2.3.3.5.3.1 0 .3 0 .4-.1l14.2-10.2c.3-.2.4-.6.2-.9 0-.1-.1-.1-.2-.2L55.4 33c-.3-.2-.7-.1-.9.2s-.1.7.2.9l13.4 9.2L54.7 53c-.4.2-.4.6-.2.9zm-19.4.3c.2 0 .5-.1.6-.3L47.1 34c.2-.3.1-.7-.2-.9s-.7-.1-.9.2L34.5 53.2c-.2.3-.1.7.2.9.2 0 .3.1.4.1z"/><circle cx="60.7" cy="6.5" r="1.4"/><circle cx="66.4" cy="6.5" r="1.4"/><path d="M70.7 6.5c0 .8.6 1.4 1.4 1.4s1.4-.6 1.4-1.4-.6-1.4-1.4-1.4-1.4.6-1.4 1.4z"/></g></svg>
