<svg class="icon icon-symphony2-framework-drupal8" role="presentation" aria-labelledby="icon-symphony2-framework-drupal8-title icon-symphony2-framework-drupal8-desc" xmlns="http://www.w3.org/2000/svg" width="87.3" height="84.3" viewBox="0 0 87.3 84.3"><title id="icon-symphony2-framework-drupal8-title">Symphony 2 Framework</title><description id="icon-symphony2-framework-drupal8-desc">An icon of tiles depicting the symphony framework.</description><g fill="#012635"><path d="M38 60c0-.2-.2-.4-.4-.4h-18c-.2 0-.4.2-.4.4v6.3c0 .2.2.4.4.4h3.5V69c0 .1.1.3.2.3h.2c.1 0 .2 0 .2-.1l3.4-2.7h10.5c.2 0 .4-.2.4-.4V60zm-.8 5.9H27.1c-.1 0-.2 0-.2.1L24 68.3v-2c0-.2-.2-.4-.4-.4H20v-5.5h17.3l-.1 5.5z"/><path d="M21.6 69c.2 0 .4-.1.4-.3 0-.2-.1-.4-.3-.4h-2.1c-.2 0-.4.2-.4.4v5.5c0 .2.2.4.4.4h10.5l3.4 3c.1.1.1.1.2.1h.2c.1-.1.2-.2.2-.3v-2.7h3.5c.2 0 .4-.2.4-.4v-5.5c0-.2-.2-.4-.4-.4H27.5c-.2 0-.3.2-.3.4s.2.3.3.3h9.8v4.8h-3.6c-.2 0-.4.2-.4.4v2.3L30.4 74c-.1-.1-.2-.1-.2-.1H20V69h1.6zm36.7-49.4c1.8 0 3.3-1.5 3.3-3.3S60.1 13 58.3 13 55 14.5 55 16.3s1.5 3.3 3.3 3.3zm0-5.9c1.4 0 2.6 1.2 2.6 2.6s-1.2 2.6-2.6 2.6-2.6-1.2-2.6-2.6 1.2-2.6 2.6-2.6z"/><path d="M49.3 18.9v.3l2 3.4c.1.2.3.2.5.1l1.8-1c.7.6 1.6 1.1 2.5 1.4v2c0 .2.2.4.4.4h3.9c.2 0 .4-.2.4-.4v-2c.9-.3 1.7-.8 2.3-1.4l1.7 1h.3c.1 0 .2-.1.2-.2l1.9-3.4c.1-.2.1-.4-.1-.5l-1.7-1c.1-.5.1-.9.1-1.4s0-.9-.1-1.4l1.7-1c.2-.1.2-.3.1-.5l-2-3.3c-.1-.1-.1-.2-.2-.2h-.3l-1.6 1c-.7-.6-1.5-1.1-2.3-1.4v-2c0-.2-.2-.4-.4-.4h-3.9c-.2 0-.4.2-.4.4v2c-.9.3-1.8.8-2.5 1.4l-1.8-1c-.2-.1-.4 0-.5.1l-2 3.4v.3c0 .1.1.2.2.2l1.7 1c-.1.5-.1.9-.1 1.4s0 .9.1 1.4l-1.7 1c-.1.1-.1.2-.2.3zm2.5-.7c.1-.1.2-.2.2-.4-.1-.5-.2-1-.2-1.5s.1-1 .2-1.5c0-.2 0-.3-.2-.4l-1.6-.9 1.6-2.8 1.7.9c.1.1.3.1.4-.1.8-.7 1.7-1.2 2.7-1.5.2-.1.3-.2.3-.4V7.8H60v1.9c0 .2.1.3.3.4.9.3 1.8.8 2.5 1.5.1.1.3.1.5 0l1.6-.9 1.6 2.7-1.6.9c-.1.1-.2.2-.2.4.1.5.2 1 .2 1.5s-.1 1-.2 1.5c0 .2 0 .3.2.4l1.6.9-1.6 2.7-1.6-.9c-.1-.1-.3-.1-.4 0-.7.7-1.6 1.2-2.5 1.5-.2.1-.3.2-.3.4v1.9H57v-1.8c0-.2-.1-.3-.3-.4-1-.3-1.9-.8-2.7-1.5-.1-.1-.3-.1-.4 0l-1.7.9-1.6-2.7 1.5-.9zm-.3 57l6.6 2.3h.2l6.6-2.3c.1 0 .2-.2.2-.3l2.3-15.5c0-.1 0-.2-.1-.3s-.2-.1-.3-.1H49.3c-.1 0-.2 0-.3.1s-.1.2-.1.3l2.3 15.5c.1.2.2.3.3.3zm-1.8-15.4h16.9l-2.2 14.8-6.2 2.2-6.2-2.2-2.3-14.8z"/><path d="M54.7 67.5h6.5l-.7 4.8-2.4.7-2.4-.7-.3-2.1c0-.2-.2-.3-.4-.3s-.3.2-.3.4l.4 2.3c0 .1.1.3.3.3l2.7.8h.2l2.7-.8c.1 0 .2-.2.3-.3l.7-5.4c0-.1 0-.2-.1-.3-.1-.1-.2-.1-.3-.1H55l-.6-3.9h8.1c.2 0 .4-.2.4-.4s-.2-.4-.4-.4H54c-.1 0-.2 0-.3.1s-.1.2-.1.3l.8 4.7c0 .2.1.3.3.3zm25-32.1c-4-4.2-10.5-4.3-14.7-.4s-4.3 10.5-.4 14.7 10.5 4.3 14.7.4c4.1-3.9 4.3-10.3.5-14.5 0-.1-.1-.2-.1-.2zm-.5.7c-.2 1.1-.9 2-1.8 2.7-1.2-.2-2.4.1-3.2.9-.2.1-.2.3-.1.5.1.1.2.2.3.2.3.4.5.9.6 1.4 0 .1 0 .1.1.2.4.3.9.4 1.4.2.1.5-.5 1.2-1.2 2-.5.5-.7.7-.7 1s.2.5.4.7l.2.2-.1.1c-.3.3-.7.6-1.1.8-.2.1-.3.2-.3.4 0 1.2-.7 1.8-2.1 1.8-.5-.5-.8-1.1-1-1.8 0-.2.1-.3.2-.5.2-.3.3-.5.3-.8-.1-.6-.4-1.1-.9-1.4 0-.4-.1-.8-.4-1.2-.5-.4-1.2-.5-1.9-.4h-.6c-.9 0-.9-1.3-.9-1.3s0-2.7 1.8-3c1.3-.3 1.7 0 1.7.1s0 .2.1.3c.7.7 1.9.5 2.8.3.3-.1.6-.1.9-.2.2 0 .4-.1.4-.3.1-.9.3-2.5-.3-2.9-.2-.1-.5-.1-.7 0-.3.2-.6.2-.8.1-.2-.1-.3-.4-.3-.6-.1-.6 1.9-1.4 3.3-1.7 1.4.2 2.8 1.1 3.9 2.2zM72.3 52c-5.2.2-9.6-3.9-9.7-9.1s3.9-9.6 9.1-9.7h.6c.4 0 .9 0 1.3.1-1.2.4-2.6 1.1-2.5 2.1 0 .5.3.9.7 1.2.5.2 1 .2 1.5 0 .1.6.1 1.2 0 1.8-.2 0-.5.1-.7.1-.7.2-1.6.4-2 0-.1-.2-.2-.3-.3-.4-.7-.4-1.5-.4-2.2-.1-2.4.5-2.4 3.7-2.4 3.8 0 .7.3 2.1 1.7 2.1h.7c.6 0 1.1-.1 1.3.2.2.2.3.5.2.8 0 .1 0 .2.1.3.3.3.6.6.7 1 0 .2-.1.3-.2.5s-.2.5-.3.8c0 .5.9 2.5 1.7 2.5 1.8 0 2.8-.8 2.9-2.3.4-.2.8-.5 1.2-.8.2-.2.3-.4.3-.7s-.2-.6-.5-.7c-.1 0-.1-.1-.1-.1.1-.2.3-.3.4-.5.8-.8 2.1-2.2 1.1-3.2-.1-.1-.3-.1-.4-.1-.2.1-.5.2-.8.1-.2-.7-.4-1.2-.7-1.7.7-.4 1.6-.6 2.4-.4h.3c1-.6 1.8-1.6 2.1-2.7 3.2 4.1 2.4 10-1.7 13.2-1.7 1.2-3.7 1.9-5.8 1.9zM28.9 26.9h.9c5.6-.2 10-5 9.7-10.7-.2-5.3-4.5-9.5-9.7-9.7H29c-5.3.1-9.6 4.4-9.8 9.7v.3c0 5.5 4.3 10.1 9.7 10.4zm-7.5-15.4h4.3c-.5 1.4-.8 2.9-.9 4.4H20c.1-1.6.6-3.1 1.4-4.4zm17.5 4.4h-4.8c0-1.5-.3-3-.9-4.4h4.2c.8 1.3 1.3 2.8 1.5 4.4zm-5.6 0h-7.8c0-1.5.3-3 .9-4.4h6c.6 1.4.9 2.9.9 4.4zm0 .7c-.1 1.5-.4 3-.9 4.4h-6.1c-.5-1.4-.8-2.9-.9-4.4h7.9zm-8.5 0c0 1.5.3 3 .8 4.4H21c-.7-1.4-1.1-2.9-1.1-4.4h4.9zm-3.3 5.2h4.4c.6 1.5 1.4 3 2.4 4.3-2.8-.4-5.3-2-6.8-4.3zm7.7 4.4c-1-1.4-1.9-2.8-2.5-4.4h5.5c-.7 1.6-1.5 3-2.5 4.4h-.5zm1.4-.1c1-1.3 1.8-2.8 2.4-4.3h4.4c-1.5 2.3-4 3.9-6.8 4.3zm7.2-5.1h-4.6c.5-1.4.8-2.9.8-4.4h4.9c0 1.5-.4 3-1.1 4.4zm-1-10.3h-3.9c-.6-1.2-1.3-2.4-2.1-3.4 2.3.4 4.5 1.6 6 3.4zm-7.1-3.5c1 1 1.8 2.2 2.4 3.5h-5.3c.6-1.3 1.4-2.5 2.4-3.5h.5zm-1.6.1c-.9 1-1.6 2.2-2.1 3.4h-4.1c1.6-1.9 3.8-3.1 6.2-3.4zm14.8 44.1c2.2 0 4-1.7 4-3.9s-1.7-4-3.9-4-4 1.7-4 3.9v.1c0 2.1 1.7 3.8 3.9 3.9zm0-7.1c1.8 0 3.2 1.4 3.2 3.2s-1.4 3.2-3.2 3.2-3.2-1.4-3.2-3.2 1.4-3.2 3.2-3.2z"/><path d="M46.4 52.8c3.1-.9 5.5-3.1 6.8-6 1.7-4.2-.3-7.2-2.3-9.4-.1-.2-.4-.2-.5 0-.1.1-.2.2-.1.4.5 2.2-.8 4.4-3 5.1-.1 0-.2.1-.2.3 0 .1 0 .3.1.4 2.2 2.3 2.1 5.9-.2 8.1-.2.2-.4.4-.7.6-.2.1-.2.3-.1.5h.2zm3-5.4c0-1.5-.5-2.9-1.4-4.1 1.8-.8 3-2.6 3.1-4.5 2.1 2.6 2.5 5 1.4 7.7-.9 2-2.4 3.7-4.4 4.8.8-1.1 1.2-2.5 1.3-3.9z"/><path d="M42.9 38.7c0 1.7 1.4 3.1 3.1 3.1 1.7 0 3.1-1.4 3.1-3.1 0-1.7-1.4-3.1-3.1-3.1-1.7 0-3.1 1.4-3.1 3.1zm5.4 0c0 1.3-1 2.3-2.3 2.3s-2.3-1-2.3-2.3 1-2.3 2.3-2.3 2.3 1 2.3 2.3z"/><path d="M42.2 41.7c.1 0 .2-.1.3-.2.1-.1.1-.3 0-.4-.5-.7-.8-1.6-.8-2.4 0-2.4 1.9-4.3 4.3-4.3h.6c.2 0 .3-.1.4-.2.1-.2 0-.3-.1-.4-1.5-1.2-2.9-2.6-4.2-4.1-.1-.1-.3-.2-.4-.1-.2.1-.3.2-.3.4.3 3.2-1.3 4-3.3 5.1-1.7.9-3.7 1.9-4.9 4.7-1.7 4.5.1 9.5 4.2 11.9.2.1.4.1.5-.1.1-.1.1-.3 0-.5-2-2.4-1.7-6 .7-8.1.8-.7 1.9-1.1 3-1.3zm-5.3 8.2c-2.8-2.4-3.7-6.4-2.4-9.8 1-2.6 2.8-3.5 4.5-4.3s3.6-1.9 3.7-4.7c.9.9 1.8 1.8 2.8 2.7-2.6.2-4.6 2.4-4.6 5 0 .8.2 1.6.6 2.4-3 .6-5.1 3.3-5.2 6.3.1.8.2 1.6.6 2.4z"/><path d="M86.7 33.9c-.4 0-.7.3-.7.7v15.2l-13.7 7.9-13.6-7.9V34l13.6-7.9h.1l11 6.4c.3.2.7.1.9-.2.2-.3.1-.7-.2-.9l-10.9-6.3V9c0-.2-.1-.5-.3-.6L58.4.1c-.2-.1-.5-.1-.7 0L43.5 8.4c-.2.1-.3.3-.3.6v13.3c0 .4.2.7.6.8.4 0 .7-.2.8-.6V9.4L58 1.5l13.8 7.9v15.5l-14.2 8.2c-.2.1-.3.3-.3.6v16.2l-13.9 7.9-13.4-8V34l13.5-7.9L53.6 32c.3.2.7.1.9-.2s.1-.7-.2-.9l-10.5-6c-.2-.1-.5-.1-.7 0l-13.8 8-13.9-8.1c-.2-.1-.5-.1-.7 0L3.5 31.3c-.3.2-.4.6-.2.9.2.3.6.4.9.2L15 26.1 28.6 34v15.8L15 57.7 1.4 49.8V33.7c0-.4-.2-.7-.6-.8-.4 0-.7.2-.8.6v16.8c0 .2.1.5.3.6l14 8.1v16.4c0 .2.1.5.3.6L29 84.2c.1.1.2.1.3.1.1 0 .2 0 .3-.1l14.1-8.3c.2-.1.3-.4.3-.6V62c0-.4-.4-.6-.8-.6-.3 0-.6.3-.6.6v13l-13.5 7.9L15.7 75V58.9L29.3 51l13.8 8.1c.1.1.2.1.3.1s.2 0 .3-.1L58 51l14 8.1c.2.1.5.1.7 0L87 50.8c.2-.1.3-.3.3-.6V34.6c0-.4-.3-.7-.6-.7zM72.5 61.7c-.4 0-.7.3-.7.7V75L58 82.9l-11.7-6.8c-.3-.2-.7-.1-.9.2-.2.3-.1.7.2.9l12 7c.1.1.2.1.3.1s.2 0 .3-.1L72.8 76c.2-.1.3-.3.3-.6v-13c.1-.4-.2-.7-.6-.7zM14.3 22.6c.4 0 .7-.3.7-.7V9.4l13.7-7.9 11.9 6.8c.3.2.7.1.9-.2s.1-.7-.3-.9L29 .1c-.2-.1-.5-.1-.7 0L13.9 8.4c-.2.1-.4.4-.3.6v13c0 .4.3.6.7.6z"/><path d="M6.5 45.3c-1 1-1.3 2.6-.8 3.9 0 .1.1.2.3.2.1 0 .3 0 .3-.1l1.4-1.4H9v1.2l-1.5 1.4c-.1.1-.1.2-.1.3s.1.2.2.3c1.8.8 3.9-.1 4.7-1.9.3-.8.4-1.7.1-2.6l2.5-2.6 2.6 2.6c-.6 1.9.3 3.9 2.2 4.6.4.1.8.2 1.2.2.5 0 1-.1 1.4-.3.1 0 .2-.1.2-.3 0-.1 0-.3-.1-.3L21 49.1v-1.2h1.2l1.4 1.4c.1.1.2.1.3.1.1 0 .2-.1.3-.2.8-1.8-.1-3.9-1.9-4.7-.8-.3-1.7-.4-2.5-.1l-2.6-2.6 2.6-2.6c1.3.4 2.7.1 3.7-.8 1-1 1.3-2.6.8-3.9-.1-.2-.3-.3-.5-.2 0 0-.1 0-.1.1L22.2 36H21v-1.3l1.4-1.4c.1-.1.1-.2.1-.3s-.1-.2-.2-.3c-1.8-.8-3.9.1-4.7 1.9-.3.8-.4 1.7-.1 2.6L15 39.7l-2.6-2.6c.4-1.3.1-2.7-.9-3.7s-2.6-1.3-3.9-.8c-.2.1-.3.3-.2.5 0 0 0 .1.1.1L9 34.6V36H7.8l-1.4-1.5c-.1-.1-.2-.1-.3-.1-.1 0-.2.1-.3.2-.8 1.8.1 3.9 1.9 4.7.8.3 1.7.4 2.5.1l2.6 2.6-2.6 2.6c-1.3-.6-2.7-.3-3.7.7zm13-.1c.1.1.3.1.4.1 1.4-.6 3.1.1 3.7 1.5.2.5.3 1.1.2 1.6l-1.1-1.1c-.1-.1-.2-.1-.3-.1h-1.7c-.2 0-.4.2-.4.4v1.7c0 .1 0 .2.1.3l1.1 1.1c-1.5.3-3-.7-3.3-2.3-.1-.5 0-1.1.2-1.6.1-.1 0-.3-.1-.4l-2.7-2.8 1.2-1.2 2.7 2.8zm-8.9-6.6c-.1-.1-.3-.1-.4-.1-1.4.6-3.1 0-3.7-1.5-.2-.5-.3-1.1-.2-1.6l1.1 1.1c.1.1.2.1.3.1h1.8c.2 0 .4-.2.4-.4v-1.8c0-.1 0-.2-.1-.3L8.7 33c.9-.2 1.8.1 2.5.8.8.8 1 2 .6 3.1-.1.1 0 .3.1.4l2.7 2.7-1.2 1.2-2.8-2.6zm0 6.6l3-3 4.7-4.7c.1-.1.1-.3.1-.4-.6-1.4.1-3.1 1.5-3.7.5-.2 1.1-.3 1.6-.2l-1.1 1.1c-.1.1-.1.2-.1.3v1.8c0 .2.2.4.4.4h1.7c.1 0 .2 0 .3-.1l1.1-1.1c.2.9-.1 1.8-.8 2.5-.8.8-2 1.1-3.1.6-.1-.1-.3 0-.4.1l-4.7 4.7-3 3c-.1.1-.1.3-.1.4.6 1.4 0 3.1-1.4 3.7-.5.2-1.1.3-1.7.2l1.1-1.1c.1-.1.1-.2.1-.3v-1.7c0-.2-.2-.4-.4-.4H7.7c-.1 0-.2 0-.3.1l-1.1 1.1c-.3-1.5.7-3 2.2-3.3.6-.1 1.1 0 1.6.2.2-.1.4-.1.5-.2z"/></g></svg>
