<svg xmlns="http://www.w3.org/2000/svg" width="64" height="64" viewBox="0 0 64 64">
  <title>Twitter icon - yellow</title>
  <path fill="#E4B038" d="M64 14.15c-2.35 1.05-4.888 1.75-7.538 2.062 2.712-1.625 4.788-4.2 5.775-7.262-2.538 1.5-5.35 2.6-8.337 3.188C51.5 9.588 48.087 8 44.313 8c-7.25 0-13.125 5.875-13.125 13.125 0 1.025.113 2.025.337 2.988-10.913-.55-20.587-5.775-27.063-13.725-1.125 1.938-1.775 4.2-1.775 6.6 0 4.55 2.312 8.575 5.838 10.925-2.15-.063-4.175-.663-5.95-1.637v.163c0 6.362 4.525 11.674 10.537 12.874-1.1.3-2.262.462-3.463.462-.85 0-1.663-.087-2.476-.237 1.675 5.21 6.525 9.01 12.262 9.124-4.5 3.525-10.15 5.625-16.313 5.625-1.063 0-2.1-.064-3.138-.19C5.81 57.84 12.71 60 20.122 60c24.15 0 37.362-20.012 37.362-37.36 0-.576-.013-1.138-.038-1.7 2.563-1.838 4.788-4.15 6.55-6.788z"/>
</svg>
