<svg class="icon icon-mobile" role="presentation" aria-labelledby="icon-mobile-title icon-mobile-desc" xmlns="http://www.w3.org/2000/svg" width="70.3" height="83.3" viewBox="0 0 70.3 83.3"><title id="icon-mobile-title">Mobile</title><description id="icon-mobile-desc">Mobile and Tablet Devices Icon.</description><g fill="#012635"><path d="M32.7 82h-26c-2.9 0-5.3-2.4-5.3-5.3v-70c0-2.9 2.4-5.3 5.3-5.3h45c2.9 0 5.3 2.4 5.3 5.3v15c0 .4.2.7.6.8.4 0 .7-.2.8-.6V6.7c0-3.7-3-6.7-6.7-6.7h-45C3 0 0 3 0 6.7v70c0 3.7 3 6.7 6.7 6.7h26c.4 0 .7-.2.8-.6 0-.4-.2-.7-.6-.8h-.2z"/><path d="M31.7 7.3c.4 0 .7-.2.8-.6s-.3-.7-.7-.7h-9.2c-.4 0-.6.4-.6.8 0 .3.3.6.6.6h9.1zm-12.3 0h.5c.2-.1.3-.2.4-.4 0-.1.1-.2 0-.3 0-.2-.1-.3-.2-.5C20 6 20 6 19.9 6c-.3-.1-.5-.1-.7.1-.1.2-.2.4-.2.6 0 .1 0 .2.1.3 0 .1.1.2.1.2.1 0 .1.1.2.1zm26.8 24.9c.1.1.1.1.2.1s.2.1.2.1c.1 0 .2 0 .3-.1.2-.1.3-.2.4-.4 0-.1.1-.2.1-.3 0-.2-.1-.4-.2-.5-.2-.2-.5-.2-.7-.1-.1 0-.2.1-.2.1-.1.1-.1.1-.1.2-.1.2-.1.4 0 .5-.1.2-.1.3 0 .4z"/><path d="M53.7 22.4c.4 0 .7-.3.7-.7v-5c0-3.1-2.5-5.7-5.7-5.7h-38C7.5 11 5 13.5 5 16.7v47c0 3.1 2.5 5.7 5.7 5.7h20c.4 0 .7-.2.8-.6 0-.4-.2-.7-.6-.8H10.7c-2.4 0-4.3-1.9-4.3-4.3v-47c0-2.4 1.9-4.3 4.3-4.3h38c2.4 0 4.3 1.9 4.3 4.3v5c0 .3.3.6.7.7 0-.1 0 0 0 0z"/><path d="M63.7 25h-22C38 25 35 28 35 31.7v45c0 3.7 3 6.7 6.7 6.7h22c3.7 0 6.7-3 6.7-6.7v-45c-.1-3.7-3-6.7-6.7-6.7zM69 76.7c0 2.9-2.4 5.3-5.3 5.3h-22c-2.9 0-5.3-2.4-5.3-5.3v-45c0-2.9 2.4-5.3 5.3-5.3h22c2.9 0 5.3 2.4 5.3 5.3v45z"/><path d="M60.7 36h-15c-3.1 0-5.7 2.5-5.7 5.7v28c0 3.1 2.5 5.7 5.7 5.7h15c3.1 0 5.7-2.5 5.7-5.7v-28c-.1-3.2-2.6-5.7-5.7-5.7zM65 69.7c0 2.4-1.9 4.3-4.3 4.3h-15c-2.4 0-4.3-1.9-4.3-4.3v-28c0-2.4 1.9-4.3 4.3-4.3h15c2.4 0 4.3 1.9 4.3 4.3v28zM49.7 32.3h9c.4 0 .7-.2.8-.6 0-.4-.2-.7-.6-.8h-9.2c-.4 0-.6.4-.6.8s.3.6.6.6zm2.8 44.8c-.8 0-1.4.6-1.4 1.4s.6 1.4 1.4 1.4c.8 0 1.4-.6 1.4-1.4 0-.8-.6-1.4-1.4-1.4zm-25.2-1.4c0 .8.6 1.4 1.4 1.4.8 0 1.4-.6 1.4-1.4s-.6-1.4-1.4-1.4c-.8 0-1.4.6-1.4 1.4z"/></g></svg>
