<svg class="icon icon-audience" role="presentation" aria-labelledby="icon-audience-title icon-audience-desc" xmlns="http://www.w3.org/2000/svg" width="91.4" height="73.7" viewBox="0 0 91.4 73.7"><style>.st0{fill:#012635;}</style><title id="icon-audience-title">Audience</title><description id="icon-audience-desc">An icon depicting multiple persons.</description><g id="Layer_2"><path class="st0" d="M45.9 39.4c9.1 0 16.5-8.8 16.5-19.7S55.1 0 45.9 0 29.4 8.8 29.4 19.7s7.4 19.7 16.5 19.7zm0-38.1c8.4 0 15.2 8.2 15.2 18.4s-6.8 18.4-15.2 18.4-15.2-8.2-15.2-18.4S37.6 1.4 45.9 1.3zm20.7 46.1c-3.4-.7-10.4-5.4-10.4-5.4-.3-.2-.7-.1-.9.2-.2.3-.1.7.2.9.3.2 7.3 4.8 10.9 5.6 2.1.5 5.6 1.8 6.2 5.1.5 3.5.7 7.1.6 10.6-.2.7-1.8 2.6-7.2 4.6-6.4 2-13.1 3.2-19.8 3.4-3.7 0-15.1-1.5-20.3-3.4-5.4-2-7-3.9-7.1-4.4-.1-3.6 0-7.1.6-10.7.6-3.3 4.2-4.6 6.2-5.1 3.6-.8 10.6-5.5 10.9-5.7.3-.2.4-.6.2-.9-.2-.3-.6-.4-.9-.2-.1 0-7.1 4.7-10.5 5.5-4.1 1-6.7 3.1-7.3 6.2s-.8 10-.5 11.2c.4 1.7 3.4 3.7 8 5.4 5.4 2 17 3.5 20.8 3.5 6.9-.2 13.7-1.4 20.2-3.5 5.4-2 7.7-4.1 8-5.4s0-8.3-.5-11.2-3.3-5.3-7.4-6.3zM25.9 29.8c0-6.2-4.3-11.3-9.6-11.3s-9.6 5.1-9.6 11.3 4.3 11.3 9.6 11.3 9.6-5 9.6-11.3zm-9.6 10c-4.5 0-8.2-4.5-8.2-10s3.7-10 8.2-10 8.2 4.5 8.2 10-3.7 10-8.2 10zm5.9 2.3c-.3-.2-.7-.1-.9.2-.2.3-.1.7.2.9.1 0 2 1.3 3.8 2.2.1 0 .2.1.3.1.3 0 .5-.1.6-.4.2-.3 0-.7-.3-.9-1.8-.9-3.7-2.1-3.7-2.1zm-9 16.6c-2.7-.3-5.4-.8-8-1.6-2.9-1-3.7-2-3.8-2.3-.1-2 0-3.9.3-5.9.3-1.6 2.2-2.3 3.3-2.5 2.1-.5 6-3.1 6.2-3.2.3-.2.3-.7.1-1-.2-.2-.5-.3-.8-.2-1.8 1.2-3.7 2.2-5.8 3-2.5.6-4 1.9-4.3 3.7-.3 2.1-.4 4.3-.3 6.4.2 1.1 1.9 2.2 4.6 3.2 2.7.8 5.5 1.4 8.3 1.7h.1c.4 0 .7-.3.7-.6s-.3-.6-.6-.7zm71.5-28.9c0-6.2-4.3-11.3-9.6-11.3s-9.6 5.1-9.6 11.3 4.3 11.3 9.6 11.3 9.6-5 9.6-11.3zm-9.6 10c-4.5 0-8.2-4.5-8.2-10s3.7-10 8.2-10 8.2 4.5 8.2 10-3.7 10-8.2 10zm-9.2 5.7c.1 0 .2 0 .3-.1 1.8-.9 3.7-2.2 3.8-2.2.3-.2.4-.6.2-.9-.2-.3-.6-.4-.9-.2 0 0-1.9 1.2-3.7 2.2-.3.2-.5.6-.3.9.1.1.3.3.6.3zM91 48.8c-.3-1.8-1.9-3.1-4.3-3.7-2-.8-4-1.8-5.8-3-.3-.2-.7 0-.9.3-.1.3-.1.6.2.8.2.1 4.1 2.7 6.2 3.2 1.1.2 3 .9 3.3 2.6.3 1.9.4 3.9.3 5.8-.1.3-.9 1.2-3.8 2.3-2.6.8-5.3 1.3-8 1.6-.4 0-.7.3-.6.7 0 .4.3.7.7.6h.1c2.8-.3 5.6-.9 8.3-1.7 2.7-1 4.4-2.2 4.6-3.2.1-2.1 0-4.2-.3-6.3z" id="shapes"/></g></svg>
