<svg class="icon icon-webpage" role="presentation" aria-labelledby="icon-webpage-title icon-webpage-desc" xmlns="http://www.w3.org/2000/svg" width="84.3" height="75.3" viewBox="0 0 84.3 75.3"><title id="icon-webpage-title">Webpage</title><description id="icon-webpage-desc">An icon of a webpage.</description><g fill="#012635"><path d="M38.7 57H24.9c-.4 0-.6.4-.6.8 0 .3.3.6.6.6h13.8c.4 0 .7-.2.8-.6s-.3-.8-.7-.8h-.1zm.6 5.7c0-.4-.3-.7-.7-.7h-14c-.4 0-.6.4-.6.8 0 .3.3.6.6.6h14c.4 0 .7-.3.7-.7.1 0 .1 0 0 0zM24.7 67c-.4 0-.6.4-.6.8 0 .3.3.6.6.6h8c.4 0 .7-.2.8-.6 0-.4-.2-.7-.6-.8h-8.2z"/><path d="M83.7 0H.7C.3 0 0 .3 0 .7v74c0 .4.3.7.7.7h4c.4 0 .7-.2.8-.6 0-.4-.2-.7-.6-.8H1.4V1.4H25V11H5.7c-.4 0-.6.4-.6.8 0 .3.3.6.6.6h72c.4 0 .7-.2.8-.6s-.3-.8-.7-.8H26.4V1.4H83v13.3c0 .4.2.7.6.8.4 0 .7-.2.8-.6V.7c0-.4-.3-.7-.7-.7zm0 20c-.4 0-.7.3-.7.7V74H10.7c-.4 0-.6.4-.6.8 0 .3.3.6.6.6h73c.4 0 .7-.3.7-.7v-54c0-.4-.3-.7-.7-.7z"/><path d="M19.8 5.8c0-.8-.6-1.4-1.4-1.4-.8 0-1.4.6-1.4 1.4s.6 1.4 1.4 1.4c.8 0 1.4-.6 1.4-1.4zm-5.7 0c0-.8-.6-1.4-1.4-1.4-.8 0-1.4.6-1.4 1.4s.6 1.4 1.4 1.4c.8 0 1.4-.6 1.4-1.4zm-5.6 0c0-.8-.6-1.4-1.4-1.4S5.7 5 5.7 5.8s.6 1.4 1.4 1.4c.7 0 1.4-.6 1.4-1.4zM31.7 5c-.4 0-.6.4-.6.8 0 .3.3.6.6.6h46c.4 0 .7-.2.8-.6 0-.4-.2-.7-.6-.8H31.7zm-24 24.4h68c1.5 0 2.7-1.2 2.7-2.7v-6c0-1.5-1.2-2.7-2.7-2.7h-68C6.2 18 5 19.2 5 20.7v6c0 1.4 1.2 2.6 2.7 2.7zm-1.4-8.7c0-.7.6-1.3 1.3-1.3h68c.7 0 1.3.6 1.3 1.3v6c0 .7-.6 1.3-1.3 1.3h-68c-.7 0-1.3-.6-1.3-1.3v-6zm15.1 47v-10c0-1.5-1.2-2.7-2.7-2.7h-10C7.2 55 6 56.2 6 57.7v10c0 1.5 1.2 2.7 2.7 2.7h10c1.5-.1 2.7-1.2 2.7-2.7zm-14 0v-10c0-.7.6-1.3 1.3-1.3h10c.7 0 1.3.6 1.3 1.3v10c0 .7-.6 1.3-1.3 1.3h-10c-.8 0-1.4-.6-1.3-1.3-.1 0-.1 0 0 0zM77.7 57H63.2c-.4 0-.6.4-.6.8 0 .3.3.6.6.6h14.4c.4 0 .7-.2.8-.6s-.2-.8-.6-.8h-.1zm.6 5.7c0-.4-.3-.7-.7-.7h-14c-.4 0-.6.4-.6.8 0 .3.3.6.6.6h14c.4 0 .7-.3.7-.7.1 0 .1 0 0 0zM63.7 67c-.4 0-.6.4-.6.8 0 .3.3.6.6.6h8c.4 0 .7-.2.8-.6 0-.4-.2-.7-.6-.8h-8.2zm-17-12c-1.5 0-2.7 1.2-2.7 2.7v10c0 1.5 1.2 2.7 2.7 2.7h10c1.5 0 2.7-1.2 2.7-2.7v-10c0-1.5-1.2-2.7-2.7-2.7h-10zM58 57.7v10c0 .7-.6 1.3-1.3 1.3h-10c-.7 0-1.3-.6-1.3-1.3v-10c0-.7.6-1.3 1.3-1.3h10c.7-.1 1.3.5 1.3 1.3zm-53-10c0 1.5 1.2 2.7 2.7 2.7h68c1.5 0 2.7-1.2 2.7-2.7v-12c0-1.5-1.2-2.7-2.7-2.7h-68C6.2 33 5 34.2 5 35.7v12zm1.3-12c0-.7.6-1.3 1.3-1.3h68c.7 0 1.3.6 1.3 1.3v12c0 .7-.6 1.3-1.3 1.3h-68c-.7 0-1.3-.6-1.3-1.3v-12z"/></g></svg>
