<svg class="icon icon-insurance" role="presentation" aria-labelledby="icon-insurance-title icon-insurance-desc" xmlns="http://www.w3.org/2000/svg" width="74.8" height="77.8" viewBox="0 0 74.8 77.8"><title id="icon-insurance-title">Insurance</title><description id="icon-insurance-desc">An icon of three figures below an umbrella</description><g fill="#012635"><path d="M69.5 15.6C63.2 8.7 52 4.5 39.4 4.1L38.1.4c-.1-.2-.4-.4-.7-.4-.3 0-.5.2-.6.5l-1 3.6C23 4.5 11.7 8.7 5.3 15.6 1.5 19.7-.3 24.5 0 29.4c0 .4.4.6.7.6.4 0 .7-.3.7-.7 0-.1.2-3.4 7.6-3.4s7.7 3.3 7.7 3.4c0 .3.2.6.5.6.3.1.6-.1.8-.4 0 0 1.7-3.7 9.4-3.7s9.4 3.6 9.4 3.7c.1.3.5.5.9.4.1 0 .2-.1.3-.2 2.5-2.5 5.9-3.9 9.5-3.9 3.6-.1 7 1.3 9.5 3.9.2.3.7.3 1 .1.1-.1.1-.2.2-.3.1-.1 1.7-3.7 7.8-3.7s7.6 3.5 7.7 3.7c.1.3.4.4.6.4h.1c.3 0 .5-.3.6-.6.2-4.9-1.7-9.6-5.5-13.7zm-3.7 8.9c-5.2 0-7.6 2.4-8.5 3.7-2.7-2.4-6.2-3.7-9.9-3.7-3.6-.1-7.2 1.2-9.9 3.7-1-1.3-3.7-3.7-10.1-3.7-5.8 0-8.6 1.9-9.8 3.3-.8-1.4-2.9-3.3-8.6-3.3-3.5 0-6.1.7-7.6 2.1.5-3.8 2.2-7.4 4.9-10.2 6.4-6.9 18-11 31.1-11s24.7 4.1 31.1 11c2.9 2.9 4.7 6.7 5 10.8-1.3-1.2-3.6-2.6-7.7-2.7z"/><path d="M27.7 8.4c-6 4.2-9.6 9.6-10.5 15.6-.1.4.2.7.6.8h.1c.3 0 .6-.2.7-.6.8-5.7 4.1-10.6 9.9-14.7.3-.2.4-.6.2-.9-.3-.4-.7-.5-1-.2 0-.1 0 0 0 0zm18.1 0c-.3-.2-.7-.1-.9.2-.2.3-.1.7.2.9 5.8 4.1 9.1 9 9.9 14.7.1.3.3.6.7.6h.1c.4-.1.6-.4.6-.8-1-6-4.6-11.4-10.6-15.6zm-8.1-.3c-.4 0-.7.3-.7.7v15c0 .4.4.6.8.6.3 0 .6-.3.6-.6v-15c0-.4-.3-.7-.7-.7zm10.2 37.4c0-6.6-4.5-12-10.1-12s-10.1 5.4-10.1 12 4.5 12 10.1 12 10.1-5.4 10.1-12zm-18.8 0c0-5.9 3.9-10.6 8.7-10.6s8.8 4.8 8.8 10.6-3.9 10.6-8.8 10.6-8.7-4.7-8.7-10.6zm21.1 16.2c-2-.5-6.1-3.2-6.1-3.2-.3-.2-.7-.1-.9.2-.2.3-.1.7.2.9.2.1 4.4 2.9 6.6 3.4 1.2.3 3.2 1 3.5 2.8.3 2 .4 4.1.3 6.2-.1.2-.9 1.3-4 2.4-3.8 1.2-7.7 1.9-11.7 2-4.1-.2-8.1-.9-12-2-3-1.1-4-2.2-4-2.4-.1-2.1 0-4.2.3-6.2.3-1.8 2.3-2.5 3.5-2.8 2.2-.5 6.4-3.3 6.6-3.4.3-.2.4-.6.2-.9-.2-.3-.6-.4-.9-.2 0 0-4.2 2.8-6.1 3.2-2.6.6-4.2 2-4.5 3.9-.3 2.2-.4 4.5-.3 6.8.3 1.1 2.1 2.3 4.9 3.4 4 1.2 8.2 1.9 12.4 2.1 4.1-.1 8.2-.8 12.1-2.1 2.8-1 4.6-2.3 4.9-3.4.1-2.3 0-4.5-.3-6.8-.6-2-2.2-3.3-4.7-3.9zm-24-10.2c0-3.9-2.7-7-6-7s-5.9 3.1-5.9 7 2.7 7 5.9 7 6-3.1 6-7zm-6 5.7c-2.5 0-4.6-2.5-4.6-5.7s2.1-5.7 4.6-5.7 4.6 2.5 4.6 5.7-2 5.7-4.6 5.7zm2.8 1.5c-.2.3-.1.7.2.9 0 0 1.2.8 2.3 1.3.1 0 .2.1.3.1.4 0 .6-.4.6-.8 0-.2-.2-.4-.4-.5-1-.5-2.1-1.2-2.1-1.3-.3 0-.7.1-.9.3zM11.6 66.3"/><path d="M18.4 68.4c-1.6-.2-3.2-.5-4.7-1-.8-.2-1.5-.6-2.1-1.1 0-1.1 0-2.3.2-3.4.2-.9 1.2-1.2 1.7-1.3 1.3-.5 2.6-1.1 3.8-1.9.3-.2.4-.6.3-.9-.2-.3-.6-.4-.9-.3 0 0-.1 0-.1.1-1 .7-2.2 1.3-3.3 1.8-1.3.2-2.4 1.1-2.8 2.4-.2 1.3-.3 2.6-.2 3.9.2.7 1.2 1.5 2.9 2.1 1.6.5 3.3.8 5 1h.1c.4 0 .7-.3.7-.6.1-.5-.2-.9-.6-.8zm42.7-16.9c0-3.9-2.7-7-6-7s-6 3.1-6 7 2.7 7 6 7 6-3.1 6-7zm-6 5.7c-2.5 0-4.6-2.5-4.6-5.7s2.1-5.7 4.6-5.7 4.6 2.5 4.6 5.7-2 5.7-4.6 5.7zm-5.4 3.9c.1 0 .2 0 .3-.1 1.1-.6 2.2-1.3 2.3-1.3.3-.2.4-.6.2-.9-.2-.3-.6-.4-.9-.2-.7.5-1.4.9-2.1 1.3-.3.2-.5.6-.3.9 0 .1.2.3.5.3zm12.4-.8c-1.2-.4-2.3-1-3.3-1.8-.3-.2-.7 0-.9.3-.1.3-.1.6.2.8 1.2.8 2.4 1.5 3.8 1.9.6.1 1.6.5 1.7 1.3.1 1.1.2 2.2.2 3.3 0 0-.3.5-2.1 1.2-1.5.5-3.1.8-4.7 1-.4.1-.5.5-.4.8.1.2.3.4.5.5h.1c1.7-.2 3.4-.5 5-1 1.7-.6 2.8-1.4 2.9-2.1.1-1.3 0-2.6-.2-3.9-.4-1.2-1.5-2.1-2.8-2.3z"/></g></svg>
