<svg xmlns="http://www.w3.org/2000/svg" width="86" height="86" viewBox="0 0 86 86" class="icon icon-search--thick" aria-labelledby="icon-search-thick-title icon-search-thick-desc" role="presentation"><title id="icon-search-thick-title">Thick Search Icon</title><description id="icon-search-thick-desc">Thick version of the search icon</description><path fill="#012635" d="M77.9 86c-2.3-.1-4.5-1.1-6-2.8-.9-.9-4.4-4.4-15.5-15.9l-.8-.8-.1-.1c-1.2-1.9-1.6-4.2-1.1-6.4l-5-5.2c-5.3 4.3-12 6.7-18.9 6.7-6.8 0-13.5-2.3-18.9-6.6C-1.6 44.5-3.9 25.1 6.5 11.8 12.3 4.3 21.1 0 30.5 0c6.9 0 13.4 2.3 18.8 6.6 6.4 5.1 10.5 12.4 11.4 20.5.9 7.9-1.1 15.7-5.8 22l5.1 5.2c.6-.2 1.3-.3 2-.3 2.7 0 4.8 1.6 4.9 1.6h.1l17.4 17.6v.1c1.3 1.9 2.9 6.4-.6 10-1.5 1.6-3.6 2.6-5.9 2.7zM61.7 66.8c4 4.1 11.5 11.8 13.2 13.5l.1.1c.7.8 1.7 1.3 2.9 1.4 1.2-.1 2.2-.6 2.9-1.4.5-.5 1.8-1.8.3-4.5l-16.8-17c-.6-.4-1.3-.6-2-.6-1 0-1.8.4-2.5 1.1-1.3 1.2-1.6 3.1-.8 4.6.3.3 2.7 2.8 2.7 2.8zM30.5 4.4C16.1 4.4 4.3 16.2 4.3 30.8c0 14.6 11.7 26.4 26.2 26.4 14.4 0 26.2-11.9 26.2-26.4C56.7 16.2 45 4.4 30.5 4.4zm0 48.2C18.6 52.6 9 42.8 9 30.8S18.6 9.1 30.5 9.1c11.8 0 21.4 9.7 21.5 21.7.1 12-9.6 21.8-21.5 21.8zm0-39.3c-9.6 0-17.4 7.9-17.4 17.5 0 9.7 7.8 17.5 17.4 17.5 9.6 0 17.4-7.9 17.4-17.5s-7.8-17.5-17.4-17.5z"/></svg>