<svg class="icon icon-education" role="presentation" aria-labelledby="icon-education-title icon-education-desc" xmlns="http://www.w3.org/2000/svg" width="75.5" height="69.2" viewBox="0 0 75.5 69.2"><title id="icon-education-title">Education</title><description id="icon-education-desc">An icon of a graduation cap.</description><g fill="#012635"><path d="M75 13.6L38.2 0c-.2-.1-.3-.1-.5 0L.4 14c-.2.1-.4.3-.4.6s.2.5.4.6l36.9 15.4c.1 0 .2.1.3.1.1 0 .2 0 .3-.1L50 25.5c.3-.1.5-.5.3-.9-.1-.3-.5-.5-.9-.4l-11.9 5.1-35-14.7L37.9 1.4 73 14.3l-17.7 7.3-13.1-5.2c.2-.3.3-.7.3-1.1 0-1.9-2.2-3.4-5.1-3.4s-5.1 1.5-5.1 3.4 2.2 3.4 5.1 3.4c1.4 0 2.8-.4 3.9-1.2l13.2 5.3.5 30.7c-2 .4-3.3 2.3-2.9 4.3s2.3 3.3 4.3 2.9 3.3-2.3 2.9-4.3c-.3-1.5-1.4-2.7-2.9-2.9l-.1-6.8c2.1-1.8 3.9-4 5.2-6.4 0-.1.1-.2.1-.3v-8.5c0-.4-.2-.7-.6-.8-.4 0-.7.2-.8.6v8.5c-1.1 1.9-2.4 3.6-4 5.1L56 28.1l17.6-7.3c.2-.1.4-.3.4-.6v-1.1c0-.4-.4-.6-.8-.6-.3 0-.6.3-.6.6v.6L56 26.6l-.1-3.8 19.1-8c.3-.1.4-.4.4-.6.1-.3-.1-.5-.4-.6zm-41.3 1.7c0-1.1 1.7-2.1 3.7-2.1s3.7 1 3.7 2.1-1.7 2.1-3.7 2.1-3.7-1-3.7-2.1zM58 57.1c0 1.3-1 2.3-2.3 2.3s-2.3-1-2.3-2.3 1-2.3 2.3-2.3c1.3 0 2.3 1 2.3 2.3z"/><path d="M37.5 35.7c.1 0 .2 0 .3-.1l12.5-5.2c.3-.2.5-.6.3-.9-.2-.3-.5-.4-.8-.3l-12.3 5.1L2.7 20.1v-1c0-.4-.4-.6-.8-.6-.3 0-.6.3-.6.6v1.4c0 .3.2.5.4.6l35.5 14.5c.2.1.3.1.3.1zm18.4 26.9c-.4 0-.7.3-.7.7v5.3c0 .4.3.7.7.7.4 0 .7-.3.7-.7v-5.3c0-.4-.3-.7-.7-.7zm-2.3-.8c-.4-.1-.7.1-.8.4l-1.6 5c-.1.3.1.7.4.8h.2c.3 0 .6-.2.6-.5l1.6-5c.1-.3-.1-.6-.4-.7zm5.5.4c-.2-.3-.6-.5-.9-.3-.3.1-.4.4-.4.7l1.6 5c.1.3.3.5.6.5h.2c.3-.1.5-.5.4-.8l-1.5-5.1zm-8-12.8c-.1-.3-.5-.5-.9-.4-3.9 1.5-8.1 2.3-12.3 2.4v-11c0-.4-.3-.7-.7-.7-.4 0-.7.3-.7.7v11.1c-4.2-.1-8.5-.9-12.5-2.5-5.6-2.3-9.4-8.3-10-9.3v-8.3c0-.4-.2-.7-.6-.8s-.7.2-.8.6v8.7c0 .1 0 .2.1.3.2.3 4.2 7.4 10.7 10 4.3 1.7 8.9 2.5 13.6 2.6h.2c4.6 0 9.3-.9 13.6-2.5.3-.1.5-.5.3-.9z"/></g></svg>
