<svg class="icon icon-performance" role="presentation" aria-labelledby="icon-performance-title icon-performance-desc" xmlns="http://www.w3.org/2000/svg" width="86.3" height="66.5" viewBox="0 0 86.3 66.5"><title id="icon-performance-title">Performance</title><description id="icon-performance">An icon of a speedometer.</description><g fill="#012635"><path d="M85.7 35.8v-.3C81.6 12 59.3-3.7 35.8.4 14.9 4-.2 22.2 0 43.4c0 8.8 2 16.1 6.4 22.8.1.2.3.3.4.3.2 0 .4 0 .5-.1l9.3-6.2c.3-.2.4-.6.2-.9-.2-.3-.6-.4-.9-.2l-8.7 5.8c-4-6.3-5.8-13.2-5.8-21.5 0-2.2.2-4.5.5-6.7l8.7 2.3h.2c.3 0 .6-.2.6-.5.1-.4-.1-.7-.5-.8l-8.8-2.3C4 25.6 9.3 16.8 17 10.6l6 8.1c.1.2.3.3.5.3.4 0 .7-.3.7-.7 0-.1 0-.3-.1-.4L18 9.7c7-5.3 15.6-8.3 24.4-8.4v9.2c0 .4.2.7.6.8.4 0 .7-.2.8-.6V1.4c8.9.1 17.5 3.1 24.5 8.5L62.8 18c-.2.3-.1.7.2.9.1.1.2.1.4.1s.4-.1.6-.3l5.5-8.1c7.7 6.2 12.9 14.9 14.8 24.6l-8.7 3c-.4.1-.5.5-.4.8.1.3.4.4.6.5h.2l8.5-2.9c.4 2.2.5 4.4.5 6.7 0 8.3-1.9 15.2-5.9 21.5L70.5 59c-.3-.2-.7-.1-.9.2-.2.3-.1.7.2.9l9.2 6.3c.1.1.2.1.4.1h.1c.2 0 .3-.1.4-.3 4.4-6.8 6.5-14 6.5-22.8-.1-2.6-.3-5.1-.7-7.6z"/><path d="M43.2 41.1c-.5 0-1 .1-1.5.4l-6.4-8.6c-.3-.3-.7-.3-1 0-.2.2-.3.6-.1.8l6.4 8.6c-1.3 1.4-1.2 3.6.3 4.9s3.6 1.2 4.9-.3 1.2-3.6-.3-4.9c-.6-.6-1.5-.9-2.3-.9z"/></g></svg>
