<svg class="icon icon-translation" role="presentation" aria-labelledby="icon-translation-title icon-translation-desc" xmlns="http://www.w3.org/2000/svg" width="84.3" height="75.3" viewBox="0 0 84.3 75.3"><title id="icon-translation-title">Translation</title><description id="icon-translation-desc">An icon depicting the change of languages.</description><g fill="#012635"><path d="M34.2 64.2c2.8 0 5-2.2 5-5v-31c0-2.8-2.2-5-5-5h-23c-2.8 0-5 2.2-5 5v31c0 2.8 2.2 5 5 5h23zm-26.7-5v-31c0-2 1.6-3.6 3.6-3.6h23c2 0 3.7 1.6 3.7 3.6v31c0 2-1.6 3.6-3.6 3.7h-23c-2-.1-3.7-1.7-3.7-3.7z"/><path d="M29.7 50h-13c-.4 0-.6.4-.6.8 0 .3.3.6.6.6h13c.4 0 .7-.2.8-.6 0-.4-.2-.7-.6-.8h-.2zm0 6h-13c-.4 0-.6.4-.6.8 0 .3.3.6.6.6h13c.4 0 .7-.2.8-.6 0-.4-.2-.7-.6-.8h-.2zm43.5 8.2c2.8 0 5-2.2 5-5v-31c0-2.8-2.2-5-5-5h-23c-2.8 0-5 2.2-5 5v31c0 2.8 2.2 5 5 5h23zm-26.7-5v-31c0-2 1.6-3.6 3.7-3.6h23c2 0 3.7 1.6 3.7 3.6v31c0 2-1.6 3.6-3.6 3.7h-23c-2.1-.1-3.8-1.7-3.8-3.7z"/><path d="M54.7 51.3h14c.4 0 .7-.2.8-.6s-.3-.7-.7-.7H54.6c-.4 0-.6.4-.6.8.1.3.4.5.7.5zm0 6h14c.4 0 .7-.2.8-.6s-.3-.7-.7-.7H54.6c-.4 0-.6.4-.6.8.1.3.4.5.7.5zM16.8 34.2h7.3c-.2.8-.5 1.6-.9 2.4-.1-.1-.1-.3-.2-.4-.5-1-1.6-1.4-2.6-1-1 .5-1.4 1.6-1 2.7.3.7.7 1.4 1.2 2.1-.9.7-1.8 1.2-2.9 1.7-1 .4-1.5 1.6-1.1 2.6.4 1 1.6 1.5 2.6 1.1 1.5-.6 2.8-1.4 4.1-2.4 1.2 1 2.6 1.8 4 2.4.2.1.5.1.7.2 1.1 0 2-.9 2-2 0-.8-.5-1.6-1.3-1.9-1-.4-2-1-2.8-1.6 1.1-1.7 1.9-3.7 2.3-5.7h1.4c1.1 0 2-.9 2-2s-.9-2-2-2h-4.4c-.2-1.1-1.3-1.8-2.4-1.5-.7.2-1.3.8-1.5 1.5h-4.5c-1.1 0-2 .9-2 2 0 .9.9 1.8 2 1.8zm0-3h4.9l.5-.1v-.5c0-.6.4-1 1-1s1 .4 1 1v.6h5.4c.6 0 1 .4 1 1s-.4 1-1 1h-2.3l-.1.4c-.3 2.2-1.2 4.3-2.5 6.1l-.3.4.3.3c1 .9 2.2 1.6 3.5 2.1.2.1.4.3.5.5.1.2.1.5 0 .8-.2.5-.8.8-1.3.5-1.5-.6-2.9-1.4-4.1-2.5l-.3-.3-.3.3c-1.2 1.1-2.6 1.9-4.1 2.5-.5.2-1.1 0-1.3-.5-.2-.5 0-1.1.5-1.3 1.3-.5 2.5-1.2 3.5-2.1l.3-.3-.3-.4c-.5-.7-1-1.5-1.3-2.3-.2-.5 0-1.1.5-1.3s1.1 0 1.3.5c.2.4.4.9.7 1.3l.4.7.4-.7c.8-1.2 1.3-2.6 1.6-4.1l.1-.6h-8.5c-.6 0-1-.4-1-1s.7-1 1.3-1zm39.7 13.4c1.1 0 1.4-.6 1.5-.9l.8-2.5h4.4l.8 2.5c.1.3.4.9 1.5.9s2.4-.6 2.4-1.6c0-.1 0-.3-.1-.4l-4.4-13.7C63 28 62 27.5 61 27.6c-1-.1-1.9.4-2.3 1.3l-4.4 13.7v.3c-.1 1.1 1.3 1.7 2.2 1.7zm-1.3-1.7l4.4-13.7c.1-.4.7-.6 1.4-.6s1.3.2 1.4.6L66.7 43c0 .3-.7.7-1.3.7-.5 0-.5-.2-.5-.2l-1-3.2H58l-1 3.3s0 .2-.5.2c-.6 0-1.3-.4-1.3-.7-.1-.1 0-.2 0-.2z"/><path d="M60.9 30.2l-2.6 8.9h5.3l-2.7-8.9zm0 3.6l1.3 4.4h-2.6l1.3-4.4z"/><path d="M83.7 0H.7C.3 0 0 .3 0 .7v74c0 .4.3.7.7.7h4c.4 0 .7-.2.8-.6 0-.4-.2-.7-.6-.8H1.4V1.4H25V12H6.7c-.4 0-.6.4-.6.8 0 .3.3.6.6.6h71c.4 0 .7-.2.8-.6s-.3-.8-.7-.8H26.4V1.4H83v13.3c0 .4.2.7.6.8.4 0 .7-.2.8-.6V.7c0-.4-.3-.7-.7-.7zm0 20c-.4 0-.7.3-.7.7V74H10.7c-.4 0-.6.4-.6.8 0 .3.3.6.6.6h73c.4 0 .7-.3.7-.7v-54c0-.4-.3-.7-.7-.7z"/><path d="M20.3 6.5c0-.8-.6-1.4-1.4-1.4s-1.4.6-1.4 1.4c0 .8.6 1.4 1.4 1.4.8 0 1.4-.6 1.4-1.4zm-5.7 0c0-.8-.6-1.4-1.4-1.4-.8 0-1.4.6-1.4 1.4s.6 1.4 1.4 1.4 1.4-.6 1.4-1.4zM7.5 7.9c.8 0 1.4-.6 1.4-1.4s-.6-1.4-1.4-1.4-1.3.6-1.3 1.4c-.1.8.6 1.4 1.3 1.4zM32.7 6c-.4 0-.6.4-.6.8 0 .3.3.6.6.6h45c.4 0 .7-.2.8-.6 0-.4-.2-.7-.6-.8H32.7z"/></g></svg>
