<svg class="icon icon-quality-assurance" role="presentation" aria-labelledby="icon-quality-assurance-title icon-quality-assurance-desc" xmlns="http://www.w3.org/2000/svg" width="86.7" height="86.7" viewBox="0 0 86.7 86.7"><title id="icon-quality-assurance-title">Quality Assurance</title><description id="icon-quality-assurance-desc">An icon of a starburst seal with a thumbs up inside it.</description><path d="M67.4 37c0-1.9-1.6-3.4-3.4-3.4H50.4c.7-2 2.2-6.5 1.5-9.1-1-3.4-2.9-4.4-4.4-4.2-1.5.3-2.5 1.6-2.4 3 0 6.8-6.5 14-10.5 14.8v-2c0-.4-.3-.7-.7-.7h-9.1c-.4 0-.7.3-.7.7V58c0 .4.3.7.7.7h9.1c.4 0 .7-.3.7-.7V39.5c4.9-.7 11.9-9 11.9-16.1-.1-.8.5-1.5 1.3-1.7.9-.1 2.2.6 2.9 3.2.8 3-1.8 9.1-1.8 9.2-.1.2-.1.5.1.6.1.2.3.3.6.3H64c1.1 0 2.1.9 2.1 2 0 1.2-1 3-2.1 3h-1.8c-.4 0-.7.3-.7.7 0 .4.3.7.7.7 1.1 0 2.1.9 2.1 2.1s-.9 2.1-2.1 2.1h-1.8c-.4 0-.7.2-.8.6s.2.7.6.8h.2c1.1.1 2 1.1 1.9 2.2-.1 1-.9 1.8-1.9 1.9h-1.8c-.4 0-.6.4-.6.8 0 .3.3.6.6.6 1.1 0 2.1.9 2.1 2.1 0 .6-.2 1.2-2.1 1.2H46.7c-1.8 0-3.6-.2-5.3-.6-.6-.1-1.2-.3-2.1-.5-.4-.1-.7.2-.8.5-.1.4.2.7.5.8.8.2 1.5.3 2 .5 1.8.5 3.7.7 5.6.7h11.9c.8 0 3.4 0 3.4-2.5 0-.8-.3-1.6-.8-2.2 1.8-.4 2.9-2.3 2.5-4.1-.1-.5-.4-1-.7-1.4 1.8-.4 3-2.3 2.5-4.1-.1-.5-.4-1-.7-1.4 1.7-.8 2.7-3 2.7-4.5zM33.2 57.4h-7.8V36.8h7.8v20.6z"/><circle cx="30.2" cy="54.4" r="1.6"/><path d="M86.7 43.3c0-.2-.1-.4-.2-.5l-7.8-6.5 4.7-9c.1-.2.1-.4 0-.6-.1-.2-.2-.3-.4-.4l-9.7-3 .9-10.1c0-.4-.2-.7-.6-.7h-.1l-10.1.9-3-9.7c-.1-.2-.2-.3-.4-.4-.2-.1-.4-.1-.6 0l-9 4.7L43.9.2c-.3-.3-.7-.3-1 0L36.3 8l-9-4.7c-.2-.1-.4-.1-.6 0-.2.1-.3.2-.4.4l-3 9.7-10.1-.9c-.4 0-.7.2-.7.6v.1l.9 10.1-9.7 3c-.2.1-.3.2-.4.4-.1.2-.1.4 0 .6l4.7 9-7.8 6.5c-.3.3-.3.7 0 1L8 50.3l-4.7 9c-.1.2-.1.4 0 .6.1.2.2.3.4.4l9.7 3-.9 10.1c0 .2 0 .4.2.5.1.1.3.2.5.2l10.1-.9 3 9.7c.1.4.5.6.8.5.1 0 .1 0 .2-.1l9-4.7 6.5 7.8c.3.3.7.3 1 0l6.5-7.8 9 4.7c.2.1.4.1.6 0 .2-.1.3-.2.4-.4l3-9.7 10.1.9c.4 0 .7-.2.7-.6v-.1l-.9-10.1 9.7-3c.2-.1.3-.2.4-.4.1-.2.1-.4 0-.6l-4.7-9 7.8-6.5c.2-.1.3-.3.3-.5zm-9.4 6.4c-.2.2-.3.6-.2.8l4.6 8.8-9.4 3c-.3.1-.5.4-.5.7l.9 9.8-9.9-.9c-.3 0-.6.2-.7.5l-3 9.4-8.8-4.6c-.3-.1-.6-.1-.8.2L43.3 85 37 77.3c-.2-.3-.5-.3-.8-.2l-8.8 4.6-3-9.4c-.1-.3-.4-.5-.7-.5l-9.9.9.9-9.8c0-.3-.2-.6-.5-.7l-9.4-3 4.7-8.7c.1-.3.1-.6-.2-.8l-7.6-6.3L9.3 37c.2-.2.3-.6.2-.8l-4.6-8.8 9.4-3c.3-.1.5-.4.5-.7l-.9-9.9 9.9.9c.3 0 .6-.2.7-.5l3-9.4 8.8 4.6c.3.1.6 0 .8-.2l6.3-7.6 6.3 7.6c.2.2.6.3.8.2l8.8-4.6 3 9.4c.1.3.4.5.7.5l9.9-.9-.9 9.9c0 .3.2.6.5.7l9.4 3-4.6 8.8c-.1.3-.1.6.2.8l7.6 6.3-7.8 6.4z"/><path d="M62.2 20.1c-.3-.2-.7-.2-1 .1-.2.3-.2.7.1.9 12.2 10 14.1 28 4.1 40.2s-28 14.1-40.2 4.1-14.1-28-4.1-40.2c5.4-6.7 13.6-10.5 22.2-10.5 3.7 0 10.1 1.3 13.4 3.2.3.2.7 0 .9-.3.1-.3 0-.6-.2-.8-3.5-2-10.1-3.4-14.1-3.4-16.5 0-29.9 13.4-29.9 29.9s13.4 29.9 29.9 29.9 29.9-13.4 29.9-29.9c.1-9-4-17.5-11-23.2z"/></svg>
