<svg class="icon icon-email" role="presentation" aria-labelledby="icon-email-title icon-email-desc" xmlns="http://www.w3.org/2000/svg" width="74.3" height="80.3" viewBox="0 0 74.3 80.3"><title id="icon-email-title">Email</title><description id="icon-email-desc">An icon of a letter and a megaphone.</description><g fill="#012635"><path d="M70.7 27h-7.3V2.7c0-1.5-1.2-2.7-2.7-2.7h-46C13.2 0 12 1.2 12 2.7v24.4c-.1-.1-.2-.1-.3-.1h-8c-2 0-3.7 1.6-3.7 3.7v46c0 2 1.6 3.7 3.7 3.7h67c2 0 3.7-1.6 3.7-3.7v-46c-.1-2-1.7-3.7-3.7-3.7zm-59 1.4c.1 0 .2 0 .3-.1v2.4c0 .4.2.7.6.8s.7-.2.8-.6V2.7c0-.7.6-1.3 1.3-1.3h46c.7 0 1.3.6 1.3 1.3v28c0 .4.2.7.6.8.4 0 .7-.2.8-.6v-2.5h7.7L39 60.5c-1 .9-2.5.9-3.4 0L3.4 28.4H11.7zM73 76.7c0 1.3-1 2.3-2.3 2.3h-67c-1.3 0-2.3-1-2.3-2.3v-46c0-.6.2-1.2.6-1.7.1 0 .1-.1.2-.1 0 .1.1.2.2.3L24 50.9 4.7 75.2c-.3.3-.2.7 0 .9l.1.1c.1.1.3.1.4.2.2 0 .4-.1.5-.3L25 51.8l9.6 9.6c1.5 1.5 3.9 1.5 5.4 0l9.5-9.5 9.4 11.7c.1.2.3.3.5.3.4 0 .7-.3.7-.7 0-.2-.1-.3-.1-.4L50.4 51l21.8-21.8.1-.1c.4.4.7 1 .7 1.6v46z"/><path d="M64.1 68.2c-.2-.3-.6-.4-.9-.2-.3.2-.4.6-.2.9l.1.1 5.6 7c.1.2.3.3.5.3s.3-.1.4-.2c.3-.2.4-.6.2-.9 0 0 0-.1-.1-.1l-5.6-6.9zM22 22.9v7c0 2.4 2 4.4 4.4 4.4h2.3c.4 0 .7-.3.7-.7v-8c0-.4-.4-.6-.8-.6-.3 0-.6.3-.6.6V33h-1.6c-1.7 0-3-1.3-3-3v-6.7c.2 0 .5.1.8.1h4.1c.8 0 1.6-.2 2.3-.5 0 0 .1 0 .1-.1l21.9 7.1h.2c.1 0 .3 0 .4-.1.2-.1.3-.3.3-.5V6.5c0-.4-.3-.7-.7-.7h-.2L30.9 13c0-.3-.1-.5-.4-.7-.7-.3-1.4-.5-2.2-.4h-4.1c-3 0-5.5 2.5-5.5 5.5v.4c-.1 2.3 1.2 4.3 3.3 5.1zm9.4-8.5L52 7.5v20.8l-20.6-6.7v-7.2zm-11.5 3.1c0-2.3 1.9-4.2 4.2-4.1h4.1c.6 0 1.1.1 1.7.3h.1V21.6c-.6.2-1.2.4-1.8.4h-4.1c-2.3 0-4.2-1.9-4.2-4.1v-.4z"/></g></svg>
