<svg class="icon icon-search-glass" role="presentation" aria-labelledby="icon-search-glass-title icon-search-glass-desc" xmlns="http://www.w3.org/2000/svg" width="21.1" height="21.5" viewBox="0 0 21.1 21.5"><title id="icon-search-glass-title">Search Glass</title><description id="icon-search-glass-desc">Icon of a magnifying glass.</description><path d="M16.3 13.7c.8-1.3 1.3-2.8 1.3-4.4 0-1.1-.2-2.2-.7-3.3-.4-1-1-1.9-1.8-2.7S13.4 2 12.4 1.5c-2.1-.9-4.5-.9-6.6 0-1 .4-1.9 1-2.7 1.8C2.4 4.1 1.8 5 1.3 6 .9 7 .6 8.1.6 9.3s.2 2.2.7 3.3c.4 1 1 1.9 1.8 2.7s1.7 1.4 2.7 1.8 2.1.7 3.3.7c1.6 0 3.1-.4 4.4-1.3l3.6 3.6c.4.4.8.6 1.4.6.5 0 1-.2 1.4-.6s.6-.8.6-1.4c0-.5-.2-1-.6-1.4l-3.6-3.6zm2.8 5.6c-.4.4-1 .4-1.3 0l-4.2-4.1-.3.2c-1.3.9-2.7 1.3-4.2 1.3-1 0-2-.2-2.9-.6s-1.7-.9-2.4-1.6c-.7-.7-1.2-1.5-1.6-2.4s-.6-1.9-.6-2.9.2-2 .6-2.9c.4-.8 1-1.6 1.6-2.3s1.5-1.2 2.4-1.6c1.8-.8 3.9-.8 5.8 0 .9.4 1.7.9 2.4 1.6s1.2 1.5 1.6 2.4c.4.9.6 1.9.6 2.9 0 1.5-.4 3-1.3 4.2l-.3.4 4.2 4.2c.2.2.3.4.3.7-.1.1-.2.3-.4.5z"/><path d="M9.1 3.8c-1.5 0-2.8.5-3.9 1.6S3.5 7.8 3.5 9.3s.5 2.8 1.6 3.9 2.4 1.6 3.9 1.6 2.8-.5 3.9-1.6 1.6-2.4 1.6-3.9-.4-2.8-1.5-3.9-2.4-1.6-3.9-1.6zm3.2 8.7c-.9.9-1.9 1.3-3.2 1.3s-2.3-.4-3.2-1.3c-.9-.9-1.4-1.9-1.4-3.2S5 7 5.9 6.1s1.9-1.3 3.2-1.3 2.3.4 3.2 1.3 1.3 1.9 1.3 3.2-.4 2.3-1.3 3.2z"/></svg>
