<svg class="icon icon-accessibility" role="presentation" aria-labelledby="icon-accessibility-title icon-accessibility-desc" xmlns="http://www.w3.org/2000/svg" width="87.3" height="87.3" viewBox="0 0 87.3 87.3"><title id="icon-accessibility-title">Accessibility</title><description id="icon-accessibility-desc">An icon showing various disabilites.</description><g fill="#012635"><path d="M20.2 32.4c10.2 0 18.2-10 18.5-10.4.2-.2.2-.6 0-.8-.3-.4-8.4-10.4-18.5-10.4S2 20.7 1.6 21.1c-.2.2-.2.6 0 .8.4.5 8.4 10.5 18.6 10.5zm0-20.3c8.4 0 15.5 7.6 17.1 9.5-1.6 1.9-8.8 9.5-17.1 9.5S4.7 23.4 3.1 21.6c1.6-1.9 8.7-9.5 17.1-9.5z"/><path d="M20.2 28.5c3.8 0 6.9-3.1 6.9-6.9 0-3.8-3.1-6.9-6.9-6.9s-6.9 3.1-6.9 6.9c-.1 3.8 3 6.9 6.9 6.9zm0-12.5c3.1 0 5.6 2.5 5.6 5.6 0 3.1-2.5 5.6-5.6 5.6-3.1 0-5.6-2.5-5.6-5.6 0-3.1 2.5-5.6 5.6-5.6z"/><path d="M20.2 25.4c2.1.1 3.9-1.5 4-3.6s-1.5-3.9-3.6-4h-.4c-.4 0-.7.3-.7.7s.3.7.7.7c1.4 0 2.5 1.1 2.5 2.4 0 1.4-1.1 2.5-2.4 2.5-1.4 0-2.5-1.1-2.5-2.4 0-.4-.4-.6-.8-.6-.3 0-.6.3-.6.6 0 2 1.7 3.7 3.8 3.7zm40.1-3.8c-.6 0-1.2.3-1.5.9-.4.9-.3 2 .3 2.8l5.3 7.8c.1.2.3.3.6.3h10.7c.3 0 .6-.2.7-.5l1.3-7.1c.5-1.6-.3-3.4-1.9-4.1l-5.4-1.8v-7.2c0-1.5-1.1-2.7-2.6-2.7-.6 0-1.1.1-1.6.5-.7.5-1.2 1.3-1.2 2.2v12.2c-2-2.8-3.2-3.3-4.7-3.3zm4.8 5.6c.2.3.6.4.9.2.2-.1.3-.3.3-.5V12.5c0-.4.2-.8.6-1.1.4-.3.9-.3 1.3-.1.5.2.8.7.8 1.2v7.7c0 .3.2.5.5.6l5.9 2c.9.5 1.4 1.5 1 2.5L75.1 32h-9.8l-5.1-7.5c-.3-.4-.4-.9-.2-1.4 0-.1.1-.1.3-.1 1-.1 2.2.2 4.8 4.2zM73 12.7c0 .4.3.7.7.7h4c.4 0 .7-.2.8-.6s-.3-.8-.7-.8h-4.2c-.3 0-.6.3-.6.7zm-.7-3.8c.2 0 .4-.1.5-.2l2.6-2.6c.3-.3.3-.7 0-1s-.7-.3-1 0l-2.6 2.6c-.3.2-.3.7-.1.9l.1.1c.1.2.3.3.5.2zm-3.6-1.6c.4 0 .7-.3.7-.7v-4c0-.4-.4-.6-.8-.6-.3 0-.6.3-.6.6v4c0 .4.3.7.7.7 0 0 0 .1 0 0zm-6 1.5c.3.3.7.3 1 0 .3-.3.3-.7 0-1L61 5.2c-.3-.3-.7-.3-1 0-.3.3-.3.7 0 1l2.7 2.6zm-5 4.6h4c.4 0 .7-.2.8-.6 0-.4-.2-.7-.6-.8h-4.2c-.4 0-.6.4-.6.8 0 .3.3.5.6.6zM67.5 50c-5.4 1.3-9.5 5.8-10.3 11.3 0 .4.3.7.6.7s.6-.2.7-.5c.7-4.9 4.4-9 9.2-10.2 3.7-.8 7 .8 9.3 4.5 3.6 5.8-.3 12.9-3.5 17.8l-.3.5c-2 3.1-4.6 7-7.4 7.1-1.3.1-2.7-.7-4.1-2.3-.3-.2-.7-.2-1 .1-.2.2-.2.5 0 .7 1.6 1.8 3.2 2.8 4.9 2.8h.4c3.4-.2 6.2-4.4 8.4-7.7l.3-.5c2-3 8-12 3.5-19.3-2.5-4-6.4-5.9-10.7-5z"/><path d="M70.6 57.9c1.2.6 1.9 1.8 1.9 3.1 0 .4.3.7.6.7.4 0 .7-.3.7-.7.1-1.8-1-3.5-2.6-4.3l-.4-.2c-.3-.1-.7 0-.9.4-.1.3 0 .7.4.9l.3.1zM28.8 74.8c-.3-.2-.7 0-.9.3-2.5 4.8-8.3 6.6-13.1 4.2-4.8-2.5-6.6-8.3-4.2-13.1 1-1.9 2.6-3.4 4.5-4.3.3-.2.5-.6.3-.9-.2-.3-.6-.5-.9-.3-5.5 2.6-8 9.1-5.4 14.7 2.6 5.5 9.1 8 14.7 5.4 2.2-1 4.1-2.8 5.2-5 .2-.4.1-.8-.2-1zm-6.4-21.6c0-1.8-1.4-3.2-3.2-3.2S16 51.4 16 53.2c0 1.8 1.4 3.2 3.2 3.2 1.7 0 3.1-1.5 3.2-3.2zm-5 0c0-1 .8-1.8 1.8-1.8s1.8.8 1.8 1.8-.8 1.8-1.8 1.8-1.9-.8-1.8-1.8z"/><path d="M35.3 74l-1.7 1.4-4.9-6.2c-.1-.2-.3-.3-.5-.2H20v-6.7h7.3c.4 0 .6-.4.6-.8 0-.3-.3-.6-.6-.6H20v-3.3c0-.4-.4-.6-.8-.6-.3 0-.6.3-.6.6v12c0 .4.3.7.7.7h8.6l5.2 6.5c.1.1.3.2.5.2h.1c.2 0 .3-.1.4-.2l2.2-1.8c.3-.2.3-.7.1-.9-.4-.3-.8-.4-1.1-.1z"/><path d="M86.7 43H44.3V.7c0-.4-.4-.6-.8-.6-.3 0-.6.3-.6.6V43H.7c-.4 0-.6.4-.6.8 0 .3.3.6.6.6H43v42.3c0 .4.2.7.6.8s.7-.2.8-.6V44.3h42.3c.4 0 .7-.2.8-.6s-.3-.7-.7-.7h-.1z"/><path d="M64.1 73c-.4-.1-.7.2-.8.5-.1.4.2.7.6.8.3 0 .6.1.9.1 1 0 2-.2 2.8-.8.6-.5.9-1.2.9-2 0-4-.8-4.8-2.4-5.1-.6-.1-1.1-.2-1.1-3-.1-2.2.8-4.3 2.6-5.6.3-.2.4-.6.2-.9-.2-.3-.6-.4-.9-.2-2.1 1.6-3.3 4.1-3.2 6.8 0 3.3.8 4.1 2.2 4.3.6.1 1.3.2 1.3 3.8 0 .4-.1.7-.4 1-.9.3-1.8.5-2.7.3z"/></g></svg>
