<svg class="icon icon-support" role="presentation" aria-labelledby="icon-support-title icon-support-desc" xmlns="http://www.w3.org/2000/svg" width="82.2" height="54.3" viewBox="0 0 82.2 54.3"><title id="icon-support-title">Support</title><description id="icon-support-desc">Handshake icon.</description><g fill="#012635"><path d="M20.5 5.6c2.5.7 5.2.5 7.6-.6 3.7-1.5 5.2-1 6.6-.6l.6.2c1.7.5 19.3 6.5 19.5 6.5s.2.1.3.2.2.7-.7 2.1c-1.1 2-2.9 2.4-6.1 1.4-1-.3-2.2-.7-3.3-1.1-5.2-1.8-5.6-2-6-1.1v.1c-.9 2.7-2.8 5-5.2 6.4-3.9 2.1-6.8 1.6-11.2.5-.4-.1-.7.2-.8.6-.1.3.1.6.4.7 2 .6 4 .9 6.1 1 2.1 0 4.2-.6 6-1.6 2.6-1.5 4.6-3.9 5.7-6.8.9.2 2.9.9 4.4 1.5 1.2.4 2.4.8 3.4 1.2 2.4.8 5.9 1.4 7.8-2 .8-1.5 1-2.5.7-3.3-.2-.5-.6-.8-1.1-1-.1 0-17.8-6-19.5-6.5l-.6-.2c-1.6-.5-3.4-1.1-7.6.6-2.3 1-5 1.1-7.4.3H20c-.4-.8-1.1-1.3-1.9-1.6L12 .2c-1.8-.6-3.8.3-4.4 2.1l-7.4 21c-.3.9-.3 1.8.1 2.6s1.1 1.5 2 1.8l6.2 2.2c.4.1.8.1 1.2.1 1.5 0 2.8-.9 3.2-2.3l7.4-21c.1-.3.2-.7.2-1.1zm-1.5.7l-7.4 21c-.4 1-1.5 1.6-2.6 1.2l-6.2-2.2c-.5-.2-1-.6-1.2-1.1-.2-.5-.3-1.1-.1-1.6l7.4-21c.4-1.1 1.6-1.7 2.7-1.3l6.2 2.2c1 .5 1.6 1.7 1.2 2.8z"/><path d="M81.9 23.5l-9.6-20c-.8-1.7-2.9-2.4-4.6-1.6l-6 2.8c-.8.4-1.5 1.1-1.8 2-.3.9-.3 1.8.1 2.6l9.6 20c.3.6.7 1 1.3 1.3-.6.8-2.4 2.8-7.9 6.2-7.4 4.6-16.8 9.8-16.9 9.8l-10.9 6c-.5.3-1.1.3-1.6.2-.6-.2-1-.6-1.3-1.1l-.5-1c-.5-1.1-.1-2.4.9-3l10-5.7c.3-.2.4-.6.2-.9-.2-.3-.6-.4-.9-.3l-.1.2h-.2l-14.5 7.6c-1.1.6-2.4.2-3.1-.9l-.5-1c-.4-.7-.3-1.5.1-2.1L37 37.4l2.1-1.1c.3-.2.5-.6.3-.9-.2-.3-.6-.5-.9-.3l-2.1 1.1-12.5 6.5c-.4.2-.8.5-1.1.9l-1.6.9c-1 .5-2.1.1-2.6-.8l-.5-.9c-.2-.4-.3-1-.1-1.4.2-.5.5-.9 1-1.1l11.3-6.1 3.7-2c.3-.3.3-.7 0-1-.2-.2-.4-.3-.7-.2l-3.7 2-9.4 4.6c-.5.3-1.1.3-1.6.2-.6-.2-1-.6-1.3-1.1l-.5-1c-.6-1.1-.2-2.4.9-3l8.7-4.7c.3-.2.5-.6.3-.9-.2-.3-.6-.5-.9-.3L17 31.5c-1.7.9-2.4 3.1-1.5 4.8l.5 1c.4.8 1.2 1.5 2.1 1.7h.1c-.8.4-1.4 1.1-1.6 2-.3.8-.2 1.7.2 2.5l.5.9c.6 1.1 1.7 1.7 2.9 1.7.5 0 1.1-.1 1.5-.4l.2-.1c0 .6.1 1.3.4 1.8l.5 1c.7 1.1 1.9 1.8 3.2 1.8.6 0 1.2-.1 1.7-.4l2.8-1.4c-.4 1-.4 2.1.1 3l.5 1c.6 1.2 1.8 1.9 3.1 1.9.6 0 1.1-.1 1.6-.4l10.9-6c.1 0 9.5-5.3 16.9-9.9 6.1-3.8 8-6 8.5-6.8.2 0 .4.1.6.1.5 0 1-.1 1.5-.3l6-2.9c1.9-.7 2.6-2.8 1.7-4.6.1.1.1.1 0 0zm-2.2 3.4l-5.9 2.9c-1 .5-2.3.1-2.8-1l-9.6-20c-.5-1 0-2.3 1-2.8l6-2.8c.5-.2 1-.3 1.5-.1.5.2.9.6 1.2 1.1l9.6 20c.5.9.1 2.1-1 2.7z"/></g></svg>
