<svg class="icon icon-high-tech" role="presentation" aria-labelledby="icon-high-tech-title icon-high-tech-desc" xmlns="http://www.w3.org/2000/svg" width="75.3" height="75.3" viewBox="0 0 75.3 75.3"><title id="icon-high-tech-title">High Tech</title><description id="icon-high-tech-desc">An icon of a circuit board.</description><g fill="#012635"><path d="M40.3 61c0 2 1.6 3.7 3.6 3.7s3.7-1.6 3.7-3.6-1.6-3.7-3.6-3.7h-.1c-1.9 0-3.5 1.6-3.6 3.6zm6 0c0 1.3-1 2.4-2.3 2.4-1.3 0-2.4-1-2.4-2.3 0-1.3 1-2.4 2.3-2.4 1.4 0 2.4 1 2.4 2.3zm-6-24.8c0 2 1.6 3.7 3.7 3.7 2 0 3.7-1.6 3.7-3.7 0-2-1.6-3.7-3.7-3.7-2 0-3.7 1.7-3.7 3.7zm3.7-2.3c1.3 0 2.3 1 2.4 2.3 0 1.3-1 2.3-2.3 2.4-1.3 0-2.3-1-2.4-2.3 0-1.4 1-2.4 2.3-2.4zM16 15.5c-1.4 1.4-1.4 3.8 0 5.2 1.4 1.4 3.8 1.4 5.2 0 1.4-1.4 1.4-3.8 0-5.2-1.4-1.4-3.8-1.4-5.2 0zm4.2 4.3c-.9.9-2.4.9-3.3 0s-.9-2.4 0-3.3c.4-.4 1-.7 1.6-.7 1.3 0 2.3 1 2.4 2.3.1.6-.2 1.2-.7 1.7z"/><path d="M46.6 14.5h28.1c.4 0 .7-.3.7-.7V.7c0-.4-.3-.7-.7-.7H39.6c-.2 0-.4.1-.5.2l-14 14.2c-.2.2-.3.5-.1.8 1.7 3.5.2 7.8-3.4 9.4s-7.8.2-9.4-3.4-.2-7.8 3.4-9.4c1.9-.9 4.1-.9 6 0 .3.1.6.1.8-.1L32.7 1.1c0-.1.1-.1.1-.2V.7.5c0-.1-.1-.2-.1-.2-.1 0-.1-.1-.2-.1H.7C.4.2.1.4 0 .7v74c0 .4.3.7.7.7h74c.4 0 .7-.3.7-.7v-11c0-.4-.3-.7-.7-.7H51.3c-.3 0-.6.2-.7.5-1.3 3.7-5.4 5.6-9 4.3s-5.6-5.4-4.3-9c1.3-3.7 5.4-5.6 9-4.3 2 .7 3.6 2.3 4.3 4.3.1.3.4.5.6.5h23.4c.4 0 .7-.3.7-.7V19.1c0-.4-.3-.7-.7-.7l-28.1-.1h-.3l-.1.1-.1.1v.1l-.1.1V28.8c0 .3.2.5.5.6 3.7 1.3 5.6 5.3 4.3 9-1.3 3.7-5.3 5.6-9 4.3-3.7-1.3-5.6-5.3-4.3-9 .7-2 2.3-3.6 4.3-4.3.3-.1.4-.3.5-.6V14.5h4.4zm-5.2-1.3c-.4 0-.7.3-.7.7v14.6c-4.3 1.8-6.3 6.7-4.5 11 1.8 4.3 6.7 6.3 11 4.5 4.3-1.8 6.3-6.7 4.5-11-.9-2-2.5-3.6-4.5-4.5v-8.7H74v38H51.8c-1.8-4.3-6.7-6.3-11-4.5s-6.3 6.7-4.5 11 6.7 6.3 11 4.5c2-.9 3.7-2.5 4.5-4.5H74V74H1.4V1.4h29.2l-8.9 9c-4.3-1.7-9.2.4-10.9 4.8s.4 9.2 4.8 10.9 9.2-.4 10.9-4.8c.8-2 .8-4.3 0-6.3L39.9 1.4H74v11.8H41.4z"/></g></svg>
