<svg class="icon icon-navigation" role="presentation" aria-labelledby="icon-navigation-title icon-navigation-desc" xmlns="http://www.w3.org/2000/svg" width="82.3" height="82.3" viewBox="0 0 82.3 82.3"><title id="icon-navigation-title">Navigation</title><description id="icon-navigation-desc">An icon of a compass.</description><g fill="#012635"><path d="M41.2 0C18.4 0 0 18.4 0 41.2s18.4 41.2 41.2 41.2S82.4 64 82.4 41.2C82.3 18.4 63.9 0 41.2 0zm0 81c-22 0-39.8-17.8-39.8-39.8S19.2 1.3 41.2 1.3 81 19.2 81 41.2 63.2 81 41.2 81z"/><path d="M61.4 20.5L15.6 42c-.3.2-.5.6-.3.9.1.2.3.3.5.4l21.3 4L39.3 67c0 .3.3.5.6.6h.1c.3 0 .5-.2.6-.4l21.8-45.8c.2-.3 0-.7-.3-.9-.3-.1-.5-.1-.7 0zM40.3 64.4l-2-17.8c0-.3-.3-.5-.5-.6l-19.7-3.7 42.2-19.8-20 41.9z"/></g></svg>
