<svg class="icon icon-fax" role="presentation" aria-labelledby="icon-fax-title icon-fax-desc" xmlns="http://www.w3.org/2000/svg" width="78.1" height="76.1" viewBox="0 0 78.1 76.1">
<title id="icon-fax-title">Fax</title>
<description id="icon-fax-desc">An icon showing a fax.</description>
<g fill="#012635">
	<path class="st0" d="M43.9,10.6h14c0.4,0,0.7-0.2,0.8-0.6c0-0.4-0.2-0.7-0.6-0.8c-0.1,0-0.1,0-0.2,0h-14c-0.4,0-0.6,0.4-0.6,0.8
		C43.4,10.3,43.6,10.6,43.9,10.6z"/>
	<path class="st0" d="M43.9,19.4h14c0.4,0,0.7-0.2,0.8-0.6c0-0.4-0.2-0.7-0.6-0.8c-0.1,0-0.1,0-0.2,0h-14c-0.4,0-0.6,0.4-0.6,0.8
		C43.4,19.1,43.6,19.3,43.9,19.4z"/>
	<path class="st0" d="M43.9,28.1h7c0.4,0,0.7-0.2,0.8-0.6c0-0.4-0.2-0.7-0.6-0.8c-0.1,0-0.1,0-0.2,0h-7c-0.4,0-0.6,0.4-0.6,0.8
		C43.4,27.8,43.6,28.1,43.9,28.1z"/>
	<path class="st0" d="M73.4,34.5h-1.8V18.6c0-0.4-0.3-0.6-0.7-0.6h-5.6V0.7c0-0.4-0.3-0.7-0.7-0.7c0,0,0,0,0,0h-29
		C35.3,0,35,0.3,35,0.7V18h-4.8c-0.4,0-0.7,0.3-0.7,0.7l0,0v15.8h-4.2V23.9c0-2.6-2.1-4.7-4.7-4.7h-9.2c-2.6,0-4.7,2.1-4.7,4.7
		v10.6H4.7c-2.6,0-4.7,2.1-4.7,4.7v32.2c0,2.6,2.1,4.7,4.7,4.7h68.8c2.6,0,4.7-2.1,4.7-4.7V39.2C78.1,36.6,76,34.5,73.4,34.5z
			M70.2,19.3v15.2h-4.9V19.3H70.2z M64,1.4v33.2H36.3V1.4H64z M30.9,19.4H35v15.1h-4.1L30.9,19.4z M8.1,23.9c0-1.8,1.5-3.3,3.3-3.3
		h9.2c1.8,0,3.3,1.5,3.3,3.3v41.5c0,1.8-1.5,3.3-3.3,3.3h0h-9.2c-1.8,0-3.3-1.5-3.3-3.3V23.9z M76.8,71.4c0,1.8-1.5,3.3-3.3,3.3
		l0,0H4.7c-1.8,0-3.3-1.5-3.3-3.3V39.2c0-1.8,1.5-3.3,3.3-3.3h2.1v29.6c0,2.6,2.1,4.7,4.7,4.7h9.2c2.6,0,4.7-2.1,4.7-4.7V35.8h48.1
		c1.8,0,3.3,1.5,3.3,3.3V71.4z"/>
	<path class="st0" d="M64.7,43c-3.6,0-6.4,2.9-6.4,6.4s2.9,6.4,6.4,6.4c3.6,0,6.4-2.9,6.4-6.4c0,0,0,0,0,0
		C71.1,45.9,68.2,43,64.7,43z M64.7,54.5c-2.8,0-5.1-2.3-5.1-5.1s2.3-5.1,5.1-5.1c2.8,0,5.1,2.3,5.1,5.1
		C69.7,52.2,67.5,54.5,64.7,54.5z"/>
	<path class="st0" d="M51.3,42.2h-20c-0.4,0-0.7,0.3-0.7,0.7c0,0,0,0,0,0v7.2c0,0.4,0.3,0.7,0.7,0.7l0,0h3.8c0.4,0,0.7-0.3,0.7-0.7
		c0-0.4-0.3-0.7-0.7-0.7h-3.2v-5.8h18.7v5.8H39.9c-0.4,0-0.7,0.3-0.7,0.7c0,0.4,0.3,0.7,0.7,0.7h11.3c0.4,0,0.7-0.3,0.7-0.7v-7.2
		C51.9,42.5,51.6,42.2,51.3,42.2z"/>
	<path class="st0" d="M51.3,56.8h-20c-0.4,0-0.7,0.2-0.8,0.6c0,0.4,0.2,0.7,0.6,0.8c0.1,0,0.1,0,0.2,0h20c0.4,0,0.6-0.4,0.6-0.8
		C51.8,57.1,51.6,56.9,51.3,56.8z"/>
	<path class="st0" d="M51.3,61.9h-20c-0.4,0-0.7,0.3-0.7,0.7c0,0,0,0,0,0c0,0.4,0.3,0.7,0.7,0.7l0,0h20c0.4,0,0.7-0.3,0.7-0.7
		C51.9,62.2,51.6,61.9,51.3,61.9z"/>
	<path class="st0" d="M51.3,67h-20c-0.4,0-0.7,0.2-0.8,0.6c0,0.4,0.2,0.7,0.6,0.8c0.1,0,0.1,0,0.2,0h20c0.4,0,0.6-0.4,0.6-0.8
		C51.8,67.3,51.6,67,51.3,67z"/>
</g>
</svg>
