<svg class="icon icon-global" role="permission" aria-labelledby="icon-global-title icon-global-desc" xmlns="http://www.w3.org/2000/svg" width="82.2" height="82.8" viewBox="0 0 82.2 82.8"><title id="icon-global-title">Global</title><description id="icon-global-desc">An icon of a globe.</description><path fill="#012635" d="M41.1 0C26.7 0 13.3 7.6 5.9 20c-.2.1-.3.3-.3.5-11.5 19.8-4.8 45.2 15 56.7 6.2 3.6 13.3 5.6 20.5 5.6 22.9-.3 41.1-19.1 40.8-42C81.5 18.4 63.5.3 41.1 0zm39.7 41.9H68.4v-.5c0-6.9-1.1-13.7-3.5-20.2h10.4c3.6 6.1 5.4 13.1 5.4 20.2.1.2.1.3.1.5zm-6.8 22H64c2.7-6.6 4.2-13.6 4.3-20.6h12.4c-.2 7.3-2.6 14.5-6.7 20.6zm-65.8 0c-4.1-6.1-6.5-13.3-6.8-20.7h12.4c.2 7.1 1.6 14.1 4.4 20.7h-10zm6.9-20.7h13c.1 6.9.7 13.8 2 20.7H19.6c-2.8-6.6-4.3-13.6-4.5-20.7zm0-1.8c0-6.9 1.2-13.7 3.5-20.2h11.1c-1.1 6.7-1.6 13.4-1.6 20.2v.5h-13v-.5zm52 .5H54v-.5c0-6.8-.5-13.5-1.6-20.2h11.1c2.4 6.5 3.6 13.3 3.5 20.2l.1.5zm-37.5 0v-.5c0-6.8.5-13.5 1.6-20.2H51c1.1 6.7 1.7 13.4 1.7 20.2v.5H29.6zm23.1 1.3c0 6.9-.7 13.8-2 20.6H31.6c-1.3-6.8-2-13.7-2.1-20.7l23.2.1zm-.5-23.3c-1.5-8.3-4-15-7.2-18.1 7.5 1.8 14 8.6 18 18.1H52.2zm-1.4 0H31.4c2.2-11.6 6.1-18.5 9.7-18.5 4.3-.1 7.7 7.9 9.7 18.5zm-20.8 0H19.2c4-9.5 10.4-16.3 18-18.1-3.2 3.1-5.7 9.8-7.2 18.1zm.4 45.3c1.5 7.2 3.8 13 6.7 15.8-6.9-1.6-13-7.5-17-15.8h10.3zm1.4 0h18.5c-2.2 10.2-5.8 16.3-9.3 16.3-3.9 0-7.1-6.8-9.2-16.3zm19.9 0H62C58 73.6 52 79.4 45 81c2.9-2.7 5.2-8.5 6.7-15.8zm.3-1.3c1.3-6.8 1.9-13.7 2-20.7h13c-.1 7.1-1.7 14.1-4.4 20.7H52zm22.6-44H64.4c-3.2-8-8.2-14.2-14-17.4 10 2.4 18.7 8.7 24.2 17.4zM31.8 2.5c-5.9 3.2-10.8 9.4-14 17.4H7.6c5.5-8.7 14.2-15 24.2-17.4zm-25 18.7h10.4c-2.3 6.5-3.5 13.3-3.5 20.2v.5H1.4v-.5c0-7.1 1.8-14 5.4-20.2zm2.4 44h9.6c3.2 6.9 7.8 12.2 13.1 15.2-9.2-2.2-17.2-7.6-22.7-15.2zm41.2 15.2c5.3-2.9 9.9-8.3 13.1-15.2H73c-5.5 7.6-13.5 13-22.6 15.2z"/></svg>
