<svg class="icon icon-content-strategy" role="presentation" aria-labelledby="icon-content-strategy-title icon-content-strategy-description" xmlns="http://www.w3.org/2000/svg" width="82.7" height="86.3" viewBox="0 0 82.7 86.3"><title id="icon-content-strategy-title">Content Strategy</title><description id="icon-content-strategy-desc">An icon of a document and pencil.</description><g fill="#012635"><path d="M65.7 27c-.4 0-.7.3-.7.7v12c0 .4.2.7.6.8.4 0 .7-.2.8-.6V27.7c0-.4-.3-.7-.7-.7z"/><path d="M65.7 65c-.4 0-.7.3-.7.7v11.2c0 4.5-3.6 8.1-8.1 8.1H9.5c-4.5 0-8.1-3.6-8.1-8.1V9.5C1.4 5 5 1.4 9.5 1.4h32.4c-.6.7-.9 1.6-.9 2.5v15.7c.1 2.1 1.8 3.8 4 3.7h20v.3c0 .4.2.7.6.8.4 0 .7-.2.8-.6V22.6v-.2c-.1-.4-.3-.8-.6-1.1L45.4.6c-.4-.4-1-.6-1.5-.6H9.5C4.2 0 0 4.2 0 9.5v67.4c0 5.2 4.2 9.5 9.5 9.5h47.4c5.2 0 9.5-4.2 9.5-9.5V65.7c0-.4-.3-.7-.7-.7zm-1.2-43H45c-1.4.1-2.5-1-2.6-2.4V3.9c-.1-1.2.7-2.2 1.8-2.4h.2s.1 0 .1.1l20 20.4z"/><path d="M43.7 58h-33c-.4 0-.6.4-.6.8 0 .3.3.6.6.6h33c.4 0 .7-.2.8-.6s-.3-.8-.7-.8h-.1zm13.6-11.3c0-.4-.3-.7-.7-.7h-46c-.4 0-.6.4-.6.8 0 .3.3.6.6.6h46c.4 0 .7-.3.7-.7.1 0 .1 0 0 0zM56.7 34h-46c-.4 0-.6.4-.6.8 0 .3.3.6.6.6h46c.4 0 .7-.2.8-.6s-.3-.8-.7-.8h-.1zm-46 36c-.4 0-.6.4-.6.8 0 .3.3.6.6.6h15c.4 0 .7-.2.8-.6 0-.4-.2-.7-.6-.8H10.7zm33 0h-14c-.4 0-.6.4-.6.8 0 .3.3.6.6.6h14c.4 0 .7-.2.8-.6 0-.4-.2-.7-.6-.8h-.2zM32.3 22.7c0-.4-.3-.7-.7-.7h-22c-.4 0-.6.4-.6.8 0 .3.3.6.6.6h22c.4 0 .7-.3.7-.7.1 0 .1 0 0 0zM81.5 37c-.8-.8-1.9-1.2-3-1.2-.9 0-1.8.3-2.6.9-.7 0-1.5.2-2 .8L49.7 61.6c-.3.3-.6.7-.7 1.2-.1.1-.1.1-.1.2l-2.1 8c-.1.2 0 .5.2.7.1.1.3.2.5.2h.2l3.8-1c.4-.1.5-.5.4-.9-.1-.3-.4-.5-.7-.4l-2.7.7 1.2-4.8 3.5 3.5c.5.5 1.2.8 1.9.8s1.4-.3 2-.8l24.2-24.2c.6-.6.9-1.4.8-2.3 1.1-1.7.9-4-.6-5.5zm-3 .1c.8 0 1.5.3 2.1.8.7.7 1 1.8.8 2.8l-3.6-3.5c.1 0 .4-.1.7-.1zm1.7 6.7L56 68c-.5.5-1.4.5-1.9 0l-3.5-3.5c-.3-.2-.4-.6-.4-1s.1-.7.4-1l24.2-24.1c.5-.5 1.4-.5 1.9 0l3.5 3.5c.5.5.5 1.4 0 1.9z"/><path d="M76.2 41.4L54.1 63.5c-.3.3-.3.7 0 1 .3.3.7.3 1 0l22.1-22.1c.3-.3.3-.7 0-1-.3-.2-.7-.2-1 0z"/></g></svg>
