<svg xmlns="http://www.w3.org/2000/svg" viewBox="0 0 27 22">
  <title>Hollow right arrow icon - white</title>
  <path fill="#fff" d="M7.3 8.7h11.5l-5.1-5.1c-.3-.3-.5-.7-.5-1.2 0-.4.2-.9.5-1.2l.8-.8c.3-.2.8-.4 1.2-.4.4 0 .9.2 1.2.5l9.3 9.3c.3.3.5.7.5 1.2 0 .4-.2.9-.5 1.2l-9.3 9.3c-.3.3-.7.5-1.2.5-.4 0-.9-.2-1.2-.5l-.8-.8c-.3-.3-.5-.7-.5-1.2 0-.4.2-.9.5-1.2l5-5.1H2c-.9 0-1.7-.8-1.7-1.7v-1.1c0-.9.8-1.7 1.7-1.7h5.3m-.1.5H2c-.7 0-1.2.6-1.2 1.2v1.1c0 .7.5 1.2 1.2 1.2h17.9l-5.9 6c-.2.2-.3.5-.3.8 0 .3.1.6.3.8l.8.8c.2.2.5.3.8.3.3 0 .6-.1.8-.3l9.3-9.3c.2-.2.3-.5.3-.8 0-.3-.1-.6-.3-.8L16.4.9c-.2-.2-.5-.3-.8-.3-.3 0-.6.1-.8.3l-.8.8c-.2.2-.3.5-.3.8 0 .3.1.6.3.8l5.9 5.9H7.2"/>
</svg>