<svg class="icon icon-high-standards-star" role="presentation" aria-labelledby="icon-high-standards-star-title icon-high-standards-star-desc" xmlns="http://www.w3.org/2000/svg" width="69.9" height="90.3" viewBox="0 0 69.9 90.3"><title id="icon-high-standards-star-title">High Standards Star</title><description id="icon-high-standards-star-desc">A ribbon award with a star on it.</description><g fill="#012635"><path d="M34.3 41.3c9.5 0 17.2-7.6 17.2-17.1 0-3.2-.9-6.3-2.5-9-.2-.3-.6-.5-.9-.3 0 0-.1 0-.1.1-.3.2-.4.6-.2.9 4.5 7.5 2.1 17.2-5.3 21.7s-17.2 2.1-21.7-5.3-2.1-17.2 5.3-21.7c5.3-3.2 11.9-3 17 .4.3.2.7.1.9-.2.2-.3.1-.7-.2-.9C36 4.6 25.3 6.7 20 14.5S16.8 33 24.6 38.4c2.9 1.9 6.2 2.9 9.7 2.9z"/><path d="M69.8 80.7L52.3 46c-.2-.3-.6-.5-.9-.3-.3.2-.5.6-.3.9l16.5 32.7-13.4-7.8c-.3-.2-.7-.1-.9.3 0 .1-.1.2-.1.3l-.8 14.8-17.5-38.6c13.4-.3 23.9-11.5 23.6-24.8S47-.4 33.6 0 9.7 11.5 10.1 24.8c.2 5.8 2.4 11.4 6.3 15.6 0 0 0 .1-.1.1L0 83.7c-.1.3 0 .6.2.8.3.2.6.1.8-.1l12.3-11 4.3 16.2c.1.3.3.5.6.5s.6-.2.6-.5l12.2-37c.1-.3-.1-.7-.4-.9-.4-.1-.7.1-.9.4l-11.3 35-4-15c-.1-.2-.2-.4-.5-.5-.2-.1-.5 0-.6.2l-11 9.9 15.1-40.1c4.3 4.2 10 6.6 16 6.8L52.2 90c.1.2.3.4.6.4h.2c.3-.1.5-.3.5-.6l.9-16.4 14.4 8.4c.3.1.6.1.8-.1.3-.4.4-.7.2-1zM11.4 24.2c0-12.6 10.2-22.8 22.8-22.8S57 11.6 57 24.2 46.9 47 34.3 47h-.1c-.1-.1-.3-.1-.5 0-12.4-.3-22.2-10.5-22.3-22.8z"/><path d="M38 18.9l-3.8-7.6-3.7 7.6-8.4 1.2 6.1 5.9-1.5 8.4 7.5-4 7.5 4-1.4-8.4 6.1-5.9-8.4-1.2zm2.5 13.8l-6.2-3.3-6.3 3.3 1.2-6.9-5-4.9 7-1 3.1-6.3 3.1 6.3 7 1-5 4.9 1.1 6.9z"/></g></svg>
