<svg xmlns="http://www.w3.org/2000/svg" width="50.3" height="71.3" aria-labelledby="icon-government-title icon-government-desc" class="icon icon-government" role="presentation" viewBox="0 0 50.3 71.3"><title id="icon-government-title">Government</title><description id="icon-government-desc">A capitol building.</description><g fill="#012635"><path d="M6.7 51c-.4 0-.7.3-.7.7v14c0 .4.2.7.6.8.4 0 .7-.2.8-.6V51.7c0-.4-.3-.7-.7-.7zm8 0c-.4 0-.7.3-.7.7v14c0 .4.2.7.6.8s.7-.2.8-.6V51.7c0-.4-.3-.7-.7-.7zm7 0c-.4 0-.7.3-.7.7v14c0 .4.2.7.6.8.4 0 .7-.2.8-.6V51.7c0-.4-.3-.7-.7-.7zm7 0c-.4 0-.7.3-.7.7v14c0 .4.2.7.6.8.4 0 .7-.2.8-.6V51.7c0-.4-.3-.7-.7-.7zm8 0c-.4 0-.7.3-.7.7v14c0 .4.2.7.6.8s.7-.2.8-.6V51.7c0-.4-.3-.7-.7-.7zm7 0c-.4 0-.7.3-.7.7v14c0 .4.2.7.6.8s.7-.2.8-.6V51.7c0-.4-.3-.7-.7-.7zM7.3 27.4h36.2c.4 0 .7-.3.7-.7 0-10.1-8.1-17.8-18.8-17.8V7.3h10.3c.4 0 .7-.3.7-.7v-6c0-.4-.3-.7-.7-.7h-11c-.4.1-.7.4-.7.8V9C14 9.6 6.6 17 6.6 26.7c0 .3.3.6.7.7 0-.1 0 0 0 0zm18.1-26H35V6h-9.6V1.4zm-.9 9h.2c.1 0 .2 0 .3-.1h.4c9.6 0 17 6.7 17.4 15.7H8c.3-8.7 7.2-15.3 16.5-15.6z"/><path d="M47.7 46h-7.3V32.7c0-.1 0-.2-.1-.3h2.4c.4 0 .7-.2.8-.6 0-.4-.2-.7-.6-.8H7.7c-.4 0-.6.4-.6.8 0 .3.3.6.6.6h2.4c-.1 0-.1.2-.1.3V46H2.7C1.2 46 0 47.2 0 48.7v20c0 1.5 1.2 2.7 2.7 2.7h45c1.5 0 2.7-1.2 2.7-2.7v-20c-.1-1.5-1.3-2.7-2.7-2.7zM39 32.7V46h-5.7V32.7c0-.1 0-.2-.1-.3H39v.3zM26.4 46V32.7c0-.1 0-.2-.1-.3h5.8c-.1 0-.1.2-.1.3V46h-5.6zm-8 0V32.7c0-.1 0-.2-.1-.3h6.8c-.1 0-.1.2-.1.3V46h-6.6zm-7.2-13.7H17V46h-5.6V32.7c-.1-.1-.1-.3-.2-.4zM49 68.7c0 .7-.6 1.3-1.3 1.3h-45c-.7 0-1.3-.6-1.3-1.3v-20c0-.7.6-1.3 1.3-1.3h45c.7 0 1.3.6 1.3 1.3v20z"/></g></svg>