<svg class="icon icon-open-source" role="presentation" aria-labelledby="icon-open-source-title icon-open-source-desc" xmlns="http://www.w3.org/2000/svg" width="81.4" height="65.8" viewBox="0 0 81.4 65.8"><title id="icon-open-source-id">Open Source</title><description id="icon-open-source-desc">A light bulb icon.</description><path fill="#012635" d="M25.2 39.4H9.6c-.4 0-.7.3-.7.7 0 .4.3.7.7.7h15.7c.4 0 .7-.3.7-.7-.1-.4-.4-.7-.8-.7.1 0 .1 0 0 0zm46.2 0H55.7c-.4 0-.7.3-.7.7 0 .4.3.7.7.7h15.7c.4 0 .7-.3.7-.7 0-.4-.3-.7-.7-.7zM39.6 10v15.7c0 .4.3.7.7.7.4 0 .7-.3.7-.7V10c0-.4-.3-.7-.7-.7-.4 0-.7.3-.7.7zm23 7.7c-.3-.3-.7-.3-1 0l-11 11.1c-.3.2-.3.7-.1.9l.1.1c.3.3.7.3 1 0l11.1-11.1c.2-.3.2-.8-.1-1zm-32.5 12c.3-.2.3-.7.1-.9l-.1-.1-11.1-11c-.3-.3-.7-.3-1 0s-.3.7 0 1l11.1 11c.3.3.7.3 1 0zM3.7 36.4c-2 0-3.7 1.6-3.7 3.7 0 2 1.6 3.7 3.7 3.7s3.7-1.6 3.7-3.7-1.7-3.7-3.7-3.7zm0 6c-1.3 0-2.3-1-2.3-2.3 0-1.3 1-2.3 2.3-2.3s2.3 1 2.3 2.3-1 2.3-2.3 2.3zm74-6c-2 0-3.7 1.6-3.7 3.7 0 2 1.6 3.7 3.7 3.7 2 0 3.7-1.6 3.7-3.7s-1.6-3.7-3.7-3.7zm0 6c-1.3 0-2.3-1-2.3-2.3 0-1.3 1-2.3 2.3-2.3 1.3 0 2.3 1 2.3 2.3s-1 2.3-2.3 2.3zM40.2 7.3c2 0 3.7-1.6 3.7-3.7S42.3 0 40.2 0c-2 0-3.7 1.6-3.7 3.7s1.7 3.6 3.7 3.6zm0-6c1.3 0 2.3 1 2.3 2.3 0 1.3-1 2.3-2.3 2.3s-2.3-1-2.3-2.3c0-1.2 1-2.3 2.3-2.3zM14 17.5c2 0 3.7-1.6 3.7-3.7 0-2-1.6-3.7-3.7-3.7s-3.7 1.6-3.7 3.7 1.7 3.7 3.7 3.7zm0-6c1.3 0 2.3 1 2.3 2.3 0 1.3-1 2.3-2.3 2.3-1.3 0-2.3-1-2.3-2.3 0-1.3 1-2.3 2.3-2.3zm52.1 6c2 0 3.7-1.6 3.7-3.7s-1.6-3.7-3.7-3.7c-2 0-3.7 1.6-3.7 3.7s1.6 3.7 3.7 3.7zm0-6c1.3 0 2.3 1 2.3 2.3 0 1.3-1 2.3-2.3 2.3-1.3 0-2.3-1-2.3-2.3s1-2.3 2.3-2.3zM40.2 29.8c-5.9 0-10.7 4.8-10.8 10.8.1 2.6.9 5.1 2.5 7.1.4.6.8 1.1 1.2 1.6 1.2 1.4 1.9 3.2 2.1 5 .1.4.4.6.8.6.3-.1.6-.3.6-.7-.3-2.1-1.1-4.1-2.5-5.8l-1.2-1.5c-1.4-1.8-2.1-4-2.2-6.3 0-5.2 4.2-9.4 9.4-9.4s9.4 4.2 9.4 9.4c-.3 4-1.8 5.9-2.8 7-1.4 1.8-2.3 4-2.6 6.2L35.8 56c-.4.1-.6.4-.5.8.1.3.3.5.7.5h.2l4.5-1.2c4.9-1.3 5.1-1.3 5-1.9.2-2.1 1-4.1 2.2-5.8 1.1-1.3 2.7-3.4 3.1-7.9 0-5.9-4.8-10.7-10.8-10.7zm4.5 27.4l-.2-.7-9 2.4c-.3.1-.5.5-.5.9.1.3.3.5.7.5h.2l4.5-1.2c5.1-1.3 5.1-1.3 5-1.9h-.7zm-2.9 6.7c-1.4 1.1-3 0-3.1 0-.3-.2-.7-.1-.9.2-.2.3-.1.7.2.9.7.5 1.6.8 2.5.8.8 0 1.6-.3 2.3-.8.3-.2.4-.7.1-1-.4-.3-.8-.3-1.1-.1zm2.9-3.7l-.2-.7-9 2.4c-.3.1-.5.5-.5.9.1.3.3.5.7.5h.2l4.5-1.2c5.1-1.3 5.1-1.3 5-1.9h-.7z"/></svg>
