<svg class="icon icon-non-profit" role="presentation" aria-labelledby="icon-non-profit-title icon-non-profit-desc" xmlns="http://www.w3.org/2000/svg" width="75.3" height="74.9" viewBox="0 0 75.3 74.9"><title id="icon-non-profit-title">Non-Profit</title><description id="icon-non-profit-desc">Icon of hands holding a heart.</description><g fill="#012635"><path d="M51.6 8.4c.6.8 1 1.7 1.1 2.6 0 .4.4.6.8.6.3 0 .6-.3.6-.6-.1-1.2-.6-2.4-1.4-3.4-1.4-2-4.4-2-4.5-2-.4 0-.7.3-.7.7 0 .4.3.7.7.7-.1 0 2.4-.1 3.4 1.4z"/><path d="M54.2 26.3c1.5-2.3 6.4-10.4 4.5-17.5-.8-3.2-3.1-5.9-6.1-7.4C49.5-.2 46-.4 42.7.8c-3.8 1.3-7 4.1-8.8 7.7-.2.3 0 .7.3.9.3.2.7 0 .9-.3 1.6-3.3 4.5-5.8 8-7 2.9-1 6.1-.8 8.8.5 2.7 1.3 4.6 3.7 5.4 6.5 1.7 6.6-2.9 14.3-4.4 16.5C49.5 31.7 39 39.5 37.6 40c-.2-.1-1.4-.5-5.2-3.8l-1.2-1c-7.8-6.6-15.8-13.4-13.3-24.4 1.1-4.7 4.3-8.2 8.3-9.2 2.5-.7 5.2-.1 7.3 1.6.3.3.7.2 1 0s.2-.7 0-1C32.2.2 29-.5 26 .3c-4.5 1.1-8 5-9.2 10.2-2.7 11.8 6 19.2 13.7 25.7l1.2 1c4.9 4.2 5.8 4.2 6.1 4.2 1.2 0 12.7-8.8 16.4-15.1zm3.9 16.6l-.7.7c-.6.6-1.2 1.2-1.9 1.8-2.3 2.2-5 4.8-6.4 7.6-1.3 2.6-1 6.1-.8 9 0 .5.1 1 .1 1.5 0 .4.3.6.7.6.4 0 .7-.3.6-.7 0-.5-.1-1-.1-1.5-.2-2.7-.5-6.1.6-8.3 1.3-2.6 3.8-5 6.1-7.2.7-.6 1.3-1.3 1.9-1.9l.7-.7c.7-.8 1.6-1.6 2.5-2.3 1-.8 2.3-.9 3.4-.3.9.7 1.4 1.9 1.1 3-.3 2.3-3.1 4.6-5.3 6.5-.7.6-1.3 1.1-1.8 1.6-.3.3-.3.7 0 1s.7.3 1 0c.5-.5 1.1-1 1.8-1.5 2.4-2 5.4-4.6 5.8-7.3.4-1.7-.3-3.4-1.7-4.4-1.6-.8-3.5-.7-4.9.4-1 .6-1.9 1.4-2.7 2.4z"/><path d="M75.1 33.2V29.8c0-1.1.1-2.3 0-3.4-.1-1.7-1.2-3.3-2.8-3.9-1.6-.7-3.5-.3-4.8.9-1.8 1.6-1.8 4.2-1.8 6.3v7.1c0 .4.4.6.8.6.3 0 .6-.3.6-.6-.1-2.4-.1-4.3 0-6.2v-.9c0-1.9 0-4.1 1.3-5.3.9-.8 2.2-1.1 3.4-.6 1.1.5 1.9 1.5 2 2.7.1 1.1 0 2.2 0 3.3v3.5c.1 3.3.4 12.1 0 13.7-.7 2.7-3.4 5.5-5.2 7.3-.8.8-1.7 1.7-2.6 2.5-1.7 1.6-3.4 3.2-4.8 5.1-.2.3-.2.7.1.9s.7.2.9-.1c1.4-1.8 3-3.4 4.7-4.9.9-.8 1.8-1.6 2.6-2.5 1.9-2 4.8-4.9 5.6-8 .3-1.7.2-8.1 0-14.1zm-7.4 33.3h-21c-.4 0-.7.3-.7.7v7c0 .4.4.6.8.6.3 0 .6-.3.6-.6v-6.3H67v6.3c0 .4.4.6.8.6.3 0 .6-.3.6-.6v-7c0-.4-.4-.7-.7-.7zM7.9 44.3c.4 2.8 3.3 5.3 5.7 7.3.7.6 1.3 1.1 1.8 1.5.3.3.7.3 1 0 .3-.3.3-.7 0-1-.5-.5-1.1-1-1.8-1.6-2.2-1.9-5-4.2-5.3-6.5-.3-1.1.2-2.3 1.1-3 1.1-.6 2.4-.4 3.4.3.9.7 1.7 1.4 2.5 2.3l.7.7 1.9 1.9c2.3 2.2 4.8 4.6 6.1 7.2 1.1 2.2.9 5.6.6 8.3 0 .5-.1 1-.1 1.5 0 .4.3.7.6.7.4 0 .6-.3.7-.6 0-.5.1-1 .1-1.5.2-2.9.5-6.5-.8-9-1.4-2.8-4-5.3-6.4-7.6-.6-.6-1.3-1.2-1.9-1.8l-.7-.7c-.8-.9-1.7-1.7-2.7-2.5-1.4-1.1-3.3-1.2-4.9-.4-1.3 1.2-2 2.9-1.6 4.5z"/><path d="M13.1 62.6c.1.2.3.3.5.3.1 0 .3 0 .4-.1.3-.2.4-.6.1-.9-1.5-1.8-3.1-3.5-4.8-5.1-.8-.8-1.7-1.6-2.6-2.5-1.8-1.8-4.5-4.6-5.2-7.3-.4-1.6-.1-10.4 0-13.7V29.9c0-1.1-.1-2.2 0-3.3.1-1.2.9-2.3 2-2.7 1.2-.5 2.5-.3 3.4.6 1.3 1.2 1.3 3.4 1.3 5.3v.9c0 1.8 0 3.8-.1 6.2 0 .4.3.7.7.7.4 0 .7-.3.7-.6.1-2.4.1-4.4.1-6.2v-.9c0-2.1 0-4.8-1.8-6.3-1.3-1.2-3.1-1.5-4.8-.9-1.6.6-2.7 2.2-2.9 3.9-.1 1.1 0 2.3 0 3.4 0 .9.1 1.7 0 2.6v.8c-.3 6.1-.4 12.5 0 14 .8 3.1 3.7 6 5.6 8 .8.9 1.7 1.7 2.6 2.5 1.8 1.3 3.4 3 4.8 4.7zm15.5 3.9h-21c-.4 0-.7.3-.7.7v7c0 .4.4.6.8.6.3 0 .6-.3.6-.6v-6.3H28v6.3c0 .4.4.6.8.6.3 0 .6-.3.6-.6v-7c0-.4-.4-.7-.8-.7.1 0 .1 0 0 0z"/></g></svg>
