<svg class="icon icon-media-entertainment" role="presentation" aria-labelledby="icon-media-entertainment-title icon-media-entertainment-desc" xmlns="http://www.w3.org/2000/svg" width="66.6" height="73.9" viewBox="0 0 66.6 73.9"><title id="icon-media-entertainment-title">Media Entertainment</title><description id="icon-media-entertainment-desc">Game controller icon.</description><g fill="#012635"><path d="M31.7 46.7c0-.8-.6-1.4-1.4-1.4s-1.3.6-1.3 1.4c0 .8.6 1.4 1.4 1.4.7 0 1.3-.7 1.3-1.4zm5.7 0c0-.8-.6-1.4-1.4-1.4s-1.4.6-1.4 1.4c0 .8.6 1.4 1.4 1.4.8 0 1.4-.6 1.4-1.4zm14.4-19.5c-.8 0-1.4.6-1.4 1.4S51 30 51.8 30c.8 0 1.4-.6 1.4-1.4 0-.8-.6-1.4-1.4-1.4zm0 10c-.8 0-1.4.6-1.4 1.4S51 40 51.8 40c.8 0 1.4-.6 1.4-1.4 0-.8-.6-1.4-1.4-1.4zm5-5c-.8 0-1.4.6-1.4 1.4S56 35 56.8 35c.8 0 1.4-.6 1.4-1.4 0-.8-.6-1.4-1.4-1.4zm-10 0c-.8 0-1.4.6-1.4 1.4S46 35 46.8 35c.8 0 1.4-.6 1.4-1.4 0-.8-.6-1.4-1.4-1.4zm-26.4.8h-5.3v-5.3c0-.4-.4-.6-.8-.6-.3 0-.6.3-.6.6V33H8.4c-.4 0-.7.2-.8.6 0 .4.2.7.6.8h5.5v5.3c0 .4.2.7.6.8.4 0 .7-.2.8-.6v-5.5h5.3c.4 0 .6-.4.6-.8 0-.3-.3-.6-.6-.6zm2 17c-2.6 0-4.7 2.1-4.7 4.7s2.1 4.7 4.7 4.7 4.7-2.1 4.7-4.7S25 50 22.4 50zm0 8c-1.8 0-3.3-1.5-3.3-3.3 0-1.8 1.5-3.3 3.3-3.3s3.3 1.5 3.3 3.3c.1 1.8-1.4 3.3-3.3 3.3zm22-8c-2.6 0-4.7 2.1-4.7 4.7s2.1 4.7 4.7 4.7 4.7-2.1 4.7-4.7S47 50 44.4 50zm0 8c-1.8 0-3.3-1.5-3.3-3.3s1.5-3.3 3.3-3.3 3.3 1.5 3.3 3.3c.1 1.8-1.4 3.3-3.3 3.3z"/><path d="M63.8 40c3.3-6.5.7-14.4-5.8-17.7-4.7-2.4-10.4-1.7-14.5 1.7h-9.4v-4.1c0-.5-.2-.9-.5-1.2-.6-.5-1.4-.7-2.2-.6h-3.5c-.5 0-1-.2-1.3-.5-.4-.5-.7-1.1-.6-1.8 0-.6.2-1.3.6-1.7.4-.4 1-.6 1.6-.6h16.2c1.9-.1 3.5-1.7 3.4-3.6.1-1.9-1.3-3.5-3.2-3.7H36.3c-.9 0-1.7-.2-2.4-.7-.4-.4-.7-1-.7-1.6v-3c0-.4-.4-.6-.8-.6-.3 0-.6.3-.6.6v3c.1.9.5 1.8 1.1 2.5 1 .7 2.1 1.1 3.3 1.1h8.2c1.2.1 2.1 1 2 2.2v.1c.1 1.2-.8 2.3-2 2.4H28.2c-.9 0-1.9.3-2.6.9-.7.7-1.1 1.7-1 2.7-.1 1 .3 2 1 2.8.6.6 1.4.9 2.3.9h3.5c.4 0 .9.1 1.2.3.1.1.1.2.1.2v4h-9.4c-5.6-4.6-13.9-3.8-18.5 1.8C1.6 29.6.9 35 2.9 39.5v.1C1.6 50.2.1 63.6 0 67.3c-.1 2.7 1.5 5.2 4.1 6.1.9.4 1.9.5 2.8.5 1.8.1 3.5-.6 4.7-1.9 2.6-3.4 4.9-6.9 7.1-10.6.2-.3 0-.7-.3-.9-.3-.1-.6-.1-.8.2-2.1 3.6-4.5 7.1-7 10.4-1.2 1.4-3.8 1.8-6 1-2-.7-3.3-2.7-3.2-4.8 0-3.5 1.4-15.6 2.6-25.8 4.1 6 12.2 7.6 18.3 3.6s7.6-12.2 3.6-18.3c-.4-.5-.7-1-1.2-1.5h17.5c-4.9 5.4-4.6 13.7.8 18.6s13.7 4.5 18.6-.8c.4-.4.7-.8 1-1.3 1.2 10 2.5 22 2.6 25.5.1 2.1-1.2 4.1-3.2 4.8-2.2.8-4.8.4-6-1-2.5-3.3-4.9-6.8-7-10.4-.2-.3-.6-.4-.9-.2-.3.2-.4.6-.2.9C50.1 65 52.4 68.6 55 72c1.2 1.3 2.9 1.9 4.7 1.9 1 0 1.9-.2 2.8-.5 2.5-.9 4.2-3.4 4-6.1 0-3.8-1.5-17-2.7-27.3zm-48.9 6C8.4 46 3.1 40.7 3.1 34.2s5.3-11.8 11.8-11.8c6.5 0 11.8 5.3 11.8 11.8.1 6.5-5.2 11.8-11.8 11.8zm37 0c-6.5 0-11.8-5.3-11.8-11.8s5.3-11.8 11.8-11.8c6.5 0 11.8 5.3 11.8 11.8.1 6.5-5.2 11.8-11.8 11.8z"/><path d="M37.4 54h-8c-.4 0-.7.2-.8.6 0 .4.2.7.6.8h8.2c.4 0 .6-.4.6-.8 0-.3-.3-.6-.6-.6z"/></g></svg>
