<svg class="icon icon-html-prototypes" role="presentation" aria-labelledby="icon-html-prototypes-title icon-html-prototypes-desc" xmlns="http://www.w3.org/2000/svg" width="48" height="82.5" viewBox="0 0 48 82.5"><title id="icon-html-prototypes-title">Prototypes</title><description id="icon-html-prototypes-desc">Abstract icon depitcing iterations of a prototype.</description><g fill="#012635"><path d="M2.9 36h4.8c.4 0 .7-.3.7-.7 0-.4-.3-.7-.7-.7H2.9c-.9 0-1.6-.7-1.6-1.6V2.9c0-.9.7-1.6 1.6-1.6h16c.9 0 1.6.7 1.6 1.6v11.6c0 .4.4.6.8.6.3 0 .6-.3.6-.6V2.9C21.9 1.3 20.6 0 19 0H3C1.3 0 0 1.3 0 2.9V33c0 1.7 1.3 3 2.9 3zm18.3-15.2c-.4 0-.7.3-.7.7V33c0 .9-.7 1.6-1.6 1.6H14c-.4 0-.7.3-.7.7 0 .4.3.7.7.7h4.9c1.6 0 2.9-1.4 2.9-3V21.5c.1-.4-.2-.7-.6-.7zM27.5 33v-7.3c0-.4-.4-.6-.8-.6-.3 0-.6.3-.6.6V33c0 1.6 1.3 3 2.9 3h4.7c.4 0 .7-.3.7-.7 0-.4-.3-.7-.7-.7H29c-.8.1-1.5-.6-1.5-1.6 0 .1 0 .1 0 0zM45.1 0h-16c-1.6 0-2.9 1.3-2.9 2.9v7.4c0 .4.2.7.6.8.4 0 .7-.2.8-.6V2.9c0-.9.7-1.6 1.6-1.6h16c.9 0 1.6.7 1.6 1.6V33c0 .9-.7 1.6-1.6 1.6h-5.4c-.4 0-.7.3-.7.7 0 .4.3.7.7.7h5.4c1.6 0 2.9-1.4 2.9-3V2.9C48 1.3 46.7 0 45.1 0zM18.9 46.5H14c-.4 0-.6.4-.6.8 0 .3.3.6.6.6h4.9c.9 0 1.6.7 1.6 1.6v30.1c0 .9-.7 1.6-1.6 1.6h-16c-.9 0-1.6-.7-1.6-1.6V49.5c0-.9.7-1.6 1.6-1.6h4.8c.4 0 .6-.4.6-.8 0-.3-.3-.6-.6-.6H2.9c-1.6 0-2.9 1.3-2.9 2.9v30.1c0 1.6 1.3 2.9 2.9 2.9h16c1.6 0 2.9-1.3 2.9-2.9v-30c.1-1.6-1.2-2.9-2.9-3zm26.2 0h-4.9c-.4 0-.6.4-.6.8 0 .3.3.6.6.6h4.9c.9 0 1.6.7 1.6 1.6v30.1c0 .9-.7 1.6-1.6 1.6h-16c-.9 0-1.6-.7-1.6-1.6V49.5c0-.9.7-1.6 1.6-1.6h4.8c.4 0 .6-.4.6-.8 0-.3-.3-.6-.6-.6h-4.8c-1.6 0-2.9 1.3-2.9 2.9v30.1c0 1.6 1.3 2.9 2.9 2.9h16c1.6 0 2.9-1.3 2.9-2.9v-30c0-1.6-1.3-2.9-2.9-3z"/><path d="M30.3 18c0-.2 0-.4-.2-.6l-4.6-4.6c-.3-.3-.7-.3-1 0-.3.3-.3.7 0 1l3.6 3.6H15c-.4-2.2-2.5-3.7-4.7-3.3-2.2.4-3.7 2.5-3.3 4.7.3 1.7 1.6 3 3.3 3.3v33.5l-3.6-3.5c-.2-.3-.7-.3-.9-.1l-.1.1c-.3.3-.3.7 0 1l4.7 4.6c.1.1.3.2.5.2h.2c.2 0 .4-.1.5-.2l4.6-4.6c.3-.3.3-.7 0-1-.3-.3-.7-.3-1 0l-3.6 3.6V22.1c1.8-.3 3.1-1.6 3.4-3.4h13.1l-3.5 3.6c-.3.3-.3.7 0 1 .1.1.3.2.5.2s.4-.1.5-.2l4.6-4.7c.1-.1.2-.3.1-.6zM11 20.9c-1.5 0-2.7-1.2-2.7-2.7 0-1.5 1.2-2.7 2.7-2.7s2.7 1.2 2.7 2.7c0 1.4-1.2 2.7-2.7 2.7zm4.1 43.8c0-2.3-1.8-4.1-4.1-4.1s-4.1 1.8-4.1 4.1 1.8 4.1 4.1 4.1c2.2-.1 4.1-1.9 4.1-4.1zm-6.8 0c0-1.5 1.2-2.7 2.7-2.7 1.5 0 2.7 1.2 2.7 2.7 0 1.5-1.2 2.7-2.7 2.7-1.5 0-2.7-1.2-2.7-2.7zm24.8 0c0 2.3 1.8 4.1 4.1 4.1s4.1-1.8 4.1-4.1-1.8-4.1-4.1-4.1c-2.2 0-4.1 1.8-4.1 4.1zm6.8 0c0 1.5-1.2 2.8-2.7 2.8-1.5 0-2.8-1.2-2.8-2.7s1.2-2.8 2.7-2.8c1.6 0 2.8 1.2 2.8 2.7zm2.5-12.6c-.3-.3-.7-.3-.9 0l-3.6 3.6V22.1c2.2-.4 3.7-2.5 3.3-4.7s-2.5-3.7-4.7-3.3c-2.2.4-3.7 2.5-3.3 4.7.3 1.7 1.6 3.1 3.3 3.3v33.5L33 52.1c-.3-.3-.7-.3-1 0s-.3.7 0 1l4.7 4.6c.1.1.3.2.5.2h.2c.2 0 .4-.1.5-.2l4.6-4.6c.2-.3.2-.7-.1-1zm-7.9-34c0-1.5 1.2-2.7 2.7-2.7 1.5 0 2.7 1.2 2.7 2.7 0 1.5-1.2 2.7-2.7 2.7-1.5 0-2.7-1.2-2.7-2.7z"/></g></svg>
