<svg class="icon icon-annotated-wireframes" role="presentation" aria-labelledby="icon-annotated-wireframes-title icon-annotated-wireframes-desc" xmlns="http://www.w3.org/2000/svg" width="87.3" height="62.5" viewBox="0 0 87.3 62.5"><title id="icon-annotated-wireframes-title">Annotated Wireframes</title><description id="icon-annotated-wireframes-desc">An icon depicting an annotated wireframe of a webpage.</description><g fill="#012635"><path d="M41 47.1H29.5c-.4 0-.7.3-.7.7 0 .4.3.7.7.7H41c.4 0 .7-.3.7-.7 0-.4-.3-.7-.7-.7zm.7 4.8c0-.4-.3-.7-.7-.7H29.5c-.4 0-.7.2-.8.6 0 .4.2.7.6.8H41c.4 0 .7-.3.7-.7 0 .1 0 0 0 0zm-12.2 3.5c-.4 0-.7.3-.7.7 0 .4.3.7.7.7h6.6c.4 0 .7-.3.7-.7 0-.4-.3-.7-.7-.7h-6.6zm-20-33.2c.4 0 .7-.3.7-.7V8.9h66.9v6.7c0 .4.2.7.6.8.4 0 .7-.2.8-.6V.7c0-.4-.3-.7-.7-.7H9.5c-.4 0-.7.3-.7.7v20.8c0 .4.3.7.7.7zM77.1 7.6H30.7V1.4H77v6.2zM29.4 1.4v6.2H10.1V1.4h19.3zM13.2 61.2h-3V44.9c0-.4-.3-.7-.7-.7-.4 0-.7.3-.7.7v17c0 .4.3.7.7.7h3.7c.4 0 .6-.4.6-.8-.1-.3-.3-.6-.6-.6z"/><path d="M77.7 38.5c-.4 0-.7.3-.7.7v22H17.8c-.4 0-.7.2-.8.6 0 .4.2.7.6.8h60.2c.4 0 .7-.3.7-.7V39.2c0-.4-.3-.7-.8-.7.1 0 0 0 0 0zM26.3 55.7v-7.6c0-1.5-1.2-2.7-2.7-2.7H16c-1.5 0-2.7 1.2-2.7 2.7v7.6c0 1.5 1.2 2.7 2.7 2.7h7.6c1.5 0 2.7-1.2 2.7-2.7zm-11.6 0v-7.6c0-.7.6-1.3 1.3-1.3h7.6c.7 0 1.3.6 1.3 1.3v7.6c0 .7-.6 1.3-1.3 1.3H16c-.7 0-1.3-.6-1.3-1.3zm58.6-39.5c.4 0 .7-.3.7-.7v-.9c0-1.4-1.1-2.5-2.5-2.5H15.9c-1.4 0-2.5 1.1-2.5 2.5v5.7c0 1.4 1.1 2.5 2.5 2.5H61c.4 0 .6-.4.6-.8 0-.3-.3-.6-.6-.6H15.9c-.7 0-1.2-.5-1.2-1.2v-5.7c0-.7.5-1.2 1.2-1.2h55.6c.7 0 1.2.5 1.2 1.2v.9c-.1.5.2.8.6.8z"/><path d="M72.7 47.1H61.2c-.4 0-.7.3-.7.7 0 .4.3.7.7.7h11.5c.4 0 .7-.3.7-.7 0-.4-.3-.7-.7-.7zm.7 4.8c0-.4-.3-.7-.7-.7H61.2c-.4 0-.7.2-.8.6s.2.7.6.8h11.7c.4 0 .7-.3.7-.7zm-12.2 3.5c-.4 0-.7.3-.7.7 0 .4.3.7.7.7h6.6c.4 0 .7-.3.7-.7 0-.4-.3-.7-.7-.7h-6.6zm-13.5-9.9c-1.5 0-2.7 1.2-2.7 2.6v7.6c0 1.5 1.2 2.7 2.7 2.7h7.6c1.5 0 2.7-1.1 2.7-2.6V48.1c0-1.5-1.2-2.7-2.7-2.7h-7.6zm8.9 2.6v7.6c0 .7-.6 1.3-1.3 1.3h-7.6c-.7 0-1.3-.6-1.3-1.3v-7.6c0-.7.6-1.3 1.3-1.3h7.6c.7 0 1.3.6 1.3 1.3zm-41.5-3.8c.1.1.3.2.5.2h.3c.3-.1.4-.3.4-.6v-3.1h5.8c.4 0 .7-.3.7-.7V25.2c0-.4-.3-.7-.7-.7H.7c-.4 0-.7.3-.7.7v14.9c0 .4.3.7.7.7h10.9l3.5 3.5zM1.4 25.9h20.1v13.6h-5.8c-.4 0-.7.3-.7.7v2.1l-2.6-2.6c-.1-.1-.3-.2-.5-.2H1.4V25.9z"/><path d="M5.3 30.6h8.4c.4 0 .6-.4.6-.8 0-.3-.3-.6-.6-.6H5.3c-.4 0-.6.4-.6.8.1.3.3.5.6.6zm0 2.7h12.1c.4 0 .7-.2.8-.6 0-.4-.2-.7-.6-.8H5.3c-.4 0-.6.4-.6.8.1.4.3.6.6.6zm12.8 2.2c0-.4-.3-.7-.7-.7H5.3c-.4 0-.7.3-.7.7 0 .4.3.7.7.7h12.1c.4 0 .7-.4.7-.7zm68.6-16.6H65.3c-.4 0-.7.3-.7.7v14.9c0 .4.3.7.7.7h5.8v3c0 .3.2.5.4.6h.3c.2 0 .4-.1.5-.2l3.5-3.5h10.9c.4 0 .7-.3.7-.7V19.5c0-.3-.3-.6-.7-.6 0-.1 0-.1 0 0zM86 33.8H75.5c-.2 0-.4.1-.5.2l-2.6 2.6v-2.1c0-.4-.3-.7-.7-.7h-5.8V20.2H86v13.6z"/><path d="M69.9 24.9h8.4c.4 0 .6-.4.6-.8 0-.3-.3-.6-.6-.6h-8.4c-.4 0-.7.2-.8.6 0 .4.2.7.6.8h.2zm0 2.7H82c.4 0 .6-.4.6-.8 0-.3-.3-.6-.6-.6H69.9c-.4 0-.7.2-.8.6 0 .4.2.7.6.8.1.1.2.1.2 0zm0 2.8H82c.4 0 .7-.3.7-.7 0-.4-.3-.7-.7-.7H69.9c-.4 0-.7.3-.7.7 0 .4.3.7.7.7zM27 28.3h34c.4 0 .6-.4.6-.8 0-.3-.3-.6-.6-.6H27c-.4 0-.7.2-.8.6 0 .4.2.7.6.8h.2zm0 6.1h34c.4 0 .6-.4.6-.8 0-.3-.3-.6-.6-.6H27c-.4 0-.7.2-.8.6 0 .4.2.7.6.8h.2zm34.6 5.5c0-.4-.3-.7-.7-.7H27c-.4 0-.7.2-.8.6 0 .4.2.7.6.8H61c.4-.1.6-.4.6-.7z"/></g></svg>
