<svg class="icon icon-engaging-ux" xmlns="http://www.w3.org/2000/svg" width="77.2" height="87.2" viewBox="0 0 77.2 87.2"><title>Engaging User Experience</title><g fill="#012635"><path d="M48.9 70.8l-20.2 5.8c-.4.1-.6.5-.5.8.1.3.4.5.7.5h.1l20.2-5.8c.4-.1.6-.5.5-.8 0-.4-.4-.6-.8-.5 0-.1 0-.1 0 0zM48.9 75.1l-20.2 5.8c-.4.1-.6.5-.5.8.1.3.3.5.6.5h.2l20.2-5.8c.4-.1.6-.5.5-.8 0-.4-.4-.6-.8-.5zM42.9 84.6c-3.5 2.9-7.7.1-7.9 0-.3-.2-.7-.1-.9.2-.2.3-.1.7.2.9 1.5 1 3.3 1.5 5.1 1.6 1.6 0 3.2-.6 4.4-1.6.2-.3.2-.7-.1-.9-.3-.2-.6-.2-.8-.2zM38.6 10.4c.4 0 .7-.3.7-.7v-9c0-.4-.3-.7-.7-.7-.3 0-.6.3-.6.7v9c0 .3.3.6.6.7zM18.3 15.5c.1.1.3.2.5.2.4 0 .7-.3.7-.7 0-.2-.1-.3-.2-.5l-5.8-5.8c-.3-.3-.7-.3-1 0s-.3.7 0 1l5.8 5.8zM10.8 32.3c.3 0 .6-.2.7-.6.1-.4-.2-.7-.6-.8L.8 29.5c-.4 0-.7.2-.8.6-.1.4.2.7.6.8l10.2 1.4zM12.7 49.8L4 54.2c-.3.2-.5.6-.3.9.1.2.4.4.6.4.1 0 .2 0 .3-.1l8.7-4.3c.3-.2.4-.6.2-.9-.2-.4-.5-.5-.8-.4zM74 55.6l-8.7-4.3c-.3-.1-.7 0-.9.4-.1.3 0 .7.3.8l8.7 4.3c.3.2.7 0 .9-.3.1-.3 0-.7-.3-.9zM76.4 28.1l-8.7 1.4c-.4.1-.6.4-.6.8 0 .3.3.6.7.6h.2l8.7-1.5c.4-.1.6-.4.6-.8-.1-.3-.5-.6-.9-.5zM59.2 15.7c.2 0 .4-.1.5-.2l5.8-5.8c.3-.3.3-.7 0-1s-.7-.3-1 0l-5.8 5.8c-.3.3-.3.7 0 .9.1.2.3.3.5.3zM38.8 14.6c-12.6 0-22.9 10.3-22.9 22.9.1 5.5 1.9 10.9 5.3 15.2.9 1.2 1.8 2.4 2.7 3.5 2.7 3.3 4.4 7.3 4.9 11.6 0 .4.4.6.7.6.4 0 .6-.4.6-.7-.5-4.5-2.3-8.8-5.1-12.3-.9-1-1.8-2.2-2.7-3.4-3.1-4.2-4.9-9.2-5-14.4.2-11.9 10.1-21.3 22-21.1 11.5.2 20.8 9.5 21.1 21-.8 9-4 13.3-6.3 15.8-2.9 3.1-5.2 9.5-5.5 13.8-2.5.7-14.5 3.9-19.3 5.2-.4.1-.6.5-.5.8.1.3.4.5.7.5h.2l16.7-4.4c3.5-.9 3.7-1 3.6-1.5.2-4.1 2.3-10.4 5.2-13.4 2.5-2.6 5.9-7.2 6.7-16.7-.2-12.8-10.4-23-23.1-23z"/></g></svg>