<svg class="icon icon-strategy" role="presentation" aria-labelledby="icon-strategy-title icon-strategy-desc" xmlns="http://www.w3.org/2000/svg" width="80.7" height="79.3" viewBox="0 0 80.7 79.3"><title id="icon-strategy-title">Strategy</title><description id="icon-strategy-desc">A bullseye icon.</description><g fill="#012635"><path d="M66.9 33.8c-.4.1-.6.5-.4.8 5.5 17.6-4.3 36.3-21.8 41.8-17.6 5.5-36.3-4.2-41.8-21.8s4.3-36.3 21.8-41.8c6.7-2.1 13.8-2 20.5.2.4.1.7-.1.9-.4.1-.4-.1-.7-.4-.9-18.1-6-37.7 3.8-43.8 22s3.8 37.7 22 43.8 37.7-3.8 43.8-22c2.3-6.9 2.3-14.3.2-21.2-.2-.4-.6-.6-1-.5z"/><path d="M34.7 33.9c.8 0 1.7.1 2.5.3.4.1.7-.2.8-.6.1-.3-.1-.7-.5-.8-.9-.2-1.8-.3-2.8-.3-6.6 0-12 5.4-12 12s5.4 12 12 12 12-5.4 12-12c0-.8-.1-1.6-.2-2.3-.1-.4-.4-.6-.8-.5-.4.1-.6.4-.5.8.1.7.2 1.4.2 2.1 0 5.9-4.8 10.7-10.7 10.7S24 50.5 24 44.6s4.8-10.7 10.7-10.7z"/><path d="M42.5 23.3c.1-.4-.1-.7-.4-.9-2.4-.8-4.9-1.2-7.4-1.2-12.9 0-23.3 10.5-23.3 23.4s10.5 23.3 23.4 23.3 23.3-10.5 23.3-23.4c0-2.3-.4-4.7-1.1-6.9-.1-.3-.5-.5-.9-.4-.3.1-.5.4-.4.8 3.6 11.6-2.8 23.9-14.4 27.6-11.6 3.6-23.9-2.8-27.6-14.4s2.8-23.9 14.4-27.6c4.4-1.4 9.1-1.3 13.5.1.4.1.8-.1.9-.4z"/><path d="M34.2 43.4c-.3.3-.3.7 0 .9.1.1.3.2.5.2s.3-.1.5-.2l16.4-15.7c.3.4.6.7 1 .9 0 0 3.7.2 7.4.2 3.3 0 6.6-.1 7.1-.6.1-.1 13.6-13.5 13.6-15.2 0-2-1.1-2.4-3.8-2.7-1.4-.1-3.2-.2-4.8-.3-1 0-2.3-.1-2.9-.1 0-.4.1-1.1.1-1.7.2-1.7.3-3.5.1-5.2-.2-2.8-.6-3.9-2.6-3.9C65 0 51.7 13.5 51.6 13.7c-.8.9-.6 10.2-.4 13.5l-17 16.2zm42.6-30.9c2.6.3 2.6.6 2.6 1.3-.5 1.4-11.6 12.7-13.2 14.2-1.3.4-11.8.3-13.2.2-.2-.1-.3-.3-.5-.5l16.3-15.6c1.1.1 2.2.2 3.2.2 1.7 0 3.4.1 4.8.2zm-24.1 2c1.5-1.6 12.8-12.7 14.2-13.2.8 0 1.1 0 1.4 2.6.1 1.7.1 3.3-.1 5-.1.7-.1 1.4-.1 2.2L52.4 26c-.1-3.4-.1-10.4.3-11.5z"/></g></svg>
