<svg class="icon icon-persona" role="presentation" aria-labelledby="icon-persona-title icon-persona-desc" xmlns="http://www.w3.org/2000/svg" width="63.7" height="82.1" viewBox="0 0 63.7 82.1"><title id="icon-persona-title">Persona</title><description id="icon-persona-desc">An icon of an outline of the upper body of a person.</description><path fill="#012635" d="M31.8 43.8c10.2 0 18.4-9.8 18.4-21.9S42 0 31.8 0 13.5 9.8 13.5 21.9s8.2 21.9 18.3 21.9zm0-42.5c9.4 0 17 9.2 17 20.6s-7.6 20.6-17 20.6-17-9.2-17-20.6 7.7-20.5 17-20.6zM63 59.8c-.7-3.3-3.5-5.8-8.1-6.8-3.8-.9-11.6-6-11.7-6.1-.3-.2-.7-.1-.9.2-.2.3-.1.7.2.9.3.2 8.1 5.4 12.1 6.3 2.3.5 6.3 2 7 5.8.6 3.9.8 7.9.6 11.9-.2.6-1.9 2.8-8 5-5.9 2.2-16.5 3.8-22.1 3.8-4.1 0-16.8-1.7-22.7-3.8-6.1-2.2-7.8-4.4-8-5-.2-4 .1-8 .6-12 .7-3.8 4.7-5.2 7-5.8 4-.9 11.8-6.1 12.1-6.3.3-.2.4-.6.2-.9-.2-.3-.6-.4-.9-.2-.1 0-7.9 5.2-11.7 6.1-4.5 1.1-7.4 3.5-8 6.9C.1 62.9-.2 71 .1 72.3S3 76 9 78.2s19 3.9 23.2 3.9c5.7 0 16.5-1.7 22.6-3.9s8.5-4.5 8.8-6c.3-1.2-.1-9.3-.6-12.4z"/></svg>
