<svg class="icon icon-services--design" role="presentation" aria-labelledby="icon-services--design-title icon-services--design-desc" xmlns="http://www.w3.org/2000/svg" width="30" height="30" viewBox="0 0 30 30"><title id="icon-services--design-title">Design</title><description id="icon-services--design-desc">Icon of a paint roller dripping paint.</description><path d="M27.9 9.4H4.3V0h23.6v9.4zM6.4 7.2h19.3v-5H6.4v5z"/><path d="M17.1 17.6H15v-3.8H0V4.2h6.2v2.1H2.1v5.4h15"/><path d="M19.3 30h-7.5V15.5h7.5V30zm-5.4-2.2h3.2V17.6h-3.2v10.2zm12.3-4c-2.1 0-3.7-1.6-3.7-3.5 0-1.5 2-4.3 2.9-5.5l.8-1.1.8 1.1c1 1.2 3 4 3 5.5 0 1.9-1.7 3.5-3.8 3.5zm-1.6-3.5c0 .7.7 1.3 1.6 1.3s1.6-.6 1.6-1.3c0-.4-.7-1.7-1.6-3-.9 1.4-1.5 2.6-1.6 3z"/></svg>
