<svg class="icon icon-maternity-leave" role="presentation" aria-labelledby="icon-maternity-leave-title icon-maternity-leave-desc" xmlns="http://www.w3.org/2000/svg" width="73.3" height="70.2" viewBox="0 0 73.3 70.2"><title id="icon-maternity-leave-title">Maternity Leave</title><description id="icon-maternity-leave-desc">An icon of a teddy bear head.</description><g fill="#012635"><path d="M67.8 24.4c6.1-4.3 7.5-12.7 3.1-18.8-4.3-6.1-12.7-7.5-18.8-3.1-1.3.9-2.5 2.1-3.4 3.5v.1c-6.2-2.4-13-2.9-19.5-1.4-.4.1-.6.4-.6.8.1.4.4.6.8.6 2.3-.5 4.7-.8 7.1-.8 4.1 0 8.2.8 12 2.3h.2c.3 0 .5-.2.6-.4V7c.1 0 .2-.1.3-.2 3.8-5.5 11.3-6.9 16.8-3.2s6.9 11.3 3.2 16.8c-.8 1.1-1.7 2.1-2.8 2.9-.6-1.2-1.3-2.4-2.1-3.5-.2-.3-.7-.3-1-.1-.2.2-.3.6-.2.8 3.4 4.9 4.7 9.6 4.7 16.5 0 17.6-14.2 31.9-31.8 31.9S4.8 54.8 4.8 37.1c0-4.3.8-8.5 2.5-12.4.1-.3 0-.6-.2-.8-2.8-2-5.7-6.1-5.7-10.5 0-6.7 5.4-12.1 12.1-12.1 3.9 0 7.6 1.9 9.9 5.1l-.9.3c-1.2.4-2.4.9-3.5 1.6-.3.2-.3.7-.1 1 .2.2.5.3.8.2 1-.6 2.1-1.1 3.3-1.5.5-.2 1.1-.4 1.6-.6.2-.1.3-.2.4-.4.1-.2 0-.4 0-.6l-.3-.5C20.5-.2 12.2-1.9 6 2.2 2.2 4.7 0 8.9 0 13.5c.2 4.4 2.4 8.5 5.8 11.2-1.5 3.9-2.3 8.1-2.3 12.3.3 18.3 15.4 33 33.8 32.6 17.8-.3 32.3-14.7 32.6-32.6.1-4.3-.6-8.6-2.3-12.5l.2-.1z"/><path d="M20.2 32.6c0 2.3 1.9 4.2 4.2 4.2 2.3 0 4.2-1.9 4.2-4.2 0-2.3-1.9-4.2-4.2-4.2-2.3 0-4.2 1.9-4.2 4.2zm7 0c0 1.6-1.3 2.8-2.8 2.8s-2.8-1.3-2.8-2.8 1.3-2.8 2.8-2.8c1.6-.1 2.8 1.2 2.8 2.8zM12.9 6.2c.4 0 .6-.4.6-.8 0-.3-.3-.6-.6-.6-4.4-.1-8 3.5-8.1 7.9 0 1.5.5 3 1.3 4.3.2.3.6.4.9.2.3-.2.4-.6.2-.9-.7-1.1-1.1-2.3-1.1-3.6.1-3.6 3.1-6.6 6.8-6.5zm53.5 11c.1.1.2.1.4.1s.4-.1.6-.3c.8-1.3 1.3-2.8 1.3-4.3-.1-4.4-3.7-7.9-8.1-7.9-.4 0-.7.2-.8.6 0 .4.2.7.6.8h.2c3.7-.1 6.7 2.9 6.7 6.5 0 1.3-.4 2.5-1.1 3.6-.2.3-.1.7.2.9zM53.6 32.6c0-2.3-1.9-4.2-4.2-4.2s-4.2 1.9-4.2 4.2c0 2.3 1.9 4.2 4.2 4.2 2.3-.1 4.2-1.9 4.2-4.2zm-7 0c0-1.6 1.3-2.8 2.8-2.8 1.6 0 2.8 1.3 2.8 2.8 0 1.6-1.3 2.8-2.8 2.8-1.5 0-2.8-1.3-2.8-2.8zM20.7 50.5c0 6.8 5.7 12.8 13.3 14 .4.1.7-.2.8-.6.1-.4-.2-.7-.6-.8-6.9-1-12.1-6.5-12.1-12.6 0-7 6.6-12.6 14.6-12.6s14.6 5.7 14.6 12.6c0 6.1-5.1 11.5-11.9 12.6-.4.1-.6.4-.5.8.1.3.3.6.7.6h.1c7.4-1.2 13-7.2 13-14 0-7.7-7.2-14-16-14s-16 6.3-16 14z"/><path d="M30.6 56.5c-.6-.4-1.2-.8-1.9-1.2-.3-.2-.7-.1-.9.2-.2.3-.1.7.3.9.6.3 1.2.7 1.8 1.1 1.9 1.2 3.9 2.5 6.8 2.5s4.7-1.2 6.5-2.4c.6-.4 1.2-.8 1.8-1.1.3-.2.4-.6.3-.9-.2-.3-.6-.4-.9-.3-.7.4-1.3.8-1.9 1.2-1.4 1.1-3.1 1.8-4.9 2.1v-5c1.7-.2 3-1.3 3-2.6 0-1.5-1.6-2.7-3.7-2.7s-3.7 1.2-3.7 2.7c0 1.3 1.3 2.4 3 2.6v5c-2-.1-3.9-.9-5.6-2.1zm4-5.4c0-.6 1-1.3 2.3-1.3s2.3.7 2.3 1.3-1 1.3-2.3 1.3-2.3-.7-2.3-1.3z"/></g></svg>
