<svg xmlns="http://www.w3.org/2000/svg" width="15px" height="18px" viewBox="0 0 15 18">
  <title>Access icon</title>
  <g>
    <path d="M14.7,8.1c-0.4-0.3-0.7-0.3-1-0.3L9.8,8l2.1-2.4c0.2-0.4,0.4-0.8,0.2-1.2C12,4.2,11.9,4,11.7,3.7L6.6,0.8
      C6.2,0.6,5.6,0.6,5.2,1L2.7,3.1C2.2,3.5,2.2,4.2,2.6,4.7C3,5.2,3.7,5.2,4.2,4.8l1.9-1.7L7.7,4L5,7C3.8,7.2,2.7,7.7,2,8.4l1.5,1.4
      c0.6-0.6,1.5-1,2.5-1c2,0,3.7,1.6,3.7,3.6c0,1-0.4,1.8-1,2.4l1.5,1.4c1-1,1.6-2.3,1.6-3.8c0-0.8-0.2-1.7-0.6-2.4l1.5-0.1l-0.4,4.3
      c0,0.6,0.4,1.1,1,1.2c0,0,0,0,0.1,0c0.6,0,1.1-0.5,1.1-1L15,8.9C15,8.9,15.1,8.4,14.7,8.1z"/>
    <path d="M12.4,3.6c1,0,1.9-0.8,1.9-1.8S13.4,0,12.4,0s-1.9,0.8-1.9,1.8C10.5,2.8,11.4,3.6,12.4,3.6z"/>
    <path d="M5.8,16.2c-2,0-3.7-1.6-3.7-3.6c0-0.7,0.2-1.4,0.6-2L1.2,9.1c-0.7,1-1.2,2.2-1.2,3.4c0,3,2.6,5.5,5.7,5.5
      c1.4,0,2.6-0.5,3.5-1.2l-1.5-1.4C7.3,16,6.6,16.2,5.8,16.2z"/>
  </g>
</svg>