<svg xmlns="http://www.w3.org/2000/svg" width="98.66" height="42.8" viewBox="0 0 98.66 42.8">
    <title>Mediacurrent wordmark</title>
    <g>
      <g>
        <path fill="#003954" d="M70.6,0c-9,0-12.3,6.6-14.3,10.1h-.2C55.7,5,54.5,0,45.2,0c-8.6,0-12,6.8-13.6,9.8h-.2V0l-16,2.2v2c3.6,0,6.8.8,6.8,7.3v8.7c3.2-.9,6.3-1.7,9.5-2.4.8-5.5,4-12.2,10.5-12.2,3.5,0,4.5,2.6,4.8,10a76.87,76.87,0,0,1,9.6,0,1.27,1.27,0,0,1,.6.1C58.7,10.8,62.1,5.6,67,5.6c4.5,0,4.9,2.9,4.9,12.3,3.1.7,6.2,1.4,9.2,2.2V15.9C81,5.7,80.3,0,70.6,0Z"/>
        <path fill="#003954" d="M81,24.5c-8.2-2.1-16-4-24.5-4.5l-5.1-.1C34.2,20,17,24.2,0,30.7a202.88,202.88,0,0,1,22.2-4.5v6.7c0,6.3-1.6,7.9-6.8,7.9v2H37.5v-2c-4.6,0-6-1.6-6-7.9V25.1c5.3-.5,10.5-.8,15.6-.8v8.6c0,6.3-1.4,7.9-6,7.9v2H62.3v-2c-4.7,0-6-1.6-6-7.9V24.5A92.16,92.16,0,0,1,71.9,27v5.9c0,6.3-1.3,7.9-6,7.9v2H88v-2c-5.4,0-6.8-1.6-6.8-7.9V29.2c3.8.9,7.7,1.9,11.9,2.8s5.9-1.4,5.5-3C94.7,28.2,81,24.5,81,24.5Z"/><polygon class="cls-1" points="90.5 41.4 90.1 41.4 90.1 41.1 91.3 41.1 91.3 41.4 90.9 41.4 90.9 42.7 90.5 42.7 90.5 41.4"/><path class="cls-1" d="M92.8,42.1v-.7c-.1.2-.1.4-.2.6l-.2.6h-.3l-.2-.6a1.27,1.27,0,0,1-.1-.6v1.3h-.3l.1-1.6h.5l.2.5a1.27,1.27,0,0,1,.1.6,1.42,1.42,0,0,1,.2-.6l.2-.5h.5l.1,1.6H93Z"/>
      </g>
    </g>
</svg>
