<svg class="icon icon-responsive" role="presentation" aria-labelledby="icon-responsive-title icon-responsive-desc" xmlns="http://www.w3.org/2000/svg" width="97.3" height="80.3" viewBox="0 0 97.3 80.3"><title id="icon-responsive">Responsive</title><description id="icon-responsive-desc">Icon of a monitor and phone screen.</description><g fill="#012635"><path d="M77.7 19.4c.4 0 .7-.3.7-.7v-5c0-3.1-2.5-5.7-5.7-5.7h-62C7.5 8 5 10.5 5 13.7v36c0 3.1 2.5 5.7 5.7 5.7h48c.4 0 .7-.2.8-.6s-.3-.8-.7-.8H10.6c-2.4 0-4.3-1.9-4.3-4.3v-36c0-2.4 1.9-4.3 4.3-4.3h62c2.4 0 4.3 1.9 4.3 4.3v5c.1.3.4.6.8.7 0-.1 0 0 0 0z"/><path d="M61.1 79s-5.4-.2-7.3-4.6c-1-2.5-1.6-5.3-1.6-8h6.5c.4 0 .7-.2.8-.6 0-.4-.2-.7-.6-.8H6.7c-2.9 0-5.3-2.4-5.3-5.3v-53c0-2.9 2.3-5.3 5.3-5.4h70c2.9 0 5.3 2.4 5.3 5.3v12c0 .4.2.7.6.8.4 0 .7-.2.8-.6V6.6c0-3.7-3-6.7-6.7-6.7h-70C3 0 0 3 0 6.7v53c0 3.7 3 6.7 6.7 6.7h23.6c0 2.7-.6 5.5-1.6 8-1.9 4.4-7.3 4.6-7.3 4.6-.4 0-.7.3-.7.7 0 .4.3.7.7.7h39.7c.4 0 .6-.4.6-.8s-.3-.6-.6-.6zm-34.9 0c1.7-.9 3-2.3 3.8-4.1 1.1-2.7 1.7-5.6 1.7-8.6h19.2c0 2.9.6 5.8 1.7 8.6.8 1.7 2.1 3.2 3.8 4.1H26.2z"/><circle cx="41.2" cy="60.2" r="1.4"/><path d="M72.9 29.1h.5c.1 0 .2-.1.2-.1.1-.1.1-.1.1-.2s.1-.2.1-.3c0-.1 0-.2-.1-.3 0-.1-.1-.2-.1-.2-.2-.2-.5-.2-.7-.1-.1 0-.2.1-.2.1-.1.1-.1.1-.1.2v.3c0 .2.1.3.2.5 0 0 .1 0 .1.1z"/><path d="M90.7 22h-22C65 22 62 25 62 28.7v45c0 3.7 3 6.7 6.7 6.7h22c3.7 0 6.7-3 6.7-6.7v-45c-.1-3.7-3-6.7-6.7-6.7zM96 73.7c0 2.9-2.4 5.3-5.3 5.3h-22c-2.9 0-5.3-2.4-5.3-5.3v-45c0-2.9 2.4-5.3 5.3-5.3h22c2.9 0 5.3 2.4 5.3 5.3v45z"/><path d="M87.7 33h-15c-3.1 0-5.7 2.5-5.7 5.7v28c0 3.1 2.5 5.7 5.7 5.7h15c3.1 0 5.7-2.5 5.7-5.7v-28c-.1-3.2-2.6-5.7-5.7-5.7zM92 66.7c0 2.4-1.9 4.3-4.3 4.3h-15c-2.4 0-4.3-1.9-4.3-4.3v-28c0-2.4 1.9-4.3 4.3-4.3h15c2.4 0 4.3 1.9 4.3 4.3v28zM76.7 29.4h9c.4 0 .7-.2.8-.6 0-.4-.2-.7-.6-.8h-9.2c-.4 0-.6.4-.6.8 0 .3.3.5.6.6zM79 73.9c-.8 0-1.4.6-1.4 1.4s.6 1.4 1.4 1.4 1.4-.6 1.4-1.4c0-.8-.6-1.4-1.4-1.4z"/></g></svg>
