<svg class="icon icon-powerful" role="presentation" aria-labelledby="icon-powerful-title icon-powerful-desc" xmlns="http://www.w3.org/2000/svg" width="54.9" height="77.5" viewBox="0 0 54.9 77.5"><title id="icon-powerful-title">Powerful</title><description id="icon-powerful-desc">An icon of a muscular arm flexing.</description><g fill="#012635"><path d="M33.5 53.8c-2.3 1.9-4.9 3.2-7.7 4-4.9 1.4-11.6 0-11.7 0-.4 0-.7.2-.7.6 0 .3.2.6.5.7 2.2.4 4.5.7 6.7.7 1.9 0 3.8-.2 5.6-.7 3-.8 5.9-2.3 8.3-4.3.3-.3.3-.7 0-1-.3-.2-.7-.2-1 0z"/><path d="M54.7 54.8c-.2-.9-.5-1.8-1-2.5v-.1c-.1-7.2-.7-14.3-1.9-21.3C50.1 20 41.5 11.4 40.3 10.3c-.4-1.2-.9-2.3-1.5-3.5-1.1-2.2-4-3.7-7-5.2C27.6-.5 23.9-1 18.3 2.8s-2.6 9.6-2.6 9.6l.3.3c-.2.5-.2.9 0 1.4.8 1.7 2.8 3 6.6 4.4 1.5.5 3.2-.1 4.8-.7 2.1-.8 3.5-1.2 4.4-.3 1.6 1.6.9 5.3 0 9.6-.2 1.2-.5 2.5-.7 3.9-.5 4-.5 8.1.2 12.1-2-.8-4.1-1.3-6.3-1.5-1.8 0-5.4 1.5-9 3-.9.4-1.9.8-2.1.8-.8-.1-1.5-.2-2.3-.5-.7-.2-1.4-.4-2.2-.5-1.3 0-2.6.3-3.8.7-.1-.5-.1-.8-.1-.8 0-.3-.3-.6-.7-.6h-4c-.4 0-.7.3-.7.7L0 71.8c0 .4.3.7.7.7.4 0 .7-.3.7-.7L1.5 45h2.8c.4 2.4 1.9 11.8 5 17.8 2.4 4.6 5.2 9 8.3 13.2l-16.9.1c-.4 0-.7.3-.7.7 0 .4.3.7.7.7l18.2-.2c.3 0 .5-.1.6-.4.1-.2.1-.5-.1-.7l-.7-1c1.4-.3 2.7-.8 4-1.4 1-.7 1.8-1.5 2.5-2.4.4.1.9.2 1.4.2 2.3 0 11.1-1.3 14.2-3.3 1.9-1.3 3.3-3.1 4.2-5.2 1.6.1 6.2.3 8.4-2.5 1.3-1.6 1.8-3.8 1.3-5.8zm-2.4 5.1c-2.2 2.7-7.7 1.9-7.7 1.9-.3 0-.6.1-.7.4-.8 2-2.1 3.7-3.9 5-2.6 1.7-11 3.1-13.5 3.1-1.8 0-5.9-2-7.4-2.8-.3-.1-.7 0-.9.4-.1.3 0 .7.3.8 1.7.9 3.4 1.7 5.2 2.3-.5.7-1.1 1.2-1.8 1.7-1.3.6-2.7 1.1-4.2 1.3-2.7-3.8-5.2-7.8-7.4-11.9C8 57.3 6.5 50 5.8 46.4c1.1-.5 2.2-.7 3.4-.8.7.1 1.3.3 2 .5.8.3 1.7.5 2.6.5h.4c.8-.3 1.6-.6 2.3-.9 2.4-1 6.9-2.9 8.5-2.9 2.3 0 8.5 2.1 10.4 3.7.2.3.7.3.9.1.3-.2.3-.7.1-.9l-.2-.2c-1.1-.8-2.3-1.4-3.5-1.9-.7-4.1-.8-8.3-.2-12.4.2-1.3.5-2.6.7-3.8.9-4.7 1.7-8.7-.4-10.8-1.6-1.6-3.9-.8-5.9 0-1.4.5-2.9 1.1-3.9.7-3.3-1.1-5.2-2.4-5.8-3.6-.1-.2 0-.8.6-1.5.8-1.1 2.1-1.9 2.8-1.8.2 0 .4.1.5.5.1.3.5.5.9.4.3-.1.5-.5.4-.9-.2-.7-.8-1.3-1.6-1.4-1.4-.2-3.1 1.1-4 2.4l-.1.1c-1.2-2.7-.2-5.9 2.4-7.4 5-3.4 8.2-3 12.1-1.1 2.8 1.3 5.5 2.7 6.4 4.5.5 1.1 1 2.3 1.4 3.4 0 .1.1.2.2.3.1.1 9.5 9 11.3 20 1 6.5 1.6 13 1.8 19.6-.4-.3-.7-.6-1.2-.8-.3-.2-.7 0-.9.3-.2.3 0 .7.3.9 2.9 1.7 3.8 5.4 2.1 8.3-.1.1-.2.2-.3.4z"/><path d="M39.7 22.4c-.3.2-.5.6-.3.9 0 .1 3.3 6.2 3.3 10.6 0 2.6-.9 8.7-1.5 9.9-.2.3 0 .7.3.9.1 0 .2.1.3.1.3 0 .5-.1.6-.4.7-1.5 1.7-7.9 1.6-10.5-.1-4.7-3.3-11-3.5-11.2-.1-.4-.5-.5-.8-.3z"/></g></svg>
