<svg class="icon icon-training" role="presentation" aria-labelledby="icon-training-title icon-training-desc" xmlns="http://www.w3.org/2000/svg" width="75" height="76.2" viewBox="0 0 75 76.2"><title id="icon-training-title">Training</title><description id="icon-training-desc">Icon showing a figure pointing at a projection screen.</description><g fill="#012635"><path d="M15 21.2c4.9 0 8.9-4.8 8.9-10.6S19.9 0 15 0 6 4.8 6 10.6s4 10.6 9 10.6zm0-19.8c4.2 0 7.6 4.2 7.6 9.2s-3.5 9.2-7.6 9.2-7.6-4.1-7.6-9.2 3.4-9.2 7.6-9.2zm59.3 1.1H30.6c-.4 0-.7.3-.7.7 0 .4.3.7.7.7h43.1v7.4H30.6c-.4 0-.7.2-.8.6s.2.7.6.8h36.7v35.8H30.6c-.4 0-.7.3-.7.7 0 .4.3.7.7.7h14.6v11.7L31.1 75c-.3.3-.3.7 0 1 .1.1.3.2.5.2s.3-.1.4-.2l13.2-12.7v12c0 .4.3.7.7.7.4 0 .7-.3.7-.7v-12L59.1 76c.3.3.7.3 1 0 .3-.3.3-.7 0-.9L46.6 61.4V49.8h21.2c.4 0 .7-.3.7-.7V12.6h5.9c.4 0 .7-.3.7-.6V3.2c-.1-.3-.4-.7-.8-.7z"/><path d="M48.6 27.6c1-1 .6-2.8-1.2-4.8s-3.3-2.2-4.9-1.1c-.5.3-1.3 1.2-2.5 2.3-1.7 1.6-5.2 4.9-6 5s-4.8-2.1-8-4.2c-1.6-1-5.5-2.8-5.6-2.9-.3-.2-.7-.1-.9.2-.2.3-.1.7.2.9l.1.1s3.9 1.9 5.5 2.9c1.7 1.1 7.2 4.6 8.8 4.4 1.2-.2 3.6-2.4 6.9-5.4 1-1 2-1.9 2.3-2.1.7-.5 1.6-.8 3.1.9 1.3 1.4 1.6 2.5 1.2 2.9C45.2 29 36.4 36.9 34.3 37c-1.5 0-4-1.3-5.8-2.3-1.6-.8-2.3-1.2-2.9-1.2-1 0-1.2 0-3.9 21.3-1 8.1-2.3 18.1-2.8 19.6-1 .5-4.9.5-7-.2-1.2-.4-1.6-3.7-2-8.8-.2-1.8-.4-3.8-.6-6.1-1-9.3-3.3-10.7-5.6-12l-.6-.4C1.9 45.7 1 30.3 1.4 28.4c.3-1.5 2-2.2 3-2.4 1.9-.5 5.6-2.9 5.8-3 .3-.2.4-.6.2-.9-.2-.3-.6-.4-.9-.2C7.8 23.1 6 24 4.1 24.7c-2.3.5-3.7 1.8-4 3.5-.1 3.3 0 6.6.2 9.9.7 9 1.7 9.7 2.1 9.9l.7.4c2 1.2 4 2.4 4.9 11 .2 2.3.4 4.3.6 6 .6 6.3.9 9.4 3 10 1.5.4 3 .5 4.6.5 1.2.1 2.5-.1 3.6-.6.6-.4 1-2.5 3.3-20.4 1-8 2.2-17.8 2.9-20 .5.2 1.2.6 1.9 1 2.1 1.1 4.6 2.5 6.5 2.4 3.1-.1 14.1-10.6 14.2-10.7zm-7.7-7.3c.4 0 .7-.3.7-.7v-1.1c0-1.3-1.1-2.4-2.4-2.4h-8.6c-.4 0-.7.3-.7.7 0 .4.3.7.7.7h8.6c.6 0 1 .4 1 .9V19.6c.1.4.4.7.7.7zm22.1-3H46.2c-.4 0-.7.2-.8.6 0 .4.2.7.6.8h17c.4 0 .6-.4.6-.8 0-.3-.3-.6-.6-.6zm0 4.3H50.5c-.4 0-.7.2-.8.6 0 .4.2.7.6.8H63c.4 0 .6-.4.6-.8 0-.3-.3-.6-.6-.6zm-7.2 5.6c.4 0 .6-.4.6-.8 0-.3-.3-.6-.6-.6h-3c-.4 0-.7.2-.8.6 0 .4.2.7.6.8h3.2z"/><path d="M40.3 38.1v5.2c0 .6-.5 1-1 1h-8.6c-.4 0-.7.3-.7.7 0 .4.3.7.7.7h8.6c1.3 0 2.4-1.1 2.4-2.4v-5.2c0-.4-.3-.7-.7-.7-.4 0-.7.3-.7.7zM63 33.4H46.2c-.4 0-.7.2-.8.6s.2.7.6.8h17c.4 0 .6-.4.6-.8s-.3-.6-.6-.6zm.7 4.9c0-.4-.3-.7-.7-.7H46.2c-.4 0-.7.2-.8.6s.3.8.6.8h17c.4 0 .7-.2.7-.7 0 .1 0 .1 0 0zM46.2 42c-.4 0-.7.3-.7.7 0 .4.3.7.7.7h9.6c.4 0 .7-.3.7-.7 0-.4-.3-.7-.7-.7h-9.6z"/></g></svg>
