<svg version="1.1" id="Layer_1" xmlns="http://www.w3.org/2000/svg" width="20px" height="20px" viewBox="0 0 20 20" class="icon icon-checkbox--checked" role="presentation">
  <path fill="#003954" d="M16.2,20H3.8C1.7,20,0,18.3,0,16.2V3.8C0,1.7,1.7,0,3.8,0h12.5C18.3,0,20,1.7,20,3.8v12.5
    C20,18.3,18.3,20,16.2,20z M3.8,1.2c-1.4,0-2.5,1.1-2.5,2.5v12.5c0,1.4,1.1,2.5,2.5,2.5h12.5c1.4,0,2.5-1.1,2.5-2.5V3.8
    c0-1.4-1.1-2.5-2.5-2.5H3.8z"/>
  <g>
    <path fill="#003954" d="M4.7,8.5l2.7,2.7l8-8L18.1,6L7.4,16.8l-5.5-5.5L4.7,8.5z"/>
  </g>
</svg>
