<svg class="icon icon-modules" role="presentation" aria-labelledby="icon-modules-title icon-modules-desc" xmlns="http://www.w3.org/2000/svg" width="81.3" height="80.8" viewBox="0 0 81.3 80.8"><title id="icon-modules-title">Modules</title><g fill="#012635"><description id="icon-modules-desc">Icon of stacked cubes.</description><path d="M81.3 45.5l-.2-.2-19.7-11V11.8c0-.1 0-.2-.1-.3l-.2-.2L41.2.1c-.2-.1-.4-.1-.6 0L20.4 11.2l-.2.2-.1.1c-.1.1-.1.2-.1.3v22.7L.3 45.2l-.2.2-.1.1c.1 0 0 .2 0 .3v22.7c0 .2.1.5.3.6l20 11.7H20.6c.1 0 .2 0 .3-.1l19.6-11.4 19.7 11.5h.4c.1 0 .2 0 .3-.1l20-11.6c.2-.1.3-.3.3-.6V45.8c.1-.1.1-.2.1-.3zM40 44.7L21.4 34.1V12.9L40 22.5v22.2zm20.7 10.6l-18.2-9.4 5.8-3.4 12.5-7 18.5 10.3-18.6 9.5zM60 34.1l-12.4 7.2-6.3 3.5V22.6L60 12.9v21.2zM40.9 1.5l18.4 10.4-18.5 9.4-18.6-9.5L40.9 1.5zM21 35.5L39 46l-18.2 9.3-18.7-9.5L21 35.5zM1.4 46.9L20 56.5V79L1.4 68.1V46.9zm20 9.8L40 47.2v20.9L21.4 79V56.7zm19.9-9.8L60 56.5V79L41.3 68.1V46.9zm20 32.1V56.5L80 46.9v21.2L61.3 79z"/><path d="M16.6 58.9L5.1 65.3c-.3.2-.4.6-.3.9.1.2.3.3.6.3.1 0 .2 0 .3-.1L17.2 60c.3-.1.5-.5.4-.9-.1-.3-.5-.5-.9-.4 0 .2 0 .2-.1.2zm8.7-26.2c.1 0 .2 0 .3-.1l11.5-6.4c.3-.2.4-.6.3-.9-.2-.3-.6-.4-.9-.3L25 31.4c-.3.2-.4.6-.3.9.1.3.4.4.6.4zm31 26.2l-11.5 6.4c-.3.2-.4.6-.3.9.1.2.4.3.6.3.1 0 .2 0 .3-.1L57 60.1c.3-.2.4-.6.3-.9s-.6-.5-1-.3zM44.8 26.2l11.5 6.4c.1.1.2.1.3.1.2 0 .5-.1.6-.3.2-.3.1-.7-.3-.9l-11.5-6.4c-.3-.2-.7-.1-.9.3-.2.2 0 .7.3.8zm-7.7 39.1l-11.5-6.4c-.3-.2-.7-.1-.9.2-.2.3-.1.7.2.9 0 0 .1.1.2.1l11.5 6.4c.1 0 .2.1.3.1.4 0 .7-.3.7-.7-.1-.3-.2-.5-.5-.6zm39.7 0l-11.5-6.4c-.3-.2-.7-.1-.9.3-.2.3-.1.7.2.9l11.5 6.4c.1 0 .2.1.3.1.2 0 .5-.1.6-.3.2-.4.1-.8-.2-1z"/></g></svg>
