<svg xmlns="http://www.w3.org/2000/svg" width="71.7px" height="72.2px" viewBox="0 0 71.7 72.2">
  <title>Build icon</title>
  <g>
    <g>
      <path fill="#012635" d="M70.8,28.5l-7-7c-0.3-0.3-0.7-0.3-1,0s-0.3,0.7,0,1l2,2l-8.6,8.6l-1.6-1.6l0,0l-9.3-9.4l0,0l-1.9-1.9
        l8.6-8.7l6.4,6.4c0.3,0.3,0.7,0.3,1,0c0.3-0.3,0.3-0.7,0-1l-6.9-6.9l0,0l-4.3-4.2c-1.1-1.1-2.9-1.1-4,0c0,0,0,0,0,0l-6.5,6.5
        c-0.5,0.5-0.8,1.2-0.8,2c0,0.7,0.3,1.5,0.8,2l4.2,4.2l0,0l1.9,1.9L36.4,30l-3.5-1.6c-1.1-0.5-2.5,0-3,1.1c0,0,0,0,0,0L29.3,31
        c-0.5,1.1-0.1,2.5,1.1,3c0,0,0,0,0,0l1.4,0.7l-2.7,2.7l-3.5-1.6c-0.5-0.2-1.2-0.3-1.7-0.1c-0.6,0.2-1,0.6-1.3,1.2L22,38.3
        c-0.5,1.1,0,2.5,1.1,3c0,0,0,0,0,0l1.4,0.7l-2.7,2.6L18.4,43c-1.1-0.5-2.4-0.1-3,1c0,0,0,0,0,0.1l-0.7,1.5
        c-0.3,0.5-0.3,1.2-0.1,1.7c0.2,0.6,0.6,1,1.2,1.3l1.4,0.7l-2.7,2.7L11,50.3c-1.1-0.5-2.4-0.1-3,1c0,0,0,0,0,0.1l-0.7,1.5
        c-0.2,0.5-0.3,1.2-0.1,1.7c0.2,0.6,0.6,1,1.2,1.2l1.4,0.7L5.4,61c-1.1,1.1-1.1,2.9,0,4l6.3,6.3c1.1,1.1,2.9,1.1,4,0c0,0,0,0,0,0
        l8.3-8.3l3.5,1.6l0,0c0.3,0.1,0.6,0.2,0.9,0.2c0.9,0,1.6-0.5,2-1.3l0.7-1.5c0.5-1.1,0.1-2.5-1.1-3c0,0,0,0,0,0l-1.4-0.7l2.7-2.7
        l3.5,1.6l0,0c0.3,0.1,0.6,0.2,0.9,0.2c0.9,0,1.6-0.5,2-1.3l0.7-1.5c0.5-1.1,0.1-2.5-1.1-3c0,0,0,0,0,0L36,51.1l2.7-2.7l3.4,1.6
        c0.3,0.1,0.6,0.2,0.9,0.2c0.9,0,1.6-0.5,2-1.3l0.7-1.5c0.5-1.1,0.1-2.5-1.1-3c0,0,0,0,0,0l-1.4-0.7l2.7-2.7l3.5,1.6
        c0.3,0.1,0.6,0.2,0.9,0.2c0.9,0,1.6-0.5,2-1.3l0.7-1.4c0.2-0.5,0.3-1.2,0.1-1.7c-0.2-0.6-0.6-1-1.2-1.2l-1.4-0.7l3.7-3.6l1.6,1.6
        l0,0l4.6,4.5c0.5,0.5,1.3,0.8,2,0.8l0,0c0.8,0,1.5-0.3,2-0.8l6.5-6.5C71.9,31.4,71.9,29.6,70.8,28.5z M38.2,14.5
        c0-0.4,0.2-0.8,0.4-1.1l6.5-6.5c0.6-0.6,1.5-0.6,2.1,0l3.7,3.7l-8.6,8.6l-3.8-3.8C38.4,15.2,38.2,14.8,38.2,14.5L38.2,14.5z
        M14.8,70.4c-0.6,0.6-1.5,0.6-2.1,0L6.4,64c-0.6-0.6-0.6-1.5,0-2.1l4.9-4.9l11.5,5.3L14.8,70.4z M30,61.4l-0.7,1.5
        c-0.1,0.2-0.3,0.4-0.5,0.5c-0.2,0.1-0.5,0.1-0.7,0l0,0l-19-8.7c-0.4-0.2-0.6-0.7-0.4-1.2L9.4,52c0.1-0.2,0.3-0.4,0.5-0.5
        c0.2-0.1,0.5-0.1,0.7,0l19,8.8C30,60.4,30.2,61,30,61.4L30,61.4z M27.4,57.7l-11.5-5.2l2.7-2.7L30,55.1L27.4,57.7z M37.3,53.4
        c0.1,0.2,0.1,0.5,0,0.7l-0.7,1.5c-0.1,0.2-0.3,0.4-0.5,0.5c-0.2,0.1-0.5,0.1-0.7,0l0,0l-19-8.7C16.2,47.2,16,47,16,46.8
        c-0.1-0.2-0.1-0.5,0-0.7l0.7-1.5c0.2-0.4,0.7-0.6,1.2-0.4l16.6,7.6c0.1,0,0.1,0.1,0.2,0.1l2.2,1C37.1,53,37.2,53.2,37.3,53.4
        L37.3,53.4z M34.6,50.4l-11.5-5.2l2.7-2.7l11.5,5.3L34.6,50.4z M44.6,46.1c0.1,0.2,0.1,0.5,0,0.7l-0.7,1.5
        c-0.2,0.4-0.7,0.6-1.2,0.4l-19-8.7c-0.2-0.1-0.4-0.3-0.5-0.5c-0.1-0.2-0.1-0.5,0-0.7l0.7-1.5c0.1-0.2,0.3-0.4,0.5-0.5
        c0.2-0.1,0.5-0.1,0.7,0l3.8,1.8c0.1,0,0.1,0.1,0.2,0.1l15,6.9C44.3,45.7,44.5,45.9,44.6,46.1L44.6,46.1z M41.9,43.1l-11.5-5.2
        l2.7-2.7l11.5,5.3L41.9,43.1z M51.8,38.8c0.1,0.2,0.1,0.5,0,0.7L51.1,41c-0.1,0.2-0.3,0.4-0.5,0.5c-0.2,0.1-0.5,0.1-0.7,0l-19-8.7
        c-0.4-0.2-0.6-0.7-0.4-1.2l0.7-1.5c0.1-0.3,0.5-0.5,0.8-0.5c0.1,0,0.2,0,0.4,0.1l19,8.7C51.6,38.5,51.8,38.7,51.8,38.8L51.8,38.8z
        M49.2,35.8l-11.5-5.2l7.1-7.1l8.4,8.4L49.2,35.8z M69.9,31.4L63.3,38c-0.3,0.3-0.7,0.4-1.1,0.5l0,0c-0.4,0-0.7-0.2-1-0.4l-4.1-4
        l8.6-8.6l4.1,4.1c0.6,0.6,0.6,1.5,0,2.1L69.9,31.4z"/>
      <path fill="#012635" d="M14.5,33.3c0.1,0,0.2,0,0.3-0.1l13.9-7.9c0.2-0.1,0.3-0.3,0.3-0.6l0.1-16c0-0.2-0.1-0.5-0.3-0.6L15,0.1
        c-0.2-0.1-0.5-0.1-0.7,0L0.4,8C0.2,8.1,0.1,8.3,0.1,8.6v3.9c0,0.4,0.3,0.7,0.7,0.7c0,0,0,0,0,0l0,0c0.4,0,0.7-0.3,0.7-0.7V9
        l13.2-7.6l13.2,7.7l-0.1,15.2l-13.2,7.6L1.4,24.2v-6.1c0-0.4-0.3-0.7-0.7-0.7c0,0,0,0,0,0l0,0c-0.4,0-0.7,0.3-0.7,0.7c0,0,0,0,0,0
        v6.5c0,0.2,0.1,0.5,0.3,0.6l13.8,8.1C14.3,33.3,14.4,33.4,14.5,33.3z"/>
      <path fill="#012635" d="M14.5,28.1c0.1,0,0.2,0,0.3-0.1l9.3-5.3c0.2-0.1,0.3-0.3,0.3-0.6l0-10.7c0-0.2-0.1-0.5-0.3-0.6L15,5.4
        c-0.2-0.1-0.5-0.1-0.7,0L5,10.7c-0.2,0.1-0.3,0.3-0.3,0.6v6.3V22c0,0.2,0.1,0.5,0.3,0.6l9.2,5.4C14.3,28.1,14.4,28.1,14.5,28.1z
        M6,17.6v-6l8.6-4.9l8.6,5v9.9l-8.6,4.9l-8.6-5L6,17.6z"/>
    </g>
  </g>
</svg>
