<svg xmlns="http://www.w3.org/2000/svg" width="30px" height="20px" viewBox="0 0 30 20">
  <path d="M24 16.87a2.23 2.23 0 0 1-1.31-.42l-8.2-8.16a1.22 1.22 0 0 0-.87-.36 1.22 1.22 0 0 0-.87.36l-2.1 2.09-5.84 5.84a2.24 2.24 0 0 1-3.12 0l-1-1A2.23 2.23 0 0 1 .65 12L12 .65A2.21 2.21 0 0 1 13.61 0a2.21 2.21 0 0 1 1.57.65L26.58 12a2.23 2.23 0 0 1 0 3.15l-1 1a2.22 2.22 0 0 1-1.58.72zM13.62 6.93a2.21 2.21 0 0 1 1.57.65l8.1 8.11a1.39 1.39 0 0 0 1.54-.18l1-1a1.23 1.23 0 0 0 0-1.73L14.49 1.36a1.22 1.22 0 0 0-.87-.36 1.22 1.22 0 0 0-.87.36L1.36 12.75a1.23 1.23 0 0 0 0 1.73l1 1a1.22 1.22 0 0 0 1.71 0l7.55-7.57V8l.38-.42a2.21 2.21 0 0 1 1.58-.65z"></path>
</svg>
