<svg class="icon icon-transform" role="presentation" aria-labelledby="icon-transform-title icon-transform-desc" xmlns="http://www.w3.org/2000/svg" width="88.1" height="81.3" viewBox="0 0 88.1 81.3"><title id="icon-transform-title">Transform</title><description id="icon-transform-desc">Icon of a butterfly.</description><g fill="#012635"><path d="M48.1 42.4l-.6.1c-1.1.3-2.3.4-3.5.4-1.3 0-2.5-.2-3.7-.4l-.3-.1c-.4-.1-.7.2-.8.5-.1.4.2.7.5.8l.3.1c1.3.3 2.7.4 4 .4 1.3 0 2.5-.2 3.8-.4l.6-.1c.4-.1.6-.4.5-.8s-.4-.6-.8-.5zm-1 4.3c-.5.1-.9.2-1.2.3-.6.2-1.2.3-1.9.3s-1.3-.1-2-.2l-1.1-.2c-.4-.1-.7.2-.8.6-.1.4.2.7.5.8l1.1.2c.7.2 1.5.3 2.2.3.7 0 1.5-.1 2.2-.3l1.2-.2c.4-.1.6-.5.5-.8-.1-.6-.4-.8-.7-.8zM39.7 39l.3.1c1.3.3 2.7.4 4 .4 1.3 0 2.5-.2 3.8-.4l.6-.1c.4-.1.6-.4.5-.8s-.4-.6-.8-.5l-.6.1c-1.1.3-2.3.4-3.5.4-1.3 0-2.5-.2-3.7-.4l-.3-.1c-.4-.1-.7.2-.8.5s.1.7.5.8z"/><path d="M71.5 53.4c-7 0-8.3-2.1-10.5-5.6l-.3-.4c-.2-.3-.6-.4-.9-.2-.3.2-.4.6-.2.9l.3.4c2.3 3.6 4 6.2 11.7 6.2 7.9 0 15-7.3 15-15.3 0-2.6-.6-5.2-1.7-7.6-.6-1.7-1.4-3.8-2.7-7.1-3.3-8.4.6-13.5 3.4-17.2 1.7-2.3 3.1-4 2.4-5.9-.2-.8-.9-1.4-1.7-1.5C81.7-1 69.6 7 63.6 12.9c-8.7 8.7-11.8 15.9-12.8 18.8-.3-1.5-.9-2.9-1.8-4.2-1-1.3-2.4-2.2-4.1-2.4 2.5-.6 4.1-3 3.5-5.6-.2-.8-.6-1.6-1.2-2.3 0 0 .4-3.7 4.5-7.8S63 4 63.1 4c.4-.1.6-.5.5-.8-.1-.3-.4-.5-.7-.5-.3.1-7.5 1.5-11.9 6-2.3 2.1-3.9 4.8-4.8 7.9-1.3-.7-2.8-.8-4.1-.1-.8-3-2.4-5.7-4.6-7.8-4.4-4.4-11.6-5.9-11.9-6-.4-.1-.8.2-.8.6s.2.8.6.8c.1 0 7.1 1.5 11.2 5.6s4.4 7.6 4.4 7.6c-1.9 1.7-2 4.7-.3 6.6.7.7 1.6 1.2 2.5 1.4-1.6.2-3 1.1-3.9 2.4-.9 1.3-1.5 2.8-1.8 4.4-.9-2.8-3.9-10.1-12.8-19C18.6 7 6.5-1 1.9.1 1.1.2.4.8.2 1.6c-.6 1.9.7 3.7 2.4 5.9 2.8 3.7 6.6 8.8 3.4 17.2-1.3 3.2-2.1 5.4-2.7 7.1-1.1 2.4-1.7 5-1.7 7.6 0 8 7.2 15.3 15 15.3 7.7 0 9.4-2.6 11.6-6.2l.3-.4c.2-.3.1-.7-.2-.9s-.7-.1-.9.2l-.3.4c-2.2 3.5-3.6 5.6-10.5 5.6-7.2 0-13.7-6.6-13.7-13.9 0-2.5.6-4.9 1.6-7.1.6-1.7 1.4-3.9 2.7-7.1 3.5-9.1-.8-14.8-3.6-18.5C2.2 4.8 1 3.3 1.4 2c.1-.3.4-.6.8-.6C5.9.5 17.4 7.7 23.6 13.9c8.7 8.7 11.6 15.8 12.5 18.5l.8 13.8L38 56.8c-.6 1.7-7.1 19.5-17.5 22.7-3.9 1.2-7.9.2-11.9-2.9-2-1.3-3.2-3.5-3.3-5.9 0-3.9 3.3-8.7 8.7-13 .3-.2.3-.7.1-1-.2-.3-.6-.4-.9-.1C11 58.3 3.9 64.3 4 70.7c.1 2.8 1.5 5.4 3.8 7 2.7 2.2 6 3.5 9.5 3.7 1.2 0 2.4-.2 3.6-.6 10.5-3.2 16.9-19.4 18.2-23 1.9 9.4 4.3 17.4 4.5 18.1.1.4.5.6.8.5.2-.1.4-.2.5-.5.2-.7 2.6-8.6 4.5-17.9 1.5 4 7.8 19.6 18.1 22.8 1.2.4 2.4.5 3.6.6 3.5-.1 6.8-1.4 9.5-3.7 2.3-1.6 3.8-4.2 3.8-7 0-6.3-7.1-12.4-9.3-14.1-.3-.2-.7-.2-.9.1l-.1.1c-.2.3-.2.7.1 1 5.5 4.3 8.8 9.1 8.8 13-.1 2.4-1.3 4.6-3.3 5.9-4 3.1-8.1 4.1-11.9 2.9-10.4-3.2-16.9-21-17.5-22.7l1-10.6.7-13.9c.9-2.7 3.8-9.8 12.5-18.5C70.8 7.7 82.2.6 85.9 1.4c.4 0 .7.3.8.6.4 1.2-.8 2.8-2.2 4.7-2.8 3.7-7.1 9.4-3.6 18.5 1.3 3.4 2.1 5.4 2.7 7.2 1 2.2 1.6 4.6 1.6 7.1 0 7.3-6.5 13.9-13.7 13.9zM40.7 20.6c0-1.8 1.5-3.3 3.3-3.3 1.8 0 3.3 1.5 3.3 3.3s-1.5 3.3-3.3 3.3c-1.8 0-3.3-1.5-3.3-3.3zm3.4 52.7c-2.3-8.3-9.8-36.9-3.9-44.9 1.6-2.1 4.6-2.6 6.7-1 .4.3.7.6 1 1 6 7.9-1.5 36.6-3.8 44.9z"/></g></svg>
