<svg class="icon icon-drupal" xmlns="http://www.w3.org/2000/svg" width="76.7" height="86.3" viewBox="0 0 76.7 86.3"><title>Drupal</title><g fill="#012635"><path d="M36.1 52.6c-7.8 0-14.1 6.3-14.1 14.1s6.3 14.1 14.1 14.1 14.1-6.3 14.1-14.1-6.3-14.1-14.1-14.1zm0 26.8c-7 0-12.7-5.7-12.7-12.7 0-7 5.7-12.7 12.7-12.7s12.7 5.7 12.7 12.7c.1 7-5.6 12.7-12.7 12.7z"/><path d="M65.7 29.5c-.3-.3-.7-.3-1 0-.2.2-.2.4-.2.6 2 8.8-3.3 17.5-11.9 20-.2.1-.4.3-.5.5-.1.2 0 .5.2.6 8.6 8.9 8.3 23.1-.6 31.7-.9.8-1.8 1.6-2.8 2.3-.3.2-.4.6-.2.9.1.2.3.3.5.3h.2C60.5 83 70 74.5 74.1 64.2c6.5-15.7-1.1-26.8-8.4-34.7zM73 63.6c-3.9 9.1-11.2 16.3-20.2 20.1 9-8.8 9.6-23.2 1.2-32.6 7.3-2.6 12.2-9.5 12.2-17.3 0-.5 0-1.1-.1-1.7 6.6 7.4 12.6 17.6 6.9 31.5zM37 33.8c0 6 4.9 10.9 10.9 10.9s10.9-4.9 10.9-10.9-4.9-10.9-10.9-10.9S37 27.7 37 33.8zm20.5 0c0 5.3-4.3 9.6-9.6 9.6s-9.6-4.3-9.6-9.6 4.3-9.6 9.6-9.6 9.6 4.3 9.6 9.6z"/><path d="M33.5 44.5c.2 0 .4-.2.5-.4.1-.2.1-.5-.1-.7-5.3-7.7-3.4-18.3 4.4-23.6 2.8-1.9 6.2-3 9.6-3 .8 0 1.5.1 2.3.1.3 0 .6-.1.7-.4.1-.3.1-.6-.2-.8-6.2-5.3-11.6-10.2-16-15.5-.2-.2-.5-.3-.8-.2-.3.1-.4.4-.4.7 1.2 12.7-5 15.9-12.8 19.9-6.6 3.4-14 7.1-18.2 17.5-6.5 16.1.1 34.6 15.6 44 .1.1.2.1.4.1s.4-.1.5-.3c.2-.3.2-.6 0-.9-8-9.5-6.7-23.6 2.8-31.6 3.3-2.7 7.3-4.4 11.7-4.9zM12.4 66.7c0 4.3 1.2 8.5 3.4 12.2C3 69.4-2.1 53 3.7 38.7c4-9.9 11.2-13.6 17.6-16.8C28.9 18 35.5 14.6 35 2.7c4.1 4.5 8.6 8.8 13.3 12.8h-.4c-10.1 0-18.3 8.2-18.3 18.3 0 3.4.9 6.7 2.7 9.5-11.5 1.9-20 11.8-19.9 23.4z"/></g></svg>