<svg xmlns="http://www.w3.org/2000/svg" width="107.2" height="93.9" viewBox="0 0 107.2 93.9">
  <title>Quote icon</title>
  <path d="M25.2 93.9c-4.5-1.4-8.6-3.8-12-7-3.2-3-5.8-6.6-7.9-10.4-1.9-3.7-3.3-7.6-4.2-11.6-.7-3.5-1.1-7-1.1-10.6C0 47.6 1.3 41 3.8 34.8c2.4-5.7 5.5-11 9.4-15.7 3.6-4.5 7.9-8.4 12.7-11.7 4.2-3 8.8-5.5 13.6-7.4l8.2 8.2v3.6c-2.6 1-4.9 2.5-6.9 4.4-2.4 2.2-4.5 4.7-6.2 7.5-1.9 2.9-3.4 6.1-4.5 9.3-1.1 3.2-1.7 6.6-1.8 10 0 2.5.4 5 1.3 7.3.8 2.3 2 4.6 3.5 6.6 1.4 1.9 3.1 3.5 5 4.8 1.7 1.2 3.8 2 5.9 2.2v6.5L25.2 93.9zm59.6 0c-4.5-1.4-8.6-3.8-12-7-3.2-3-5.8-6.6-7.9-10.4-1.9-3.7-3.4-7.6-4.3-11.6-.8-3.5-1.2-7-1.1-10.6 0-4.5.7-9 1.9-13.4 1.1-4.1 2.7-8 4.7-11.8 1.9-3.6 4.1-7 6.7-10.1 2.5-3 5.2-5.8 8.2-8.3 2.8-2.4 5.8-4.5 8.9-6.3 2.9-1.7 5.9-3.2 8.9-4.4l8.4 8.2v3.6c-2.6 1-4.9 2.5-6.9 4.4-2.4 2.2-4.5 4.7-6.3 7.5-1.9 2.9-3.4 6.1-4.5 9.3-1.1 3.2-1.7 6.6-1.8 10 0 2.5.4 5 1.3 7.3.8 2.3 2 4.6 3.5 6.6 1.4 1.9 3.1 3.5 5 4.8 1.8 1.2 3.8 2 5.9 2.2v6.5L84.8 93.9z"/>
</svg>
