<svg xmlns="http://www.w3.org/2000/svg" width="64" height="64" viewBox="0 0 64 64">
  <title>Youtube icon - yellow</title>
  <path fill="#E4B038" d="M63.362 19.2s-.625-4.412-2.55-6.35c-2.438-2.55-5.163-2.563-6.413-2.713-8.95-.65-22.388-.65-22.388-.65h-.025s-13.438 0-22.387.65c-1.25.15-3.975.162-6.412 2.713C1.263 14.788.65 19.2.65 19.2S.013 24.375.013 29.563v4.85c0 5.175.637 10.363.637 10.363s.625 4.413 2.538 6.35c2.438 2.55 5.638 2.462 7.063 2.737 5.126.487 21.763.638 21.763.638s13.45-.024 22.4-.662c1.25-.15 3.975-.163 6.413-2.712 1.925-1.938 2.55-6.35 2.55-6.35s.638-5.175.638-10.362v-4.85C64 24.39 63.364 19.2 63.364 19.2zM25.387 40.3V22.312l17.287 9.025L25.386 40.3z"/>
</svg>
