<svg class="icon icon-conversion-funnel" role="presentation" aria-labelledby="icon-conversion-funnel-title icon-conversion-funnel-desc" xmlns="http://www.w3.org/2000/svg" width="68.7" height="82.1" viewBox="0 0 68.7 82.1"><title id="icon-conversion-funnel-title">Conversion Funnel</title><description id="icon-conversion-funnel-desc">Three figures falling into a funnel.</description><path fill="#012635" d="M35.1 13.5c3.2 0 5.7-3 5.7-6.7S38.2 0 35.1 0s-5.7 3-5.7 6.8 2.5 6.7 5.7 6.7zm0-12.2c2.4 0 4.4 2.4 4.4 5.4s-2 5.4-4.4 5.4-4.4-2.4-4.4-5.4 2-5.4 4.4-5.4zm-6.7 23.4c2.2.7 4.5 1 6.8 1.1 2.2-.1 4.5-.4 6.6-1.1 1.7-.6 2.7-1.3 2.8-2 .1-1.3 0-2.5-.2-3.8-.3-1.2-1.4-2.2-2.7-2.3-1.1-.4-2.2-1-3.2-1.7-.3-.2-.7-.2-.9.1s-.2.7.1.9c0 0 .1 0 .1.1 1.1.8 2.3 1.4 3.6 1.9.5.1 1.5.5 1.7 1.3.1 1 .2 2.1.2 3.1 0 0-.3.5-2 1.1-2 .6-4.1 1-6.2 1-2.1-.1-4.3-.4-6.3-1-.7-.2-1.4-.6-2-1.1 0-1.1 0-2.2.2-3.2.1-.8 1.1-1.1 1.6-1.3 1.3-.5 2.5-1.1 3.7-1.9.3-.2.4-.6.2-.9s-.6-.4-.9-.2c-1 .7-2.1 1.2-3.2 1.7-1.3.2-2.3 1.1-2.7 2.3-.2 1.3-.2 2.5-.2 3.8.2.8 1.2 1.5 2.9 2.1zm30.8-11.2c3.2 0 5.7-3 5.7-6.7S62.3 0 59.2 0s-5.7 3-5.7 6.8 2.5 6.7 5.7 6.7zm0-12.2c2.4 0 4.4 2.4 4.4 5.4s-2 5.4-4.4 5.4-4.4-2.4-4.4-5.4 1.9-5.4 4.4-5.4zm9.3 17.6c-.3-1.2-1.4-2.2-2.7-2.3-1.1-.4-2.2-1-3.2-1.7-.3-.2-.7-.1-.9.3-.2.3-.1.6.2.8 1.1.8 2.3 1.4 3.6 1.9.6.1 1.5.5 1.6 1.3.1 1 .2 2.1.2 3.1 0 0-.3.5-2 1.1-2 .6-4.1 1-6.2 1-2.1-.1-4.3-.4-6.3-1-.7-.2-1.4-.6-2-1.1 0-1.1 0-2.2.2-3.2.2-.8 1.1-1.1 1.7-1.3 1.3-.5 2.5-1.1 3.7-1.9.3-.2.4-.6.2-.9-.2-.3-.6-.4-.9-.2-1 .7-2.1 1.2-3.2 1.7-1.3.2-2.3 1.1-2.7 2.3-.2 1.3-.2 2.5-.2 3.8.2.7 1.2 1.4 2.8 2 2.2.7 4.5 1 6.8 1.1 2.2-.1 4.5-.4 6.6-1.1 1.7-.6 2.7-1.3 2.8-2 .2-1.2.1-2.5-.1-3.7zM9.6 13.5c3.2 0 5.7-3 5.7-6.7S12.7 0 9.6 0 3.8 3 3.8 6.8s2.6 6.7 5.8 6.7zm0-12.2C12 1.4 14 3.8 14 6.8s-2 5.4-4.4 5.4-4.4-2.5-4.4-5.5 2-5.4 4.4-5.4zm.1 24.5c2.2-.1 4.5-.4 6.6-1.1 1.6-.6 2.7-1.3 2.8-2 .1-1.3 0-2.5-.2-3.8-.3-1.2-1.4-2.2-2.7-2.3-1.1-.4-2.2-1-3.2-1.7-.3-.2-.7-.1-.9.3-.2.3-.1.6.2.8 1.1.8 2.4 1.4 3.6 1.9.5.1 1.5.5 1.6 1.3.1 1 .2 2.1.2 3.1 0 0-.3.5-2 1.1-2 .6-4.1 1-6.1 1-2.1-.1-4.3-.4-6.3-1-.7-.2-1.4-.6-2-1.1 0-1.1 0-2.2.2-3.2.1-.8 1.1-1.1 1.6-1.3 1.3-.5 2.5-1.1 3.6-1.9.3-.2.4-.6.2-.9-.2-.3-.6-.4-.9-.2-1 .7-2.1 1.2-3.2 1.7-1.3.2-2.3 1.1-2.7 2.3-.1 1.3-.1 2.6-.1 3.9.2.7 1.2 1.4 2.8 2 2.3.6 4.6 1 6.9 1.1zm56.5 3.3H3.4c-1.8 0-2.8.3-2.8 1.8 0 .5 0 1 25.6 31.1l2.1 2.4c.2 1.3.1 11 0 17 0 .4.3.7.7.7.4 0 .7-.3.7-.7.4-17 0-17.6-.2-17.8s-.9-1-2.1-2.5C11.3 42.3 2.8 32.1 2 30.7v-.1s.3-.2 1.4-.2h62.9C63.2 34.2 40 62.6 40 63.8v1.4c.1 2 .3 7.9.1 9-.6.5-3.7 2.6-6.4 4.4-.3.2-.4.6-.2.9.2.3.6.4.9.2 1-.7 6.1-4.1 6.7-4.6.4-.4.6-1.3.2-9.9V64c1.3-2.3 24.8-31.4 26.3-33 .4-.3.5-.8.3-1.3-.3-.6-1.2-.7-1.7-.6z"/></svg>
