<svg class="icon icon-competitive-strategy" role="presentation" aria-labelledby="icon-competitive-strategy-title icon-competitive-strategy-desc" xmlns="http://www.w3.org/2000/svg" width="84.1" height="79.8" viewBox="0 0 84.1 79.8"><title id="icon-competitive-strategy-title">Competitive Strategy</title><description id="icon-competitive-strategy-desc">Icon of a fish eating a smaller fish.</description><g fill="#012635"><path d="M59.1 24.3V5.2c-2-.4-4.1-.7-6.1-.6-8.7 0-18.2 3.7-25.9 10.9-1.5 1.5-3 3-4.3 4.7L1.5 24.6c-.8.2-1.3.9-1.1 1.7.1.3.2.6.4.8l13.8 12.1c-.5 3.8-.1 7.7 1 11.4l-14 4.5c-1.6.5-2.2 2.7-.8 3.2L17.1 64l3.6 15c.1.5.6.9 1.2.9.9-.1 1.7-.6 2-1.4L29.6 65c3 1.1 6.2 1.6 9.4 1.6h.6l7 10.5c.3.4.7.6 1.2.6.6 0 1.1-.3 1.3-.8l6.4-14.5c3.4-1.8 6.5-4 9.3-6.6 9.3-8.7 13.7-20.3 12.5-30.4l-18.2-1.1zm4.8 30.4c-2.7 2.5-5.7 4.7-9 6.4-.3.1-.5.4-.6.7l-6.5 14.5h-.1-.1l-7.1-10.4c-.3-.4-.7-.6-1.1-.6H39c-3.1 0-6.1-.5-9-1.5-.1-.1-.3-.1-.5-.1-.5 0-1 .3-1.2.8l-5.6 13.4c-.1.3-.4.5-.7.6l-3.6-14.8c-.1-.5-.4-.8-.9-1L1.4 57.1c.1-.3.3-.5.6-.7l14.1-4.6c.7-.2 1.1-1 .9-1.7-1.1-3.5-1.4-7.2-1-10.8 0-.4-.1-.9-.4-1.2l-13.8-12V26s0-.1.1-.1l21.3-4.5c.3-.1.6-.2.8-.5 1.3-1.6 2.7-3.1 4.2-4.5C35.2 9.7 44.3 5.9 53 5.9c1.6 0 3.2.1 4.7.4v18c0 .7.6 1.4 1.3 1.4l17 1c.8 9.6-3.8 20.3-12.1 28z"/><path d="M82.9 9.4c1.2-2.6 1.6-5.5 1-8.2-.1-.5-.6-.9-1.1-1-.6-.2-1.3-.2-1.9-.2-2.1 0-4.2.4-6.1 1.2-.6-.1-1.1-.2-1.6-.2-.8 0-1.6.1-2.4.4-1.2.5-2.2 1.4-2.9 2.5l-.3.4c-.4.4-.5 1-.3 1.6.2.5.6.9 1.1 1.1-.8 1.3-1.2 2.7-1.3 4.2l-3.6 1.6c-.9.4-1.4 1.3-1.3 2.2.1.7.6 1.2 1.3 1.3l3.4.5.1 3c0 .8.7 1.5 1.6 1.5.8 0 1.6-.5 2-1.2l.1-.2L72 16h.3c2 0 4-.5 5.8-1.6 0 .1.1.3.2.4.4.8 1.5 1.1 2.3.7.2-.1.5-.3.6-.6.1-.2.2-.3.3-.5.7-.8 1.2-1.7 1.4-2.8.1-.6.1-1.3 0-2v-.2zm-1.3 2.1c-.3 1.6-1 2-1.5 2.8-.1.1-.2.1-.3.1-.1 0-.2-.1-.3-.2-.2-.4-.3-1.7-.4-2.1-1.8 1.6-4.2 2.5-6.7 2.5-.4 0-.8 0-1.2-.1l-1.9 4.8c-.2.3-.4.5-.8.5-.1 0-.2-.1-.2-.2l-.2-4.1-4.5-.5c-.4-.1-.1-.7.4-1l4.4-2c-.2-1.4.1-3.2 2.1-5.9l-.3-.1c-.5-.1-1-.2-1.5-.4-.2-.1-.3-.2-.2-.4 0-.1 0-.1.1-.1.6-1 1.6-1.9 2.7-2.4.6-.2 1.2-.4 1.9-.3.6 0 1.2.1 1.8.2 1.9-.8 3.9-1.3 6-1.2.6 0 1.1 0 1.7.1.5 2.6.2 5.3-1 7.6 0 .8 0 1.6-.1 2.4zM43.4 25.1c2.7 0 4.8-2.2 4.8-4.8s-2.2-4.8-4.8-4.8c-2.6 0-4.8 2.2-4.8 4.8 0 2.7 2.1 4.8 4.8 4.8zm0-8.2c1.9 0 3.4 1.6 3.4 3.5s-1.6 3.4-3.5 3.4-3.4-1.5-3.4-3.4c0-2 1.6-3.6 3.5-3.5zm3.4 21.8h.2c.4 0 .7-.3.7-.7 0-.3-.2-.5-.5-.6C35.3 34.4 26 23.1 25.9 23c-.2-.3-.7-.3-.9-.1-.3.2-.4.7-.1 1 .3.3 9.6 11.7 21.9 14.8zm11.8 10.8c-.1 0-5.7 4.3-11.5 5.7-4.3 1.1-13.8-2-17.7-5-1.3-1-1.4-1.6-1.4-1.7.7-1.6 14.8-3 27.4-3.5.4 0 .7-.3.7-.7 0-.4-.3-.7-.6-.7h-.1c-.1 0-7.1.2-14 .9-14.6 1.3-14.6 3-14.6 3.9s.6 1.8 1.9 2.8c3.3 2.6 11.1 5.5 16.4 5.5.8 0 1.6-.1 2.4-.3 6.1-1.5 11.8-5.8 12-5.9.3-.2.4-.6.2-.9l-.1-.1c-.2-.2-.7-.3-1 0 0-.1 0 0 0 0z"/></g></svg>
