<svg class="icon icon-personalization" role="presentation" aria-labelledby="icon-personalization-title icon-personalization-desc" xmlns="http://www.w3.org/2000/svg" width="86.4" height="86.3" viewBox="0 0 86.4 86.3"><title id="icon-personalization-title">Personalization</title><description id="icon-personalization-desc">Icon of torso surrounded by arrows going in a circle.</description><path fill="#012635" d="M17.7 29.1h.2c.3 0 .6-.2.6-.5 2.5-8.2 14.7-20 30.2-20 8.3.1 16.4 2.9 23 8-2.2.7-9.2 1.2-15.5 1.3-.4 0-.6.4-.6.8 0 .3.3.6.6.6 4.7-.1 15.6-.5 17.1-2.1 0 0 0-.1.1-.1s0-.1 0-.1c1.1-2.2 0-13-.3-16.3 0-.4-.4-.6-.7-.6-.4 0-.6.4-.6.8.6 5.8 1 12.5.7 14.8-6.8-5.3-15.1-8.3-23.7-8.3-16.2 0-28.9 12.4-31.5 21-.1.2.1.6.4.7zM82 61.7c8.1-14 3.7-31.3-2.4-37.8-.3-.3-.7-.3-1 0-.3.2-.3.7-.1.9l.1.1c5.8 6.3 10 22.8 2.2 36.2-4.2 7.2-10.7 12.8-18.5 15.9.5-2.2 3.6-8.6 6.6-14.1.2-.3.1-.7-.3-.9s-.7-.1-.9.3c-2.2 4-7.3 13.5-6.8 15.7v.2l.1.1c1.3 2 11.2 6.5 14.3 7.9.1 0 .2.1.3.1.3 0 .5-.2.6-.4.1-.3 0-.7-.3-.9-5.4-2.4-11.3-5.4-13.2-6.8 8.1-3.2 14.9-9 19.3-16.5zM51.9 78.8c-8.4 1.9-24.7-2.7-32.5-16.2-4.1-7.3-5.8-15.7-4.6-24 1.7 1.5 5.7 7.4 8.9 12.8.1.2.3.3.6.3.1 0 .2 0 .4-.1.3-.2.4-.6.2-.9-2.4-4-8-13-10.3-13.7h-.2-.2C11.9 37 3 43.3.3 45.3c-.3.2-.4.6-.2.9s.6.4.9.2c4.7-3.5 10.3-7.1 12.5-8-1.2 8.6.5 17.3 4.8 24.8 6.9 12 20.5 17.3 29.7 17.3 1.4 0 2.8-.1 4.2-.4.4-.1.6-.4.5-.8 0-.4-.4-.6-.8-.5zm-3.1-54.7c-4.8 0-8.7 4.6-8.7 10.4s3.9 10.4 8.7 10.4 8.7-4.7 8.7-10.4-3.8-10.4-8.7-10.4zm0 19.4c-4.1 0-7.4-4-7.4-9s3.3-9 7.4-9 7.4 4 7.4 9-3.3 9-7.4 9zm14.8 14c.1-2 0-3.9-.3-5.8-.3-1.7-1.7-2.9-3.9-3.4-1.8-.7-3.6-1.6-5.2-2.7-.3-.2-.7-.2-1 .1-.2.3-.2.7.1 1 0 0 .1 0 .1.1.2.1 3.8 2.5 5.6 2.9 1 .2 2.6.8 2.9 2.3.2 1.7.3 3.5.3 5.3-.1.2-.9 1.1-3.4 2-3.2 1-6.5 1.6-9.9 1.8-3.5-.2-6.9-.7-10.2-1.7-2.5-.9-3.3-1.8-3.4-2-.1-1.8 0-3.5.3-5.3.3-1.5 2-2.1 2.9-2.3 1.9-.4 5.5-2.8 5.6-2.9.3-.2.4-.6.3-.9s-.6-.4-.9-.3c0 0-.1 0-.1.1-1.6 1.1-3.4 2-5.2 2.7-2.2.5-3.6 1.7-3.9 3.4-.3 1.9-.4 3.9-.3 5.8.2 1 1.8 2.1 4.2 3 3.5 1 7.1 1.6 10.7 1.7 3.5-.1 7-.7 10.4-1.8 2.5-1 4.1-2.1 4.3-3.1z"/></svg>
