<svg class="icon icon-javascript-front-end-development" role="presentation" aria-labelledby="icon-javascript-front-end-development-title icon-javascript-front-end-development-desc" xmlns="http://www.w3.org/2000/svg" width="84.3" height="75.3" viewBox="0 0 84.3 75.3"><title id="icon-javascript-front-end-development-title">Javascript Front End Development</title><description id="icon-javascript-front-end-development-desc">Abstract icon depicting javascript code.</description><g fill="#012635"><path d="M83.7 20c-.4 0-.7.3-.7.7V74H10.7c-.4 0-.6.4-.6.8 0 .3.3.6.6.6h73c.4 0 .7-.3.7-.7v-54c0-.4-.3-.7-.7-.7zm-30-20H.7C.3 0 0 .3 0 .7v74c0 .4.3.7.7.7h4c.4 0 .7-.2.8-.6 0-.4-.2-.7-.6-.8H1.4V1.4H53V.7c0-.4.3-.7.7-.7zm30 0h-30c.4 0 .7.3.7.7v.7H83v13.3c0 .4.2.7.6.8.4 0 .7-.2.8-.6V.7c0-.4-.3-.7-.7-.7z"/><path d="M53.7 13.4h23c.4 0 .7-.2.8-.6s-.3-.8-.7-.8H54.3v.7c.1.3-.2.6-.6.7zm-.7-.7V12H6.7c-.4 0-.6.4-.6.8 0 .3.3.6.6.6h47c-.4 0-.7-.3-.7-.7zm24.3 50c0-.4-.3-.7-.7-.7h-70c-.4 0-.6.4-.6.8 0 .3.3.6.6.6h70c.4 0 .7-.3.7-.7.1 0 .1 0 0 0z"/><path d="M53.7 0c-.4 0-.7.3-.7.7v12c0 .4.2.7.6.8.4 0 .7-.2.8-.6V.7c0-.4-.3-.7-.7-.7zm6 6.5c0 .8.6 1.4 1.4 1.4.8 0 1.4-.6 1.4-1.4 0-.8-.6-1.4-1.4-1.4H61c-.7 0-1.3.6-1.3 1.4zm5.6 0c0 .8.6 1.4 1.4 1.4.8 0 1.4-.6 1.4-1.4s-.6-1.4-1.4-1.4c-.7 0-1.3.6-1.4 1.4zm5.7 0c0 .8.6 1.4 1.4 1.4.8 0 1.4-.6 1.4-1.4 0-.8-.6-1.4-1.3-1.4-.8 0-1.5.6-1.5 1.4zM22.1 36.8c.9.1 1.9.3 2.8.6 1.6-.6 3.4-1.7 3.4-3.8 0-.9-.1-2-.1-3.2-.1-2.6-.4-6.6.4-7.3.7-.6 1.7-.8 2.6-.5.4.1.7-.2.8-.5.1-.3-.1-.6-.4-.8-1.4-.4-2.9-.1-4 .8-1.1 1.1-1 4-.8 8.3.1 1.2.1 2.3.1 3.1 0 2.6-4.8 3.1-4.9 3.1-.4 0-.6.3-.6.7 0-.2.3-.5.7-.5z"/><path d="M22 38.2s4.9.4 4.9 3.1c0 .9-.1 2-.1 3.1-.2 4.3-.3 7.2.8 8.3.7.7 1.6 1 2.6 1 .5 0 .9-.1 1.4-.2.3-.2.5-.6.3-.9-.1-.3-.5-.5-.9-.4-.9.3-1.9.1-2.6-.5-.8-.8-.5-4.7-.4-7.3.1-1.2.1-2.3.1-3.2 0-2.1-1.7-3.2-3.4-3.8-.9-.3-1.8-.5-2.8-.6-.4 0-.7.2-.7.6.1.4.3.7.8.8-.1 0 0 0 0 0zm41.8-.8c0-.4-.2-.7-.6-.7 0 0-4.9-.4-4.9-3.1 0-.9.1-2 .1-3.1.2-4.3.3-7.2-.8-8.3-1.1-1-2.6-1.3-4-.8-.4.1-.5.5-.4.8.1.3.5.5.8.4.9-.3 1.9-.1 2.6.5.8.8.5 4.7.4 7.3-.1 1.2-.1 2.3-.1 3.2 0 2.1 1.7 3.2 3.3 3.8.9-.3 1.8-.5 2.8-.6.4 0 .7.2.8.6z"/><path d="M54.1 52.2c-.4-.1-.7.2-.8.5-.1.3.1.6.4.8.4.1.9.2 1.4.2 1 0 1.9-.3 2.6-1 1.1-1.1 1-4 .8-8.3-.1-1.2-.1-2.3-.1-3.1 0-2.6 4.8-3.1 4.9-3.1.4 0 .6-.3.6-.7 0-.4-.4-.6-.7-.6-.9.1-1.9.3-2.8.6-1.6.6-3.3 1.7-3.3 3.8 0 .9.1 2 .1 3.2.2 2.6.4 6.6-.4 7.3-.9.5-1.8.7-2.7.4z"/><circle cx="42.2" cy="31.2" r=".8"/><path d="M42.2 33.3c1.2 0 2.2-1 2.2-2.2s-1-2.2-2.2-2.2S40 30 40 31.2c0 1.2 1 2.1 2.2 2.1zm0-3c.5 0 .8.4.8.8s-.4.9-.8.9-.8-.4-.8-.8c0-.5.3-.8.8-.9zm0 12c-.5.1-.8.5-.7.9 0 .4.3.7.7.7.4 0 .8-.3.8-.7 0-.2-.1-.3-.1-.5-.2-.2-.4-.3-.7-.4zm2.1.9c0-.4-.1-.8-.3-1.1 0 .1.1.1.1.2.1.3.2.6.2.9z"/><path d="M42.2 45.3c.3 0 .6-.1.8-.2.1-.6.1-1.3 0-1.9 0 .4-.4.7-.8.7-.5 0-.8-.4-.8-.8s.4-.8.8-.8c.3 0 .6.2.7.4v-.1c-.1-.4.1-.7.5-.8.3-.1.5 0 .7.2-.6-1-1.9-1.4-3-.8-1 .6-1.4 1.9-.8 3 .5.7 1.2 1.1 1.9 1.1z"/><path d="M43.3 41.8c-.4.1-.6.5-.5.8v.1c0 .2.1.3.1.5.1.6.1 1.3 0 1.9-.2 1.1-.7 2.2-1.6 2.9-.3.2-.4.6-.2.9v.1c.2.3.6.4.9.1 1.7-1.4 2.5-3.7 2.1-5.9 0-.3-.1-.6-.2-.9 0-.1 0-.1-.1-.2.1-.2-.2-.3-.5-.3z"/></g></svg>
