<svg class="icon icon-financial-services" role="presentation" aria-labelledby="icon-financial-services-title icon-financial-services-desc" xmlns="http://www.w3.org/2000/svg" width="67.3" height="79.3" viewBox="0 0 67.3 79.3"><title id="icon-financial-services-title">Financial Services</title><description id="icon-financial-services-desc">A piggy bank with a coin going in it.</description><g fill="#012635"><path d="M67.3 48.1c-.4-8.8-4.7-15.8-11.6-18.5-.3-.1-.7 0-.9.4-.1.3 0 .7.4.9 6.4 2.6 10.4 9 10.7 17.3S63.4 62 56.5 66.8c-.2.2-.4.3-.6.4-.9.4-1.6 1.1-2 2-.6 1.4-1.1 2.8-1.5 4.3-.3 1.1-.6 2.2-1 3.1-.4 1.4-.7 1.4-2.1 1.3-.5 0-1-.1-1.6 0-.9.1-1.8 0-2.5-.5-.5-.5-.5-1.4-.5-2.8v-.8c0-.7-.2-1.4-.8-1.9-1-.9-2.8-.7-4.5-.5-.8.1-1.7.2-2.5.2-1-.1-2.1-.4-3.1-.7-1.3-.4-2.3-.6-2.9-.4-1.5.6-1.6 2.4-1.8 4.1 0 .9-.2 1.8-.5 2.6-.9 1.1-3.8.5-4.9.2-1.8-.4-1.8-1.4-1.6-3.7.2-2 .4-4.5-1.7-6.5-1.2-1-2.4-1.8-3.8-2.5-1.6-.8-3-1.8-4.2-3-.4-.5-.8-1-1.2-1.6-.9-1.5-2.2-2.7-3.6-3.7-.8-.4-1.6-.8-2.5-1-1.5-.4-2.9-.9-3.4-2.1s-.3-6.1.5-7c.7-.7 1.6-1.2 2.6-1.3 1.5-.2 2.8-1.1 3.6-2.4.3-.5.5-1 .7-1.4.9-1.9 2-3.7 3.3-5.3.1.4.3.7.4 1 1.2 2.6 2.9 3.8 5.6 3.9h.1c2.7 0 6.1-1.1 7.5-3.4 1.2-2.5 1.5-5.2.8-7.9-.3-1.4-1.1-2.6-2.2-3.3-.4-.2-8.6-4.9-12.2-2.7-.1.1-.2.1-.2.2-1.7 2.9-1.5 7.2-.3 10.8-1.7 1.8-3 3.9-4 6.1-.2.5-.5.9-.7 1.4-.6 1.2-1.5 1.4-2.7 1.7-1.2.2-2.4.8-3.2 1.7C0 46.9-.1 52.2.6 53.8c.8 1.8 2.6 2.3 4.2 2.8.8.2 1.5.5 2.2.8 1.3.9 2.4 2 3.2 3.3.4.5.8 1.1 1.3 1.6 1.3 1.3 2.9 2.4 4.6 3.2 1.3.6 2.4 1.4 3.5 2.3 1.7 1.6 1.5 3.6 1.3 5.4-.2 2.1-.4 4.4 2.7 5.1 1.6.3 4.8 1 6.2-.7.6-1 .9-2.2.8-3.3.1-1.3.2-2.6.9-2.9.7 0 1.4.2 2.1.4 1.1.3 2.2.6 3.3.7 1 .1 1.9 0 2.9-.2 1.3-.2 2.8-.3 3.4.2.1.1.3.2.3.9v.8c0 1.6 0 2.9.9 3.8.7.7 1.8.9 3.5.9H50c1.3 0 2.1-.3 2.9-2.3.4-1 .7-2.1 1-3.2.4-1.4.8-2.7 1.4-4.1.3-.6.8-1.2 1.5-1.5.2-.1.4-.2.6-.4 7.2-4.6 10.3-10.7 9.9-19.3zm-54-23.4c2.2-1.1 7.7 1.1 10.7 2.8.8.6 1.4 1.5 1.5 2.5.6 2.3.3 4.7-.7 6.8-1.2 1.9-4.1 2.8-6.3 2.8h-.1c-2.1 0-3.4-.9-4.4-3.1-1.6-3.6-2.5-8.6-.7-11.8z"/><path d="M31.3 34.6c.1.3.4.5.7.4h.2c3-1.1 6.1-1.8 9.2-2 3.3.2 6.5.7 9.6 1.6.4.1.7-.1.8-.5.1-.4-.1-.7-.4-.8-3.3-1-6.6-1.5-10-1.7-3.3.2-6.6.9-9.7 2-.3.2-.5.6-.4 1 0-.1 0 0 0 0zm-13.7 9.9s-.5 2.6-2 2.6-2.2-2.3-2.2-2.3c-.1-.4-.4-.6-.8-.5-.4.1-.6.4-.5.8 0 .1.8 3.3 3.5 3.3s3.3-3.6 3.3-3.7c.1-.4-.2-.7-.6-.8-.3 0-.6.3-.7.6zM50.7 28c-.3.2-.3.7-.1 1 .2.3.7.3 1 .1C55 26.2 57 22 57.3 17.6v-1c0-.4-.3-.7-.7-.7-.4 0-.7.3-.7.7v.9c-.2 4-2.1 7.8-5.2 10.5zm-20.5 1.2c.1.1.3.2.4.2.2 0 .4-.1.5-.2.3-.3.2-.7 0-.9l-.1-.1c-6.4-5.4-7.3-14.9-1.9-21.4S44-.5 50.5 4.9c1.7 1.4 3.1 3.2 4 5.3.2.3.6.4.9.2.3-.2.4-.5.3-.8-3.9-8.3-13.7-11.8-21.9-8s-11.8 13.7-8 21.9c1.1 2.2 2.6 4.1 4.4 5.7z"/><path d="M42.2 7h-2.5c-.3 0-.5.2-.5.5v2c-1.1.2-2 .8-2.8 1.6-1.2 1.3-1.7 3-1.7 4.8-.1 1.7.5 3.5 1.6 4.8.7.8 1.7 1.3 2.8 1.6v2.1c0 .3.2.5.5.5h2.5c.3 0 .5-.2.5-.5v-2.1c.7-.2 1.4-.5 2-1 1-.9 1.8-2.1 2-3.4 0-.1 0-.3-.1-.4-.1-.1-.2-.2-.3-.2l-3-.5c-.3 0-.5.1-.6.4-.1.5-.3 1-.6 1.4-.3.3-.7.4-1.1.4-.6 0-1.1-.2-1.5-.7-.5-.8-.6-1.7-.5-2.6-.1-.8.1-1.6.6-2.3.4-.4.9-.6 1.4-.6.4 0 .8.1 1.1.3.3.3.5.7.5 1.1 0 .1.1.2.2.3.1.1.2.1.4.1l3-.6c.1 0 .3-.1.3-.2.1-.1.1-.3 0-.4-.3-1.2-1-2.3-2-3-.4-.4-1.1-.7-1.7-.8V7.5c-.1-.3-.2-.5-.5-.5zm1.8 4.1c.7.5 1.2 1.2 1.4 2l-2 .4c-.1-.5-.4-.9-.8-1.2-.5-.4-1.1-.6-1.7-.6-.8 0-1.7.3-2.2 1-.6.9-.9 1.9-.8 3-.1 1.1.2 2.3.8 3.2.6.7 1.4 1 2.2 1 .6 0 1.3-.2 1.8-.6.4-.4.7-.9.8-1.5l2 .3c-.2.9-.8 1.7-1.5 2.3-.6.4-1.3.7-2 .8-.2 0-.4.2-.4.5v2h-1.5v-2c0-.2-.2-.5-.4-.5-1-.2-1.9-.6-2.6-1.4-1-1.1-1.5-2.6-1.4-4.1-.1-1.5.4-3 1.4-4.1.7-.7 1.6-1.2 2.6-1.3.2 0 .4-.3.4-.5V8h1.5v2c0 .2.2.5.4.5.8.1 1.4.3 2 .6z"/></g></svg>
