<svg class="icon icon-emerging-tech-labs" role="presentation" aria-labelledby="icon-emerging-tech-labs-title icon-emerging-tech-labs-desc" xmlns="http://www.w3.org/2000/svg" width="71.6" height="84.1" viewBox="0 0 71.6 84.1"><title id="icon-emerging-tech-labs-title">Emerging Tech Labs</title><description id="icon-emerging-tech-labs-desc">An icon of a robot.</description><g fill="#012635"><path d="M26.4 16c0 2.2 1.8 4 4 4s4-1.8 4-4-1.8-4-4-4-4 1.8-4 4zm4-2.7c1.5 0 2.7 1.2 2.7 2.6s-1.2 2.7-2.6 2.7c-1.5 0-2.7-1.2-2.7-2.6-.1-1.5 1.1-2.6 2.6-2.7zM45.3 16c0-2.2-1.8-4-4-4s-4 1.8-4 4 1.8 4 4 4 4-1.8 4-4zm-6.8 0c0-1.5 1.2-2.7 2.7-2.7s2.7 1.2 2.7 2.7-1.2 2.7-2.7 2.7c-1.5 0-2.7-1.2-2.7-2.7zm-5.7 6.8h6c.4 0 .6-.4.6-.8 0-.3-.3-.6-.6-.6h-6c-.4 0-.6.4-.6.8 0 .3.3.6.6.6zm6 23.7h-6c-.4 0-.6.4-.6.8 0 .3.3.6.6.6h6c.4 0 .6-.4.6-.8 0-.3-.2-.6-.6-.6zM37 50.2h-2.4c-.4 0-.7.2-.8.6s.2.7.6.8H37c.4 0 .7-.2.8-.6s-.2-.7-.6-.8H37z"/><path d="M71.4 32.6c0-.4-.4-.6-.7-.6-.4.1-.6.4-.6.8.2 1.6.3 4.1-.4 4.7s-2.2.8-3.4.7l-.2-3.5c0-.4-.3-.7-.7-.6-.4 0-.6.3-.6.7l.3 3.8-5.6 4.7L48.9 35c1.1-1.3.9-3.2-.4-4.2s-3.2-.9-4.2.4c-.2.3-.4.6-.5.9h-4.1v-4.4h3.9c.4 0 .6-.4.6-.8 0-.3-.3-.6-.6-.6-3.5 0-7.8.1-7.8.1H21.9v-8.9c0-8.9 6.2-16.2 13.9-16.2s13.9 7.3 13.9 16.2v8.7h-2.8c-.3 0-.6.3-.6.6 0 .4.4.7.8.7 4 0 4 0 4-.8V19c.7-.1 1.4-.6 1.7-1.3h2.7c.5 1.2 1.9 1.7 3 1.2s1.7-1.9 1.2-3-1.9-1.7-3-1.2c-.5.2-1 .7-1.2 1.2h-2.6c-.3-.8-1.1-1.3-1.9-1.4C49.6 6.3 43.3 0 35.8 0S22 6.3 20.8 14.6c-.8.1-1.6.6-1.9 1.4h-2.7c-.5-1.2-1.9-1.7-3-1.2s-1.7 1.9-1.2 3 1.9 1.7 3 1.2c.5-.2 1-.7 1.2-1.2h2.7c.3.7.9 1.2 1.7 1.3V27c0 .2.1.3.2.5.2.2.2.2 5.2.2h6V32h-4.5c-.9-1.4-2.7-1.8-4.1-1-.8.5-1.4 1.4-1.4 2.4 0 .6.2 1.2.5 1.7l-10.2 8.1-5.6-4.7.2-3.8c0-.4-.2-.7-.6-.7-.4 0-.7.3-.7.6l-.2 3.5c-1.2 0-2.8-.1-3.4-.7s-.6-3.2-.4-4.7c0-.2-.2-.6-.6-.7-.4-.1-.7.2-.8.6-.1.7-.6 4.5.8 5.9 1 1 2.8 1.1 4 1.1h.6L9 47.3s.1 0 .1.1c.4 1.6 2 2.5 3.6 2.1.8-.2 1.4-.7 1.8-1.4l7.7-5.6v11.4c0 1.2.8 2.2 1.9 2.4-.2.4-.3.8-.3 1.2V64c-2.2 0-4 1.8-4 4s1.8 4 4 4v3.2c0 .4.3.7.7.7.4 0 .7-.3.7-.7v-3.4c.7-.3 1.4-.7 1.9-1.4h2.6c.6 0 1.2.5 1.2 1.2v.9c0 .4.2.7.6.8.4 0 .7-.2.8-.6v-1.1c0-1.4-1.1-2.5-2.5-2.5h-2c.1-.3.1-.7.2-1 0-.2 0-.4-.1-.6h1.9c1.4 0 2.5-1.1 2.5-2.5v-7.6c0-.4-.1-.8-.2-1.2h7.8c-.2.4-.2.8-.2 1.2V65c0 1.4 1.2 2.5 2.5 2.5h1.9c0 .2-.1.4-.1.6 0 .3.1.7.2 1h-2c-1.4 0-2.5 1.1-2.5 2.5v.9c0 .4.2.7.6.8s.7-.2.8-.6v-1.1c0-.6.5-1.1 1.2-1.1h2.6c.5.6 1.1 1.1 1.9 1.4v3.5c0 .4.4.6.8.6.3 0 .6-.3.6-.6v-3.2c2.2 0 4-1.8 4-4s-1.8-4-4-4v-6.5c0-.4-.1-.9-.3-1.2 1.1-.3 1.9-1.3 1.9-2.4V42.5l7.7 5.5c.5.9 1.5 1.5 2.6 1.5 1.3 0 2.5-.9 2.9-2.2 0 0 .1 0 .1-.1l3.5-7.6h.6c1.2 0 3-.2 4-1.1.9-1.4.4-5.2.2-5.9zM60.8 43.8l3-2.5-1.6 3.7c-.3-.5-.8-.9-1.4-1.2zM46.3 31.9c.9 0 1.6.7 1.6 1.6 0 .9-.7 1.6-1.6 1.6-.9 0-1.6-.7-1.6-1.6 0-.9.7-1.6 1.6-1.6zm-13 .2v-4.3h5v4.4l-5-.1zm-8.3-.2c.9 0 1.6.7 1.6 1.6 0 .9-.7 1.6-1.6 1.6-.9 0-1.6-.7-1.6-1.6 0-.8.7-1.6 1.6-1.6zM9.5 45l-1.7-3.7 3 2.5c-.6.3-1 .7-1.3 1.2zm2.4 3.2c-.9 0-1.6-.7-1.6-1.6 0-.9.7-1.6 1.6-1.6s1.6.7 1.6 1.6c0 .9-.7 1.6-1.6 1.6zm11.9 22.6c-1.5 0-2.7-1.2-2.7-2.7 0-1.5 1.2-2.7 2.7-2.7 1.5 0 2.7 1.2 2.7 2.7 0 1.5-1.2 2.7-2.7 2.7zm26.7-2.7c0 1.5-1.2 2.7-2.7 2.7-1.5 0-2.7-1.2-2.7-2.7 0-1.5 1.2-2.7 2.7-2.7 1.5 0 2.7 1.2 2.7 2.7zm-2.4-14.3c0 .6-.5 1.2-1.2 1.2H46c-.4 0-.7.3-.7.7v.2c0 .3.2.5.4.6.4.2.7.6.7 1.1v6.8c-.9.3-1.7 1-2.2 1.8H42c-.6 0-1.2-.5-1.2-1.1v-7.5c0-.5.2-1.2.9-1.2.4 0 .7-.3.7-.7 0-.4-.3-.7-.7-.7H29.9c-.4 0-.7.3-.7.7 0 .4.3.7.7.7.7 0 .9.6.9 1.2V65c0 .6-.5 1.2-1.2 1.2h-2.3c-.5-.9-1.2-1.5-2.1-1.8v-6.8c0-.5.3-.9.7-1.1.2-.1.4-.4.4-.6v-.2c0-.4-.3-.7-.7-.7h-.9c-.6 0-1.2-.5-1.2-1.2V41.2c0-.3-.2-.6-.6-.7h-.2c-.1 0-.3 0-.4.1l-7.6 5.5c-.1-.8-.6-1.6-1.3-2l10-8c.4.3.9.4 1.4.4 1.7 0 3-1.3 3-3v-.1h15.4v.1c0 1.7 1.3 3 3 3 .6 0 1.2-.2 1.7-.5l10.2 8.1c-.7.4-1.2 1.2-1.3 2l-7.6-5.5c-.1-.1-.2-.1-.4-.1h-.2c-.3 0-.6.3-.6.7l.1 12.6zm11.6-5.6c-.9 0-1.6-.7-1.6-1.6 0-.9.7-1.6 1.6-1.6.9 0 1.6.7 1.6 1.6 0 .9-.7 1.6-1.6 1.6z"/><path d="M31.5 75.3c-.4 0-.7.3-.7.7v5.6c0 .6-.5 1.2-1.2 1.2h-7.2c-.6 0-1.2-.5-1.2-1.2v-1.1c0-.6.5-1.2 1.2-1.2h1.1c.4 0 .7-.3.7-.7 0-.4-.3-.7-.7-.7h-1.1c-1.4 0-2.5 1.1-2.5 2.5v1.1c0 1.4 1.1 2.5 2.5 2.5h7.2c1.4 0 2.5-1.1 2.5-2.5V76c.1-.4-.2-.7-.6-.7zm17.7 2.6h-1.1c-.4 0-.7.3-.7.7 0 .4.3.7.7.7h1.1c.6 0 1.2.5 1.2 1.2v1.1c0 .6-.5 1.2-1.2 1.2H42c-.6 0-1.2-.5-1.2-1.2V76c0-.4-.3-.7-.7-.7-.4 0-.7.3-.7.7v5.6c0 1.4 1.1 2.5 2.5 2.5h7.2c1.4 0 2.5-1.1 2.5-2.5v-1.1c.1-1.4-1-2.6-2.4-2.6zm-19-68.4c0 .4.3.7.7.7h9.9c.4 0 .7-.3.7-.7 0-.4-.3-.7-.7-.7h-9.9c-.4 0-.7.3-.7.7zM40.8 43h-9.9c-.4 0-.7.3-.7.7 0 .4.3.7.7.7h9.9c.4 0 .7-.3.7-.7 0-.4-.3-.7-.7-.7zM34.4 5.3c0-.7-.7-1.3-1.4-1.3s-1.4.6-1.4 1.4c0 .8.6 1.4 1.4 1.4.8-.1 1.4-.7 1.4-1.5zm5.6 0c0-.7-.6-1.3-1.3-1.3-.8 0-1.4.6-1.4 1.4 0 .8.6 1.4 1.4 1.4.7-.1 1.4-.7 1.3-1.5.1 0 .1 0 0 0zm-8.5 33.4c0-.8-.6-1.4-1.4-1.4s-1.4.6-1.4 1.4c0 .8.6 1.4 1.4 1.4.8 0 1.4-.7 1.4-1.4zm4.3 1.4c.8 0 1.4-.6 1.4-1.4s-.6-1.4-1.4-1.4c-.8 0-1.4.6-1.4 1.4 0 .7.7 1.4 1.4 1.4zm5.7-2.8c-.8 0-1.4.6-1.4 1.4 0 .8.6 1.4 1.4 1.4.8 0 1.4-.6 1.4-1.4 0-.8-.6-1.4-1.4-1.4z"/></g></svg>
