<svg class="icon icon-manufacturing" role="presentation" aria-labelledby="icon-manufacturing-title icon-manufacturing-desc" xmlns="http://www.w3.org/2000/svg" width="57.3" height="79.6" viewBox="0 0 57.3 79.6"><title id="icon-manufacturing-title">Manufacturing</title><description id="icon-manufacturing-desc">An icon of a lever.</description><g fill="#012635"><path d="M31.1 52.3c.3.2.7.1.9-.3.2-.3.1-.7-.2-.9-3.3-1.9-7.6-.7-9.5 2.6-1.2 2.1-1.2 4.7 0 6.9.1.2.3.3.6.3.1 0 .2 0 .3-.1.3-.2.4-.6.3-.9-1.5-2.7-.6-6.1 2.1-7.6 1.7-1 3.8-1 5.5 0zm2.2 1c-.3.2-.4.6-.3.9 1.3 2.2 1 5-.8 6.8-1.8 1.8-4.6 2.2-6.8.8-.4-.1-.7.1-.9.4-.1.2 0 .5.1.7 2.7 1.7 6.2 1.3 8.5-1 2.2-2.3 2.6-5.7 1-8.5-.1-.2-.5-.3-.8-.1z"/><path d="M54.7 71.3h-2l-2-9.5c-1.6-5.3-3.7-7.5-7.3-7.5H42c-1.4-6.3-7-10.8-13.4-11l-6.6-24 2.8-.8c.3-.1.5-.4.5-.7l-.9-10.4v-.1C23 2 17.6-1.1 12.3.3S4 7.2 5.4 12.4v.1l4.7 9.4c.1.2.4.4.6.4h.2l3.9-1.1L21.4 45c-3.5 1.9-6.1 5.3-7 9.2h-.2c-3.6 0-5.7 2.2-7.3 7.5l-2 9.5H2.7c-1.5 0-2.7 1.2-2.7 2.7V77c0 1.5 1.2 2.7 2.7 2.7h37c.4 0 .7-.2.8-.6 0-.4-.2-.7-.6-.8H2.7c-.7 0-1.3-.6-1.3-1.3v-3c0-.7.6-1.3 1.3-1.3h12c.4 0 .7-.2.8-.6 0-.4-.2-.7-.6-.8H6.2l1.9-9.1c1.4-4.8 3.1-6.5 6-6.5-.1.6-.1 1.2-.1 1.8-.2 7.8 6 14.3 13.8 14.6s14.3-6 14.6-13.8v-.8c0-.6 0-1.2-.1-1.8h1.1c2.9 0 4.6 1.8 6 6.5l1.9 9.2h-8.6c-.4 0-.6.4-.6.8 0 .3.3.6.6.6h12c.7 0 1.3.6 1.3 1.3v3.1c0 .7-.6 1.3-1.3 1.3h-9c-.4 0-.6.4-.6.8 0 .3.3.6.6.6h9c1.5 0 2.7-1.2 2.7-2.7v-3c0-1.7-1.2-2.9-2.7-2.9zM6.7 12c-1.2-4.5 1.4-9.2 6-10.4S21.8 3 23.1 7.5l.8 9.9-12.8 3.5L6.7 12zm9.4 8.9l4.5-1.2 6.5 23.6c-1.6.1-3.1.5-4.6 1.1l-6.4-23.5zm12 49.3c-7.1 0-12.8-5.8-12.8-12.9s5.8-12.8 12.9-12.8S41 50.4 41 57.4c0 7.1-5.7 12.9-12.9 12.8z"/></g></svg>
