<svg class="icon icon-creative-design" role="presentation" aria-labelledby="icon-creative-design-title icon-creative-design-desc" xmlns="http://www.w3.org/2000/svg" width="76.4" height="70.7" viewBox="0 0 76.4 70.7"><title id="icon-creative-design-title">Creative Design</title><description id="icon-creative-design-desc">A paintbrush and artists palette.</description><g fill="#012635"><path d="M71.5 16.6c-.2-.3-.6-.4-.9-.2-.3.2-.4.6-.2.9 7.3 12 5.9 28.2-3.4 39.3-8.4 9.9-26.3 16.5-41.9 10.4-.3-.1-.7 0-.9.4-.1.3 0 .7.4.9 4.2 1.6 8.7 2.4 13.2 2.4 12.2 0 23.8-5.7 30.1-13.2 9.7-11.6 11.2-28.4 3.6-40.9zM1.9 33.4c1-3.5 2.7-5.3 4-5.9 4.2-1.9 8.9.3 13 2.2 3.3 1.5 6.1 2.8 8.3 1.9 1.2-.5 2-1.6 2.4-2.8 1.5-4.1-1.1-6.1-3.4-7.8-3-2.3-5.8-4.4-2.5-10.9 3-6.1 17.1-11.5 31.2-5.7.4.1.7-.1.8-.5.1-.3-.1-.6-.3-.8-15-6.2-29.6-.3-33 6.3-3.8 7.5-.1 10.3 2.9 12.6 2.3 1.8 4.1 3.1 3 6.3-.2.9-.8 1.6-1.6 2-1.6.7-4.4-.6-7.2-1.9-4.2-1.9-9.3-4.3-14.1-2.2-2 .9-3.8 3.5-4.7 6.7-1 3.6-1.7 10.9 4.7 19.8.1.2.3.3.6.3.1 0 .3-.1.4-.1.3-.2.4-.6.2-.9C.4 43.6 1 36.7 1.9 33.4z"/><path d="M60.6 40.4c-4.1-.9-8.2 1.8-9.1 5.9-.9 4.1 1.8 8.2 5.9 9.1.5.1 1.1.2 1.7.2 4.2 0 7.7-3.4 7.7-7.7-.1-3.7-2.7-6.8-6.2-7.5zm4.5 8.8c-.7 3.4-4.1 5.6-7.5 4.8-3.4-.7-5.6-4.1-4.8-7.5.6-2.9 3.2-4.9 6.1-5 2.2 0 4.2 1.1 5.3 2.9 1 1.4 1.3 3.2.9 4.8zm-19 2.1c-3.1-.6-6 1.5-6.6 4.6-.5 2.9 1.3 5.8 4.2 6.5.4.1.8.1 1.2.1 3.1 0 5.7-2.5 5.7-5.7 0-1.1-.3-2.2-.9-3.1-.8-1.2-2.1-2.1-3.6-2.4zm3 6.5c-.2 1.1-.9 2.1-1.9 2.7-1 .6-2.1.8-3.2.6-2.3-.5-3.8-2.8-3.3-5.1.4-2 2.2-3.4 4.2-3.4.3 0 .6 0 .9.1 2.4.5 3.9 2.8 3.3 5.1.1 0 .1 0 0 0zm21.4-23.7c.7-3.1-1.3-6.1-4.3-6.7-3.1-.7-6.1 1.3-6.7 4.4-.7 3.1 1.3 6.1 4.3 6.8.4.1.8.1 1.2.1 2.6-.2 4.9-2 5.5-4.6zm-3.2 2.4c-1 .6-2.1.8-3.2.6-2.3-.5-3.8-2.8-3.3-5.1.4-2 2.2-3.4 4.2-3.4.3 0 .6 0 .9.1 2.3.5 3.8 2.8 3.3 5.2-.3 1-1 2-1.9 2.6zM30.2 53c1.7 0 3-1.3 3.1-2.9 0-.6-.2-1.2-.5-1.7 1.9-.7 6.6-3.2 16.5-13.1 6.9-7.1 13.2-14.7 18.8-22.8 1.3-1.9 2.5-4 3.6-6.1 1.3-2.8 1.5-4.7.5-5.7-.5-.5-1.3-.7-2-.7-7.1.2-26.9 19.9-31.4 24.7-4.8 5.1-12.1 13.4-13.3 16.9-.4-.2-.8-.3-1.2-.2-1.7 0-3 1.4-3 3.1 0 .2 0 .4.1.6-3.1.3-6 1.6-8.2 3.7-3.2 3.4-6.6 17-4.7 19.1.5.5 1.2.7 1.8.6h.1c3.9 0 13.1-3.6 16.1-6.8 2.3-2.3 3.6-5.4 3.7-8.7zm9.6-27.4c7.6-8.1 24.8-24.1 30.5-24.2.4 0 .7.1 1 .3.2.2.7 1-.8 4.1-1 2.1-2.2 4-3.5 5.9-5.6 8-11.8 15.6-18.7 22.6C37.3 45.4 32.9 47 32 47.2l-5.2-5c.1-.7 1.5-4.1 13-16.6zM23.2 43.2c.3-.3.8-.5 1.2-.5.5 0 .9.2 1.2.5l5.8 5.5c.3.3.5.7.5 1.2 0 .9-.8 1.7-1.7 1.7-.4 0-.9-.2-1.2-.5l-5.8-5.5c-.6-.6-.7-1.7 0-2.4 0 .1 0 .1 0 0zm-12.8 24c-.7 0-.8-.2-.8-.2-.8-.8.2-6.8 1.8-11.7 0 1 .4 1.9 1 2.6 1.4 1.2 2.7.2 3.5-.4.3-.2.8-.5.9-.5.2.2.2.4-.1 1.2-.5.8-.5 1.8.1 2.5.9.9 1.9.1 2.8-.5 1.2-.9 1.7-1.2 2.2-.7 1 1 1.2 2.5.5 3.7-3.8 2.1-9.2 3.9-11.7 3.9l-.2.1zm13.5-5c.2-1.4-.3-2.7-1.3-3.7-1.4-1.2-2.9-.1-3.9.7-.3.3-.7.5-1 .7-.2-.2-.1-.4.2-1.1.5-.8.5-1.9-.2-2.7-.9-.9-2-.1-2.7.4-1 .7-1.3.8-1.8.4s-.7-2.9-.5-4.8V52c.4-.8.9-1.6 1.5-2.3 2.6-2.7 6.5-3.2 7.6-3.3l7.1 6.8c-.2 2.8-1.3 5.5-3.2 7.5-.6.7-1.2 1.1-1.8 1.5z"/></g></svg>
