<svg class="icon icon-layout" role="presentation" aria-labelledby="icon-layout-title icon-layout-desc" xmlns="http://www.w3.org/2000/svg" width="48" height="48" viewBox="0 0 48 48"><title id="icon-layout-title">Layout</title><description id="icon-layout-desc">An icon of a webpage layout.</description><path fill="#012635" d="M44.3 1.2c1.4 0 2.4 1.1 2.4 2.5v40.6c0 1.4-1.1 2.5-2.5 2.5H3.7c-1.4 0-2.5-1.1-2.5-2.5V3.7c0-1.4 1.1-2.5 2.5-2.5h40.6m0-1.2H3.7C1.7 0 0 1.7 0 3.7v40.6c0 2 1.7 3.7 3.7 3.7h40.6c2 0 3.7-1.7 3.7-3.7V3.7c0-2-1.7-3.7-3.7-3.7z"/><path fill="#012635" d="M41.7 5.2c1 0 1.9.8 1.9 1.9v11.4c0 1-.8 1.9-1.9 1.9H6.3c-1 0-1.9-.8-1.9-1.9V7.1c0-1 .8-1.9 1.9-1.9h35.4m0-1.2H6.3C4.6 4 3.2 5.4 3.2 7.1v11.4c0 1.7 1.4 3.1 3.1 3.1h35.4c1.7 0 3.1-1.4 3.1-3.1V7.1c0-1.7-1.4-3.1-3.1-3.1zM14.5 26c1 0 1.9.9 1.9 1.9v11.4c0 1-.9 1.9-1.9 1.9H6.3c-1 0-1.9-.9-1.9-1.9V27.9c0-1 .8-1.9 1.9-1.9h8.2m0-1.2H6.3c-1.7 0-3.1 1.4-3.1 3.1v11.4c0 1.7 1.4 3.1 3.1 3.1h8.2c1.7 0 3.1-1.4 3.1-3.1V27.9c0-1.7-1.4-3.1-3.1-3.1zM44 30.2H20c-.3 0-.6-.3-.6-.6s.3-.6.6-.6h24c.3 0 .6.3.6.6s-.3.6-.6.6zm0 8.8H20c-.3 0-.6-.3-.6-.6s.3-.6.6-.6h24c.3 0 .6.3.6.6s-.3.6-.6.6z"/></svg>
