<svg class="icon icon-learning" role="presentation" aria-labelledby="icon-learning-title icon-learning-desc" xmlns="http://www.w3.org/2000/svg" width="81.3" height="86.2" viewBox="0 0 81.3 86.2"><title id="icon-learning-title">Learning</title><description id="icon-learning-desc">Books with an apple on top of them.</description><g fill="#012635"><path d="M81.3 50.8v-7.3c0-3.1-2.5-5.7-5.7-5.7H52.3c3.7-1.6 7.8-5.5 8-13.8.2-11.5-6.1-12.9-8.8-13.5l-.2-.1c-2.3-.3-4.6 0-6.7.9-.1-1.1.1-2.3.6-3.3 1.5-2.4 5.2-4.9 5.2-4.9.3-.2.4-.6.2-.9-.2-.1-.6-.2-.9 0-1.7 1.2-3.2 2.5-4.6 4-.2-1.7-1-3.3-2.1-4.6C41.9.5 40-.1 37.3 0h-.1c-.2 0-.4.1-.5.2-.1.1-.2.3-.2.5s.2 4 2.3 6c1.2 1 2.8 1.6 4.4 1.5h.6c-.4 1.1-.5 2.2-.5 3.3-1.6-.7-4.2-1.6-6.6-1.2h-.2c-2.7.6-9.1 1.9-8.8 13.5.2 8.6 4.6 12.6 8.5 14H9.7c-3.1 0-5.7 2.5-5.7 5.7v7c0 .2.1.4.2.5-2.4.7-4.2 2.9-4.2 5.5v7c0 3.1 2.5 5.7 5.7 5.7H6c-1.3 1.1-2 2.7-2 4.3v7c0 3.1 2.5 5.7 5.7 5.7h66c3.1 0 5.7-2.5 5.7-5.7v-7c0-3.1-2.5-5.7-5.7-5.7h-.3c1.3-1.1 2-2.7 2-4.3v-7-.5c3.5-.1 3.9-3 3.9-5.2zm-41.7-45c-1-1.3-1.6-2.8-1.8-4.4 2.6 0 3.7.7 4.1 1.1 1.1 1.2 1.7 2.8 1.8 4.4-.9 0-2.9 0-4.1-1.1zm-10.7 18c-.2-10.5 5.2-11.6 7.7-12.1h.2c2-.4 4.3.4 5.7 1-.7.4-1.4.9-2.1 1.4-.6.4-1 .7-1.2.9-.5.4-.5.6-.2 1 .1.2.3.3.6.3.1 0 .3 0 .4-.1l.1-.1c.1-.1.5-.4 1.2-.9 1.3-.9 2.7-1.7 4.1-2.4l.1-.1c1.7-.7 3.6-1 5.5-.7h.2c2.6.6 7.9 1.7 7.7 12.1-.1 4.6-2.3 12.7-10 13.3-1.1.1-2.2-.2-3.2-.7-.6-.4-1.4-.7-2.1-.8-.5.1-1 .2-1.4.5-1 .5-2.1.8-3.2.7-7.8-.6-10-8.6-10.1-13.3zm13.8 13.8c.8-.4 1.7-.3 2.4.2h-2.8c.1 0 .3-.1.4-.2zM76 63.5c0 2.4-1.9 4.3-4.3 4.3h-7c-.4 0-.7.3-.7.7 0 .4.3.7.7.7h11c2.4 0 4.3 1.9 4.3 4.3v7c0 2.4-1.9 4.3-4.3 4.3H23.4V71.5c0-.4-.4-.6-.8-.6-.3 0-.6.3-.6.6v13.3h-4.6V71.5c0-.4-.4-.6-.8-.6-.3 0-.6.3-.6.6v13.3H9.7c-2.4 0-4.3-1.9-4.3-4.3v-7c0-2.4 1.9-4.3 4.3-4.3h41c.4 0 .7-.3.7-.7 0-.4-.3-.7-.7-.7h-45c-2.4 0-4.3-1.9-4.3-4.3v-7c0-2.4 1.9-4.3 4.3-4.3h48.4c-.1.1-.1.2-.1.3v25.7c0 .3.2.5.5.6h.2c.2 0 .4-.1.5-.3l3.1-4 2.8 3.8c.2.3.7.4 1 .1.2-.1.3-.3.3-.5V52.5c0-.1 0-.2-.1-.3h9.4c2.4 0 4.3 1.9 4.3 4.3v7zM55.2 52.2H61V76l-2.1-2.9c-.1-.2-.3-.3-.5-.3s-.4.1-.5.3l-2.5 3.2V52.5c-.1-.1-.1-.2-.2-.3zM80 50.8c0 2.8-.8 3.8-2.8 3.8H77c-.8-2.3-2.9-3.8-5.4-3.8H5.2c.1-.1.1-.2.1-.3v-7c0-2.4 1.9-4.3 4.3-4.3H15v8.3c0 .4.2.7.6.8.4 0 .7-.2.8-.6v-8.5H68v8.3c0 .4.2.7.6.8.4 0 .7-.2.8-.6v-8.5h6.3c2.4 0 4.3 1.9 4.3 4.3v7.3z"/><path d="M24.7 53.8c-.4 0-.7.3-.7.7v8c0 .4.2.7.6.8.4 0 .7-.2.8-.6v-8.2c0-.4-.3-.7-.7-.7zm5 0c-.4 0-.7.3-.7.7v8c0 .4.2.7.6.8.4 0 .7-.2.8-.6v-8.2c0-.4-.3-.7-.7-.7zm6 0c-.4 0-.7.3-.7.7v8c0 .4.2.7.6.8s.7-.2.8-.6v-8.2c0-.4-.3-.7-.7-.7zM47 33.2c.5.3 1.1.4 1.7.4 1 0 2-.4 2.8-1 2.3-1.7 4.1-3.8 5.5-6.3.2-.3.1-.7-.3-.9-.3-.2-.7 0-.9.3-1.2 2.3-2.9 4.3-5 5.9-.9.7-2 .9-3.1.5-.3-.2-.7-.1-.9.2-.2.3-.1.7.2.9z"/></g></svg>
